<mxfile host="app.diagrams.net" modified="2021-01-01T06:04:36.451Z" agent="5.0 (Macintosh; Intel Mac OS X 10_15_7) AppleWebKit/537.36 (KHTML, like Gecko) Chrome/87.0.4280.88 Safari/537.36" etag="Z2OJZL_MCs4JwbVtE5sN" version="14.1.2" type="github">
  <diagram id="b92d_7fk7wPdD9NUH83-" name="Page-1">
    <mxGraphModel dx="1298" dy="690" grid="1" gridSize="10" guides="1" tooltips="1" connect="1" arrows="1" fold="1" page="1" pageScale="1" pageWidth="827" pageHeight="1169" math="0" shadow="0">
      <root>
        <mxCell id="0" />
        <mxCell id="1" parent="0" />
        <mxCell id="B8--hFE0BmT9H1GI5RbR-1" value="" style="shape=image;verticalLabelPosition=bottom;labelBackgroundColor=#ffffff;verticalAlign=top;aspect=fixed;imageAspect=0;image=data:image/png,iVBORw0KGgoAAAANSUhEUgAAAPAAAAIICAYAAABQC2PPAAAgAElEQVR4Xuy9B5wdZfU+/ky9ZXtL7xASOgkQmkjv0nuvoRfBUKUoCCJNREABBREUQUAUBOklhBoILZ0ASTZ1e7lt6v/znHdm9+5mE8L3J/4pO7ps9t65M/Oe9zynn3O1MAxD9B/9FOinwLeSAlo/gL+V+9b/0P0UEAr0A7ifEfop8C2mQD+Av8Wb1//o/RToB3A/D/RT4FtMgX4Af4s3r//R+ynQD+B+HuinwLeYAv0AXtvNY7ItYNgPQAiEhgsttAAfgB79RNfiSwb/EwK+GUBHAM035LxA4y9eRB3qsiE0eNDlwrZ6UfMBzVjbp+s/73tKgX4Ar+XGBwjgw4UGAx4M2NCQAfEboBQeTNjdV3JDwPRR0DTYMBBGn7UoAAh6g4iPEewrwMJQwkFz5N+8m158zbV8zv7Tvl8U6AfwWuw3a10CN4DTmIHV3gk/cBAEAfTQQ6KmBqitQTHWAhfItq4Eso3QfRvQPNHERulQpMoreijWLIBUdjlCpwOeTi2tITBswCpH0iyNVP5aPOT39BTZmyBAJpNBMpmEbdvyd0NDA6qrq2GaJjRNA8/zfR+u60LXdXR0dMi55eXlPSjHc/g+P9P74HXjg+es7uB5/DGML7eg+Fy8V1/3W5st/UYDmItbsmSJEJ1HvEi+zo0ZMmSIvP75559j1KhRPQjGc2Iie54n10ilUrKRxUdbW5tsfCKRkJfjDSbxNS1ESAO44AFvzETzg09i6WdzkBpWAc9pBS81bPgg2D85Fakh44BQGcPah0+i6Z/3QA9MdJSXwp8/Awk3i+pNt0fywHMRDNtczGpoOsL2+fBmPYRsx0JoJhAmdcBOorxyALQhx8BPjRYdrtRz/9GbAgTcRx99BO7j8OHD0dnZiXQ6jXfeeUf+3m677YQvCKjm5mbMnj0b66yzDmbMmCE8tPvuu3cBfNmyZXLe0KFDu17j/Sgc5s2bB8ehdQThIV6T/Dds2DD5OxYSfH/BggVoamrqwa/kRZ4X81/My7wfn2PEiBGora3t4tm13elvNIC5uGnTpiGfz2PFihVClPXXX18IQ8BtvfXWAriLLroI2267rQCRB4n7gx/8ADU1NfL+E088IeD90Y9+JNfhBvPnP//5DyzLAgG+4YYbolAo4M0338QOO+yAkSNHQtcCeJoJf1ET2i67A0auFZ+PLsfYfXdB+/yPYYwYg/I7rkXzHrtixBlXIoQLuD68Xx2BtpnTUHvlAwhmvwOtECJc+TH0xQuAHx4H70c/hkkfV7fQ9tZNqGicCgyeAKRKEFohNOK14z3kqyYBY36CJB3tMDKx13ZnvyfnEVy33367gLKiogItLS2orKyUvaQWPuKII2SvCZylS5fi1VdfxRZbbCFgfP3113HKKacgm80K6BYtWiS8te+++8pvCgcqhzfeeEPeGzRoUBfAeH0KjQkTJvQQAq2trfjrX/8q1KeG50E+5vnkRYKV/MZnJZ/y37wPLYHDDjtM3v8qxzcawCQ6iUtivvXWW3j//fdx8skndxGGoLz//vtlc7hxy5cvF1CTCARwVVUVPv74Y1x//fUCyOuuuw4vvfSSSM11110Xhx9+OH72s5+JdCWwd9llF9xxxx049NBDRSDQVfU1A9rMz/HRURdh2EFbo3VMLcpHDseKD6ajum4Iks/fhhUjx2GDK+9HqAXQsm3ADYdhyey5GHrHU/jg0qMw/tqHkVw4H3j/UaB6XYQHXAbNVJu77F+nYXDSBbadAqQGA4EDtC+Hu/h3aA9tVEy8BSa1L33nIiXMTS+2SsgksSkWS/qvygxfhXG+KecSFFOnThWA7bzzzqI9+RoFMQU+wUhhT5oQRLToCHAC+LPPPuuy4h5//HGMGzdOlrXPPvt0aVQKBwKXgqKY5tSoNNEJ7p/+9KcoKyuTe8yaNQsffvihaH6+xoOg/uKLLzBmzBjhZz7rpEmThD+5Z3zvz3/+M4455hhROgT32h7faAAXL4Kb9OijjwrwdtppJ2ywwQby9nvvvSfak2YUwXrSSSd1fYwEnzJlCnbbbTfZZAKZZhKBT8176qmn4i9/+YtIXwqCa665Br/73e+wySabYJtttoGh6XB0DfrMufhg/zMw+NgfoGTIIFSOHikR5bC8BN65B6LxiB9h8Dn3w9cAI7MCuPE4tMx/AeXbnI9PkhoqNtgd+pJZKHvpXlTtsAdw0M8R2iXQQhdL/3UuBpV40He4FKFeh6BjEYyOzxEseQJtfhJV2/6GBa9AaPYA8AUXXCAb/9hjj+HTTz8FGZCvPfDAA/j3v/8twipmyLVlhm/jeQQi955aluYz/165cqXs37XXXovf/OY3XSY0tV1socX+LPf82GOPFfqRjwhCWmqxBv7kk0+EznPmzBHlQK1K8JLXqDT2228/MdVjLU/wzp8/H5tvvjlKSkrkeQhOChO+RmHw/PPP47TTThOzmVqY1//tb3+L7bffHhtvvLFYE2t7fGsATHOH0u6ggw4SIB944IGyUAKOB7UvTabYxKZ2pfQkGElgbtAVV1whBCV4SXBqWgKABPzTn/4kAKYG3nTTTUUDh4YGMwjRPms+5u59JIYfszcGHbs/8MZbaHz9HZRedynaDt0Wxv77ofbCP8GHAaNzOXDDycCGo9CkDURTu4cRex6DedOnYsDb92LQhB8C+10CL1kBM3Sw5KkpGGrn4e94FYzOFUDzF0DYCW/xK2iFhZqd75TINzTGAayufSVjUZpTkvM3BRMZghqGtNhoo41QWsog2Hf7yOVyePvtt2XPCOBnn30WY8eOFTOZAu3OO+8UkMTBrtj3/NWvfoVzzjkHZ5xxBn7+85/jkUceEZoVAzi2ZAg++s4vvviiBL9iM5vangoltoQoFD744AMRqFtuuaXwGJ+PPLrrrrsK4Pk6+ZT+8+DBg7s08O9//3sRHIzlkF/XNqj1rQIwiXPWWWd1RRwpCQlIEpomNol84oknyt80m2655RYhBDeAvgzfI4NTM5GQBx98sGwcTfN3330X5513Xi8AGwKyhtlf4O0fHQrd1LFyYB0GrGhDtVfAzHEjsMVnbyN32F7Y6pr7JNCk5VoR/vokoCKNpXM+wYCrX0VboREr330ZG7S8g6B0JPR9L0BgpaCHPuqfuxTDwiXAuL3QMvNFJIMG6HCRMFrRYk1A1a63AEgj0JlW6o5qxuZcMXOSHsUR0DVFSr8rsOZe0yQliLmfNJ9JE9LnyiuvFEskdiWogSmwuf/UihTYBDDdqIcffli0XzGAYxrR9OY9KOgp2Ovr64WvCN5iGvOzc+fOFV7cY489xBTmfpAvCeJDDjlErAOa9zS76crxORcvXoyHHnpIrEVeL46cr80efWsATO3LyCEJ3hdjkmjUSjShe79PiUhTmRo4fo/EptY6++yzxdwi8XhwYynBqdk004SOLHLNLpr+9AdY77+JQTtvhza3gGBkJVINbfj07kcx4Cenou6AUySfqwU+2m8/CX5qIap2vgSZR29CSclgLP7gVdS4DhJHXQV9t1OhMWWkhfBm3gdzwfMI3Cz0QoYhTmUyWxVwNzkK5tiDhFkCzZB6kf5jVQrQx3zqqacEELFFcsMNNwhIYn+SQHnmmWdEYJ955pn45z//iYsvvhiXXnqpaOqnn35afFSCZ6+99lrlJuQXBlQJ9KOPPlru05vPYo1Nc5iu3doIUAoV+sIMttFEX5vUU/HDfWsATClF05CmUV/mxcKFC0W60c/oK68meds+cnfc2OKQfqzRJC0gucAcwiAF0A/6/f1Y8uHHCAMPdocGa5CF8QcfiZqj90aoJ6SSKgw1aK3taHr+bhQ+nI6s5UHXPHjpBEZscyDsST8C7FJVdQUNflhAdu6LKDTOg+/xXlmEpoWyIRNQOmYX5PU0kkxPacX1W/0w7k0BZiqYOmKUmSYoXSwGkbi/dJl4xH5vnGIkeOL9jlNBPK+vPHBs2cTBwr60ZHGKsjiNuabdivPOMfi/swDuZ9l+CvRTYFUKfGs0cP/m9VOgnwL9AO7ngX4KfKco0K+Bv1Pb2b+Y7xsF+gH8fdvx/vV+pyjQD+Dv1Hb2L+b7RoF+AH/fdrx/vd8pCvQD+Du1nf2L+b5RoB/A37cd71/vd4oC/QD+Tm1n/2K+bxT4ygDuPVVgbbsmvm+E7V9vPwX+FxT4ygBmLWhxnWc/gP8X29R/j34K9E2BrwxgFo2zDevII4+U3tuvWnz9XdmIuAliTQIsbqDguWrGltZVUF88r4sCkQX3xT2rq7tuXJAf3z8uxidd43ZC/pufj+/Blst4n+J5TnFze9xqF890iq/fV+NHXMjP93h/9rqy5zW+X7y3cTN8fF7xM8b3iWdExff7JvNRvO7e86y43nhMztp0HhXzfvGAvOJ5WjEt11YxfiUAc8PYpsWpAmyYZ7fHN5nwX6ewYOcTWxfjgXt93YtM/txzz3V1O8WbEm86/+YgAZ7DOUr/+te/wMbuuNe3r2uy6Zw90TyfwGRL3B/+8AcZdsBxQ/E9zz33XIwePVqa3I877jhpm+MIGPa0NjY24u6775b+Z/ZNc8TMVlttJQLk1ltvxWuvvSbzo+IhbvFzcADChRdeKMLmhBNOkHtxysmee+7ZNeaI55I52cB++eWXy1AF3o9TKti+yXuyHY9r5/QKNtXzfl8VAF/n3hZfmwrrj3/8o7QYxo32xTxPQfhV+nd5bdKNNLjrrrtWmYrJ92NBsTY0WWsAc+oDN52byp7ceN7P/4qQ37T7kA4cXRNrPY514TwkTlUgbcigZHSO/2EvMid9cOPIEDfffLMMzuNGsf+Yc7oefPBBaZecOXOmACAGN+d1sSk9Pgg2Thnhsffee0sfK4F1ySWXyFAC9qGy+Zzn3XTTTWIlPfnkkwISMg17pjkZgs/EsS4cEcPJEnyev//979J4fvXVV8soGrbkcWQM18g2PY6Rueyyy9De3i7al/3VBDzXFWv02BKgYOD6OUSBvzl/avLkyTIAjsDmOCMKMvbmcqDC2mqc/yUfcI85uO6ee+6RBn0OheB+xdqTQxT5Gmm+tgevSdpxzygYKFC5v7GVwtls/Jvz2dZGOa4VgCnF//a3v8koEIKXzPF9P7iJFGhxTIDDBjj4jMPMyPBkaI5HiSdhxkPROKeJ73HKA3846pSA4ERCajcChUzBjeb1OVyAw9piE5uTRDgJkaNdCMof/vCH0gjOZnTuC4FAjUhGo5YmkDjzi/ciAHlN3p+f5xhTns9rcqABNQLH8hBkBBgFAaclUtAQbJwowSZ5Mhh7b+MZZDyPwoPX47lkQt6bM6Y4oYJMSgFGq4DTMH7xi1+I5uU1eZ9vKoC5Fg7Fo2AlXTg7a//99xeakYbcZzb2E8DF/cSrw0Y8sYNWycsvvyz8QauruFedwwAmTpzYNQ73y3D2pQCOJxlwg3784x/L9ID+Q5k5JDS1IScJEsCchDl9+nSZgMlN5ZAympicx8WNoplKbUum4L+pHe+77z7Rohz1QlAR4BSYNIlpshEEHH9LkBGE1Og0XzmEjyYpzXhqOTIZ3+OcJT4TwUgJT43La3JaBact0vSnMOGYF54Xm9CcNUZtc+ONNwpz0oTm8D8KEB40g/lvAo4HP0+hw0kYv/71r0WrxMzO1375y18KWGnW8z0OhVtvvfVkHRQ8fJ/Pcfrpp39jAcx10mIi4KiBSdt4VGwcg6CmpDAjXbkfa7IkKODimdMU7HSfyDukQ5zd4b6RN8hL/xUNzAWQCUl8Bq5iJ/v7DuIYwNSapA3nKpE+HNtCSc1hahy6R0BwDhfnc3HgGuc20TflCCAGA8nsBC/NcWpigo1MQUlcV1cnG0kflz4sZ3tR6tOnJfB5TU6h5HgYWkfUnNSK8QRFmqzUhhzgRo3Ov3lf+mxxJoHSn4KGwoTTEnlNronAp+amBub5/DxdA2phgp5amELm/PPPF6HEsUUcX0PG5vl0E+ivc01kVD4j/V9aE9T2/Pc3HcBcCwUv94eTXrifBHAcFORvWhOcx8V5ba+88spqYRHzCwUyAc894X7QlOawvNj3JR8wvrTjjjv+dwDMRbzwwgviM1Ha01f6Jvor/2uBUgxgaiYCmBqJ2pIakb4kgUo/lDQkk9P9oA/J+UccRs9ZXBSQHDzPjeNsJzIEgUgA09rhOQQATVcCmAc1MIHH8UIchnb88ceLiUdBQq1H85X34JxhPicDY/Stae4RoAxmxT4Xgc97kkEpdCiAyFy0Bgg+7jW1LwUN78d78xwyK81/ApJr49pppTHASTAT2OQVmtDkG2p1To6kpicgCGJaGt9kDUyAUnhS6FGQcv2kZ+zvcw84U43rJr24f8VjdYp5kq9zSijjD3QZbrvtNnEpaLVQ6MaRaM7conb+rwGYD8GNpATlpnEzyFR9zZ36X4Po/8/7xQAmIxI41JDUnBx8xk1l4IOmNAHMTaNpRG1JsBOM3EzSkONySdveAKbZRr93s802ExObwKc25We4B2Qego4bTklORqDGpPajb0Um4TV4H96bZivvTTASRPFQcV6LY1XjZ6dmp+akOU2m5DMwgMkgHc1wak5qWoKWfhyvTb+Qz8m5ZLwfhQItCfrn/OYDanEG42iGUtNTAFCY0bSmif1N9oG5Fu4bg3nUwLHyilN+NHfXxgeOgU2BzWvQkmHgMv5upjjFyOAh9/W/ZkLHqp3mDiUnzUBO8aM0+j4fMYAJHgKVm0ytw9/UPPzNsaN0P2iGxdMMyfScCcwIMINOZHSaogQwQUNtSN+am0sgMSBF4cD7UMITeNTw1JIEG4Ewfvx40QL0mfmZAQMGSIqGoKTJTQ187733CripfQk2Mg6ZhsEuWg802xgppm/KlAmZktFrRqY5RpUmMYHK8/jcXB8Dm3w/Dm7x3wymMQ5A4BLAFBZ8fj4vXQYKF1oSdA94HuMq31QAF/vABDAtKtKzOL/OMbNfJQod+7qkJWnPfSielErN/F8NYhWDNJ4yTyBTUsRjOL+PQKYGZBCI5hR9QmoTphUYaGJxAwUeTSECmJYLI8tk6ngwOFMwBC7NSDIBAUYAM4VDDRXPN441IH0v3ot5X2otpnh4bZrKcRqHAI2/yIuMQgAycEJTmqYtn5fBKZqtNNGpjWkxEIgENTU4709fnkKI+WZqIL5O4F111VVq3K6miWnJ4BzNdb7GtZMGfAY+Oy0QXoOvMQrNzxLE5BkKNPIPgz5kYH5rRhwc+qbxEulLC4rrZYaAgjU2d0l30pCCaG0CTlwb4yG0Wmh1cd2Ml8QTLwlk0psCldbK2riqXxqF7m3HkzFIfGoG+ltrk2z+pm3Kf+N5yKQ0S+l70jQt9n1IeFoqZE4yN494VGksgQlWmlP8+o34q14oIBndJdioRXvTnu/x2jTZY/OWJmuc0og3vLgCLE5z8b5kHprDtAwYtea/CXD+kAGp4RmQoUbnunhdgozCiNFTCqa4oiz+MjCmsChwDjjggK4AJ81r3oPX4DPxujTBKST4vFw3f7huXo9Cam2Y9b+xb1/lGhQ+PCigi4tvigHMFBotsK/yPVS8Fq8Rgz6+HveIwoLCkLReG5p8JQB/lcX3n9tPgX4KfP0U6Afw10/j/jv0U+Bro0A/gL820vZfuJ8CXz8F+gH89dO4/w79FPjaKNAP4K+NtP0X7qfA10+BfgB//TTuv0M/Bb42CvQD+Gsjbf+F+ynw9VOgH8BfP43779BPga+NAloQBvyi2u/g8d9fFr8tOD56Xl1D8Xs8p+f76ruAefC/IULEn+C/u4+e1+m9gt736PtZ4jut7llXfX9tr7MmJlkTtbU+qPF1MBypx+fgjx4CYRHB5LVe+9IXPf/7XPP/utL4ieKnjflIva51PP74/9Mz91ktogWrsHDvZcjnFDev4YgetovSq2PhXpfQfLlw/Gx+0ceKr9Dzan1cW+d11KHxi7tDsoA6gmJ68r1iCGsxG8Uf5skauGRSRq7HLxAPeZ4aEsiP66EOHUbXPXxNffl4EMaf4ud0NiOLENA1+UpxoaEm14quHT1NXB2mvqichxIXxYxtdF+6x+tyzTVtTdF7vbcwJFSKXtSLnj/U+GXlq9n0ojWoxyUtej57fNseYs/QERo6NMeDkbDhJxOwOhx0mgFSVgJhzkFgG+BaXQTQTAPJRAJOYxs0XYdhGvA9HwG/7L2vNUd8urpOo+5n7fnhrvO76L+WBO3aSK8LIKRpCEOeT/G12jjtM5FV/7eDl9F1EpnfTN/NmIBPjlrlosVgF4bn/8mQqxyRhhJBED8wf6+Out37LFDi57RVARwDSBg4ulj8TH1dWjd669FuXcJriF6NiSlCQ4G0Z9kkyWN2vRaQVjJwjlMd2DvLaRec7qCG0OkEdsT9YaiG4fm+hyACuaEbqnY2DGEaCuwygqfIkFI0gPoM90iEhYIv790NYLIFz1XChMaY2raedkHX5qrd+HJkh+p+MYg1Xz2nskO4t30fXQIneu5QABxfhzzWvR/kWsFVCBiWCdgmCtkcrLISmDWVKLRl4FWkUOrrcJraoFWkZe3wfPiGhnRFGTKzFsLXwq4a9rDgwwyK+DF+jkhIFgvSHisQgnYL3vg9P+hWAGuHsJ7aNiAP6+p5+I4fPY/UuwugAe3T3vbN2t1JZLxOqRdvfqhAp+lcjNKAPQ7Z91W3rq9aajExNV6bEmjNR+/P8/4C4KL7h/JMfR9rquXWRbapdXCPfL2I+aJ9FlxxbaECpTw3QRYtX9Uiu9AjsAngKEt1Q2qNzQTH76iNls3SrUggEkyeaFkBVECNq8AW1zcLOHVd3isGGUHYrbd6alzIM3bTg8zM6/oUAn4AvUgjx6K9t5PVm5q9tbrcPSyawBmRnrTi9UmrNR2qXpxndAuoNZ4f0ZQ0JlA1at2Ch8qxI9A65wu4lgarvASh4yFVVopccxsMX40J0po74ccL7G1lBUXE6PUAPbVx3wCmRhfa9LYsvoypo311NA2mZUqzighWzxN8GeSTSNBqC3Q9FAn+ZRctNkOFkYTlhGmjaykmlNd7glcBqieAuzRfETMJcPVu6d+nbBGtHZufZOBIEmsmPCNE7aQt4Q8aBH/lMmQ9ID/9HSSF+YGCaaNQaqIyGyDwaUytxmSKaJE1TKQtG6lMHl4yQCGhwdhoE/i+hkJHFlo+j+SSpYChNKh4WXoCGlzoI8cgGDYCoebDCwowm1phzJlNlILbSqB7oQ9LBwxfgTprmgg0E2nPB8/yw6B7HK3P15Ta76Uf5WnlvegocOyr5sGidvJpXqo3hG6GDmoGQ8x+amkPnplEkppJc2EMHwnUjUS2aSlQ0JBxW1G9shWuHsArKYFfVQ07VYaq0cPgPj8NBadD6dRiMz/UkfQCdNq8gQmjmLnE3FfcwP+TyWOO8QwThh7CdkL48ISXaPa2GUDF8DEwxq+D9gULYZA+9Qvh5W34Vg6OZiMVAonKcpg1ZQgaOpBv74RRWYrQ9xGUJqFV10Fb2QDkMnA780gS0LVlMFqyKNQ3CF3pauliPcRuyarWYZeVEPO4OrVPDRzjNogErAimXjjrgbuiUcAiqIW5NbHAuL+6KEl1+MRw4ENbYOih73MK4pchOGaCbpNWGCdS8Wv6tC7mZc+jT80rJsOaLXouTPnPSijEAFYboKPi5OOhnXYyfBtI5gx8ccTJsDJLUXr0IajdbkegrgyLfnkrglffQqJ2COrOOGa1j27W1QIzZmD5fQ/AMjy02SVIXTQFlXvuhnzgIBm6WHn5tUi//ipcHUi5BAjQVpFC7RnnwN77UCQCG9DycKe+is+vvxrlfh6678IOAdMFOm0dVqCYp2TnXVCy174IW1oB34NH0OpqnrRinNXTJj6HgkEfUoP5d/4OA+Z/ipwewJTwjdo3L6SoAMxABXU83UeoJVBa8NFqGqg48XSYRx0JFy48U0PVf55Gw3U3IihLQzvmBJTvvx90sxQ2Asw+aj8MXr4SDmxoodNFR/GBYcDZYWsMO+JoIGH2ET7qbaFpgJVEy4N/ReeTLwCmg6SriVBO2RXoPP0E1B57Irx8DlZbC+ZfcDY2uvByoMoGgjIUEiZ004BmmzByHnzPg2tA+bv5LJAroPWRv6P1medgNGXg2wbKRw5GkHdQWNKA0A8FFPSautzBYnM6Wl3cTRYvNj6X/unqDgJYZEIYiJVF16bLCuqh5bsVo1zL1GEYbM90lO8rloICamjqCDwf2ueWKQDmxdd4UDpF4PnSNqce5jKlRlEwKAZgb0kkziNZdPV+g1L6ylfsYSarj8IPdZScdiLKzzsXGFgK1/Uxd8ddUG5WYMRjf0auZjASbgAs/RR62I5PLr0D6z1w5+oJn0yhcPtvkL3pNzCNAlpKTFRedDkGHH4U4JQgsHSs/OnlKPnbn9BRUoJGUOV4qNADjDz3fOCoo+AmbDimA+2ZV7Do4otRlgM6bB3NCWCTCZui441XkQh1uL6HxAknovSSyxlmkShZsTlLq7MrcLaKFI8DgmqDfb2A+aefhdEvv4i2tIako4Qef+KAnuYFItFdXU1XDHIa3M0nom7K+bC32BoauRkm5u25J6rrZyJraKg+7GiUXnYFfDsNw02i8Y6rYP72DlgFDflUtwagNdIyeBTGPHg/Okesg9L8WvqCgYP2a65B4d4HYcKFHxrI2D6MMRtj2N//BJTXKnNl6mv45PKfY9S/HocxoBaGb8H2M0q+FbuRkZVYMNLAiqXQ7vwdWh/7B/xlzdD9EJ5FSwXQyf+RGd1DjwkN+j7EH+6SQQw0rv5c8fxj7JHWupoNLUqs4HbdoLvFUGndQFejiQn4kEo2CBFQ6xIrtonA9aEtqygP2YTuFihB1yzhRfGtBoA9ltkrzrG2AKb2DbritKsSzoh8bmqZEF6XqKQxGOgmCnqA2l13RmrK+dAHD4aWCzBn352Q3m0XjLjkcqCyGtBckdhob8Gss07E+D/cQ8kEzXIvSZYAACAASURBVE5Ezqwy8XynAAQGMjdeD+e+B+DaFgqpMpRfdCEqjzoYjuXA8pJoufyXKPzjjwj32gfDfnE1EFjwE9ReZQgCE7qWQcJNIrQMaNkOqgQVQTRMYM4iLDv+RzAKnmjGkkMPRcUFF8JPpmAEVg+/Foy02vSPu2S/mIcao6dhKBpH/CPDhJ7LYvYFZ2HIO2+iM5FCwqU5GgGY0WsyDv3uIISnewipxKoGIU2r4bDDkfRNMafde+5C7rc3qQCKbwKjx6Dk4mtQus1WcO0All/AopPPhvXui7Cdbga2A2D5Dj/E4NtvQ6lRh8DMKwugy/jvZVNHS9IzHchf9wss+cdjSBUM2J6BoFxH+bU/g33AkdD9nASdllxwKTqefRljX3oRdlk5giR9dw3EUIwTLbI61MMHcFcuhn/XPWh/+nkUlrbAdgMRiLLXUcBvFSN0DQDuqYm/HMAqNqKhEHhwqYmjfmA93x1pjne2ayiDoWgqPdjkcdeT+IcMGQy5fwG0eQPLQpsBh84cwpwrAQYlyBixVJcU/0408JqkTOzW8FY9g1h9msuhYqSwKFXTG7KxdU7hyLUUm/lBL4tFnixdAn/QQCBtoWDqSDR1QuvswJCpL8OpTMKkVhMBkQae/yc+O+9CJDbdFNqYIag95QJoI+rEJDcKBSz+1S3wFs+FMWM+SjOdcDUf+VQ50hddiLrDD1ZOiOGj4ZpfInjsr9D33R9111yDMKSWc8RsDQMDrm5CNxjdVP6rrxkwHA2unYf16edoPHg/tUkAChVV0DbbGNqAOhg+I40mDVFAN9C62UYYve+hXeNHabLnpk2F8exLyFkBzEClGHh4TQ1wPvwQ6fYWuCkbRi4CUBQxN6DDoUBx6GkGSA4dAhx+IqqOOkaZMvS/Zs1G6+QT4ba3K8BHUf3EIQej7OxzEVRVQyfv5Vuw9IobkJj2AsJsHqZEs320b78LRtxyI7RkCTw7gNniA8vnww80rqhbDEWBSgLCnTMbwV0PwP1svvjoZkpD29EnY+SUKQDdMN8BZn+GxsuvRn7GDJQfdSjSu+4k7gBjC8Ig1IyDRwDrjoDLdJLH1z1kp76Ixot+icTi+h7psmILVpm5qyoOCVTKz6ppRDXkPQpiRdKDQVMGBcWy8QNxkfiamL1BCFq8MTDhevJ3MW/Hjf58nRo4HmHLz1AD9xge8fngytDk4l0fXt6Bl6XmCeSBCWDRutRQUbqhb4OiVxrnSwDc7a9Raq7evIoBrDR/0Z0pMYuj/Qx2hED5dj9A+tIfA2NGAJYBzJqNz0+egto7roNWNxClI0crE8zx8fEJJ6Lmww9h+xrsoUNQ/uvforDpGFlIorUVK489HZg7E3Y6CS8IYRga2lMGUj+eggEHHcodQWgFaPzFdQgffQjYcltUnXIqMskkdN+DPWw4jLpaWLLBPvzOdmS+qIdZU4F0zVCEFlMA89Bw5GEwKTS5uZGZ7Osakr4OTw/gmwE8pOHstTdGX3ZFlDNmQAPI3nc/cr+/E53JnJwv0UmG0DwXOiW1OE5lCN2MSHz1fUQmClaIRODDdzXYG6wD7YgTUb7nPvANH0ZgwOHXr1x9KRIzZwsYYwYOdR3ZRClqTj0RpYceAqSqEOoBtOaVaP37U3Cf/Qfc+mWw+O0D2+2AYTfdAD1ZwkgVnGnTMednl6K0pQVmUb6VboIoC9KYgTV+jxSz4euug9xeu2LYmWcgsAxxJ0jD5tt/C+evTwD5rMQRSDRqUH7KJJ2rKlB2+aUo23NXBIkk9EBH2LwUrdf+BtnHn4YV+GB6JjY2uyLsEXj7ArCYrNwjPqtkHbpToJ7vqYyMrr7bSoKMRqQEme7jPvjCLhJAFOgGKvUnVokfSp6/B3uLdjYl2GhFI4okgk+BIJ/rljLaomE1XX+FXgAvk0eQLcDwAwFJnNNcLXCjN3rmeNesgYWRotza6gAs942cwN6ROv7NlE7XodFbA+yNxiN92RTYW05AqJVACzswf49DUGYmgK0nYdClZyPQE2B66ItTT4c1YyZSEycgMagSJaecBW/UIPH9qLHafn0rwmUL0DnzU1jtGZglKbjDhsI+6SRU77qTaODADtF03fUw/v4wXMtCfuAAIGlCDywMOP5kmHvtpVLvhgfvrTex7KbbUbXTNig98ligsgZY8AlWHnUsEpQpSQPhRhvB3nCCxAF0jWahAS8RwPRMOOM3QM2uu8iSueGBZiD/3juwX3kDOYabJdilGMzRHDjT30PZp1/ApSYoUjOhZsI1XJQ6BjI7/xClxx6B9PqbIjAsETxuw1Lkfn8v3OefQVhQmlsYjSYc/0tzdGAdKiZPRnK/faAbpfAI/EwBzvvvoP3Bv0Cf8T4yk7bFkBuuh5EsEYssM+0NtFx8IZKZnFgp8eEVbSMFmOXrSE2aBPOEI5DachuxpiQnx3GuK5oQPPkcGh/+C/ylDUj6dKM0uFoSOgooMGC1zz4YcN5kaIMHA5oBeAEyDz+GhmtuQMpxZA1SpVWEVLE4u0JARVo2BhndD0b2QwUgKjSyphkFmKj9dU2le2R/ouVJwMoPYHgsXoHkn5UAUPeQGdpR1JuaNT4kyBgBWGnxNcSFFhLAVO9ROkh3fQTtOYSZPJh/JwPGKYo+PeT4YYukgt67iCNKTHYXTXR7Q3HBh3ovqkiKfO3uFDaLD8IeQRw5PSqm4PPLPZM2qk4+HtZJR0BLVTCqhdkHHoaqhV/A23FHDLvuSiBZisDU8dklFyN4czrWvfduIKEDNcOgJRhN5e76wLLlcPwM5l50FQYt+ALaZuvDPuU4mGPGI11Xp5wMXceKG2+E/fAj8CkYmJaiSagBlVPOh3vI4UhQtHghgtf+g+VXXY2Be+4GY/JZCAcOgDZ/FlqOOZ5eKfK2ifRxx6DypDPU/WkyekkElgvd1RAYKqkv6YVQgdIzGcmmb2MAIe8bp3MCtNzxO5j/eAI5xoijyJWMQoUGg4EQ34Cx3y4ovfgqOFYStpdDPpNB41NPAv/8J9DaDl9XEesYwCQx006GZkAbMBL6CQdh8M67I4Al1wxaWpD53Z0oPPMMchO3wdAbroWeSIkG7nh7GpouvxrJzjYYXQUSvJ6qkGJelgqDgsLadSeU/+RC+INKYYQJJZVorxNkeQdLLr0S4cuvyXUIJD1g+s1DOH49VP7kPCS32UKquIJECH3BQiydfCGsL76Ap1HTs6KuSIOJMOHrUQws1OV9rtWVtGZUYCO5fZWC4zMyh2+xyMbzYRDAOgtuVIApZIow+hpe0c4Mkgm/RsGsKDfM/bAIVN+X6wq4ixSieswvycosHF7DqgJCXkBssBon68Bt65QCA5qmknwvLh8stmYj4PUIVEUmd3xaUJTyWZ0mV35yILwoR+x3ROkPmj3FMQUjqijiM2s0TcIQRhCg8siDkDhrMlBZBng25hxzHEZtPRHJLbcEttpCInsaDMz/2ZXwX3sd67/wnAoo0RQTE5L5UF3MOd9y8NEhJ2HYwnpou2yP2iuuhG+noGm+mLb0r5befBsSf3+UEX8U0pYIGmZsB51xBnDg/tCkasaAM/Ul1F93M4buuhPSJxwPt64a1rx5+OLsM1CWZ+guhHHg/qiafBq0ZEK52J6BghEi4QEFFiMQ17GaNTxoPgNyDFLQ/lDftiDv+xksvuF6lL34qvgavaPXBDR9tFypifTZ5yK97/4wfQdBQUd+0WK47U3ChDHwZTtiYRltj2+4CGuqUDl6LEKY0NwsnKefR9u998FqWIGOLbbDsF9dDY0ADn047SugfzgLnlynO4ARMl7ghwjzDjo+ng3/uZfh5hxUnnQUUscehcAqganRpfPh6wYMz8OiS6+B/vyLMCNfUgxWDgc89nCUn3AUAuar+eVyXg5LfvILWM+90hU76C4SUQth3lfWR99dIx8RcKFoaY9yMSrUUSkSVf3EFXgEH/P2BUfAHsd5CMZQN6WYpyvQxWhxXEwU+clxJaKcL2kmmtJfXuTWGz/aohG1IZmMPhhtdz4MpaGXK8BvywCO1zeAuyLNKpRn9FE6Gdf4xtWafeWaiws6lAtXFJ7v8jVUHpQRSImnRReSogSaz5Ypt2AApfTQ/WCdfgLCyjQ0P4m5J0/G2F/9AmFVOQzDUoUiIfDZz6+G/eJUmKdNRvWodZDYcDy86rQKiAQhOt97F+Gns9F6z99Rl3eR32lLVFx9JTw7DcvxJQEt/t/SxXCnT0f99Pcx4rijBEx66EMbMAB+eSUMiY4aQHsTguVLYKQrgAGD4dkmzM4c8Ny/0XLnH6EzOl5WDQweBN824VDjei48PrNnwNtiEww7+piuMGve1JB/5WV0PvUsSlxaA24Xt5l5H379YtiZNngkmFJtqvSQQpJlmPQpKXTKy5DdehtUjVkH5Xv+CChNwKM/yexGXIpMU5ICU8qwIyER8LnILPyitnZoL76MFQ89irL6xVLk177Fthh07c9gJBNwjAB2oENTlRLyDPGhhdTQVO2s2GhFx92/h/PUv+FUpVFz7hTYm2yIhfULMXLLSfC1QFy7xZddA/3F1yAxeeELDdoWm2HQFVPgMyCnU675CB55Bq2/uA1a4HXlYYvrk1Uhi+ItBpdUJZxJcSSRa5ZeMp3DYJJp8m4qUMgVEMC8KM+VfGxR7RvdGyZP42+ZpNsR003SVeLqRH54pHJD0dirD6KJFRS5SCobo76jWVs8sk40sGaZCFgyQ5OBF/ICWC1ZZFvb+wRwXIml7Ku+AdwFtDUGqrqLDNQ1u+19+gxyeV2HaVIcsoIqKjtk0p5lZioEIukUCp7yIw6AefpxAAEc2Jh30mSsf/318KpKYMIWzcn7fHH1Nah49nVYVoD2UeMw7LJLEK47BqFmQM+3oOW8KbA/+xxtriNReCtVgpax66H88EMxYJut4GkmjNBRyfVZc9Dy73+g6pKLxJykP2lIoMaBY9CvM1TdiWHKxpIRybCmkQCmv4PWi34KL5mD4ZtwJMASwmT+TyLQCYmat2y7OdaZ8pNI0jOgYiN85M9oefA+WNSoxUljxi+Y42RATsrwklF5JmmpgjgUhlQnCQFnGsaYoTDPPBv22IlS15VPMDBWVBvAfwsHRVFq3YTHqily40dz0XnxBcgXcgg0HSYCZCdOwoCrr4KRTIr6FqVga0KH4gYKATS3Oapka3z4HwjuuQ+hW4CbAJJBEtnddsewC84CdFf8yaVXXQftpWnQPZWO0euqUHLRqbC23xUmpQyF2coGzDr2fFQvXgE92a3xe2hKRr5Zrij7oowZMbHps/o+bMuSOnUChuAi6ykLSKWeZA8lZ69ALeCmJqdFJKXA3KdA0j9SZx5Zq7xWnEeO40FKC/dVdhlVO8aFID3KaQHti1FVoRWZbNRoAuCovjZ0PaChDX57ThbHCKUCFDW1ClT1XVFFU7i73LFY7a+SR2awhpsnJkwUbheTRIPOfBc33Q9h0jdnLXKkfUl0zlHu6iaRekQflQcfgNTJRwFVpQg9G5+dcDJKli+HtvlEDLriAiBVAsDCvOuuRc3zb0AnQEeOQ8XPzkcwfpQ8g5HtwNJzL4T+WT1KCiEK9DXDEJ0pAyVnnoGq/XYXLaK5KWRLNKSnf4SGxx5D3ZRz4BOUlOSphJipdshoMs3qEJZHU9GFG6U8TNZIv/A0sn+8H86Wm6B6t30QiqRXh0bNGQBZlhUOHoAko+jx4bvQVjYirF8kGkbK7mLzVqfQCNHx6NPwZn8g5vnaHOT9TLoCA887B4nttoWWzcLNa1hx+RQk6hdDYwkmddvmW6P07LOQrKyBawLWjDlovvjCSDepjEBm860x6MpLYHA9VginsRn+O9OheTHvqCfi/pbtuSfrXwDDQfOjTyP800Pw+Y19kWLI7LkLRl74E6kR0D0dn193Eyz5QrAAKTeBtj22w5grz4dv2DBcAz7yWHLZ1Ui++g5cCfczixCB2A8kZ65iqMqepXKgL8uYBv9H7Us/WCw8AphChyaxbkZpnChyHlUiejzHZ9BVdYpJrCCKQK9CdzFjuoN4yr2h+azSPsX55R6FHCwfpRDlsxKmtJoZUKsfWycmtCq8MaRBgQ65SIgghJn3kG9slfpRM3JCvwzADP5JaHyVzPiqhSCBHsCQAFqXc9D19RXsvmCeUr4BnQELCgWpRqGAoFSM0g/0341Aam7LD9wP9omHCYAZ5fn02BNQsrQdZdvvgNIpJwFlKYlOLrz6OmDuZ/AqS5AcOBKDJx+FcMQgaLx2RwaNt96NluVLUJHJw1q0BL7uIZMwUX7a6aj60W4oGD4sz4S2cBG0F17Byif/jfbqCgR2Euauu2DEHrtAL0ur3Lmy1dC2cCmW/vMJGPNnSSGFY1pINy1DVR7I7LEnhk0+XeIQXeaY5E4iu0rab7qByM3VfRawaHAMDcmivg9qQeaiV9x8G6pefBmFHipvVSjHV2XKJbHVJCQmHwtjwDAxj7GsDUvOOQOpvKNqAeDDnTgJFeecCbuqRgU6P5yLlksuUbFqqXL10DmRAL4IBrWYbQBT30brtTcikWUxRreVtaJqGMY/8juEmiU15M2PPYXw/r8oAMMQ10wAPOV8FdzzNSy87ibglddQng+RWWc0ht16FbzqCukkIv0KL0xD7s4HoC+rF0vJNVTjCJWNGMGRNmSpKkEQtxOK4I0aOmmBuqxVp3amG8loMMVXlN8NafEZhmqI4KJ578ikV4UUsbccUTf+JbnkbmCo+n9GsWMtz9STCmhRfkv8zoiemwo1AjCj66IMBcCmIYzQDeDoJlGxediWhdfYgTCncl6iHaJcb5+10L2YLWYZlYdUWpQ5S67JM+N6X5ov3e1sQpyhVTA6C9AzhcgEVL5ETBrLssWkFuKGjkSiKw86AOYJBwNVKcCzsHDy6TDLq1F+5OFIb7mBBLx4gYYrf4XaceOA4/aCkaedSxNdkIa8xfJDit0QeGs6Wi+/FYFVQKakBKUnnYyqPXZWeQcjRPvt98F96SXYTkGqwZwNx6PupBOAdcbAjyK2sguMcrkBnHffQ+vjDyO5YD5C3ZIWMaZ29Imbo+q4IxGmSiIrg+YIGZbUCxCkk9BLSrvQx6irnnMR5LJiEospFx1M0wSdHVjx+z+iZO7HkiNdm8Mvq0DlMYfA2mknQE+KX00w+L+9FQXDAD0hAtibuBVKzzoNdlW1FLhYHy9A6xVXdOVzdbjIbD4JdT/9CWym8HQN7tvvouHmm5HoUOZkfGSrqjHi/tsAq1Sq5Boe/ye0B/6GMJeXSrYuAP/4HFVF52lY/MtbgKlvIoEEyi84GcYeu8p58mwLl6HxpruQ+nAOCpoj2pO12sKzNLeFnEoJKJwpIPCPIPoduqpxROhKTeewkk11iin+pemgtHjXdYppHPu3RUSPc90UripSS20bgILAtmyVu6fmI7LETQzhihBQALepVB1XrALpfWZgjM9SP44aWEdIH5NBLIbEyeTcMClZhDRE+y2dCJpVUEspy569uqpJOzJxewW0Yk3c/VsTyezTHNMV80n5mDgatIQ9aLaOqr23hre4AZ0zvxD/nHLBoB+MQAr9+ZUXKgDBgnxPqp1KD94P9gkHQCulptWw8JTzYVVUY9Dl50GvrhG/xW9tQOPPfg1n9AgMP+tElS+U3t84sEDJZQjgss/+B95df4OX9pGzTKROOBHVu+8kAs+1PLi33QfnpRfUjI1R66H0mENhbbyeACCn+UivbESufhmSEzaCG2iwQgOFGe+h81+Pwp7/ORyfwsyHkUzBWmcMUF0lZhx9cTGvQg0UX/76Y1C7486R8Fab730wA+EbbyuAF7X80H9DexaZj+eABrge9eP2BWJWF1EY+1YS1g+2Renh+0OvqlURLK2ARZf8CgPmfYIMC+sDHVYYoEAAn3kS7IpKqaW2PvkULVdd3XV5PfCQm7g5qi85FxSyGkzk35uO1pvvQCKTV6CJBE5DbQXWu+c2QCsBI9tNTzwJ/S+PQGcakwDWQ2T22BnDzj1TNUx4wNIbfwP9tfdg77Idqs8+GU46DbojhWwrMg/8B96TzyPlFNAZstyVrEoFxd8MxImRLJqXgjUOYhEkcSBJTGghvS4A9uiqqX4gsSzJc3qkbCR/LG4w9yQq4IiKPVSgKsJE5N9qJoU2eVxVWXn5gvB+99fjqOAUD4nvSHBNg6mbCD3ao6zGZapLkVtbsuEAyaszCq2KNphSUkEtI2pEly/PyuaBpk6ELZ2C/p6pCTru6op9mc1x+2KUCoNObRSZAozgMXXFQokwnUSQ96FlshJsSe48Ae7yFgSz6+EmTCTshCruaGuHS7/GYuqELosnkUfm40oP3AvW8fvBTNOcdVF/2a+R/OhTWNttikJttUy90JpWIjl1BppLTdT8YNvub5yL8+FCYB+uFyC74BOUf7pYAlDtpg775BNRt/su4uf67FC6+0EUXn0VJZtujMSeuyMxfpwIA+aFQ6+Ajj/8Gf6KBtSedQoKNTUwPXaY+MjP/gTJ6Z+g4dVpKG1vRk73xEVxDUaIDXi2DS1w4VGgEgDbb4Ehp50uDSUkshvoyD/1OLQHH4FD/66Pjq+10bpmEMI1LGC9DVFx9CEwx4wSjqQ28mfNQPs1d8D0M8jTjAs1JKi9JkxE6vTJCsCmC+vjT9H0824AMxzhTpiAygvPgJYguHRkP3gXTTffjXSms0sb8h8NtQMw7o4bReDRZG948hmEf3kEJmsRWJOlh+jcbQcMP+9shIEjy1xy42/gzpiN4TdfBWPwKHhmVgoi3MWL4Tz9JrQlK4TplXBXBUnM/Zu0gD5bDG9FgxSksEGApa3K9CcK6bIUTz9RlosAStKp3ZaDeDZRNxxdvIBFUIxxEMSREiRIBRO8V2Q4axrzxeq5yM+M48RFTaI4hZ/V/ZQ27q6bjtcT1yBIZoEAlkIOqmX56kRNwEuTUoOlQE0Z7/nw2jIyhsRoy6rQf3TwM34UPS4GcHd1FqVIN7jF5xAlp3JuNOHNugqUjR6GtpUt8Bcth+04wMR1kVvWhPTyDhSqUkiPGYp8IQNtQb2kMBjmV+YPI6TUQkBi0mYoO/M4aMNGgvX3mDUP4co2WJ6PgqU6gO3AhOX6yNoejJAhfwYpqPVUqkRmK4UhEgUPyDRg5X2PIu2EaEsbSJxyMmp22Ukl8w0Xzfc8AHPBfFSfezYwZJgEXlizFAQu9Hfex8rf3IWEFiC5z65IsIYaKckvUpYmOh24Lz2Jtr8+DpvMSQlPT4Y9iQNqkD7sYBSSCSR8C9mB1UiPGiNEVC51iNyTj0H/y99RkKL3tez46Y1qRqQ33RK1BxwGd9wwCX5JVZaTwYpf/grmzDmwaUZutilKN54owWKXbZYbbSwapGC6SMxcgOYrrpQry6gfPtsmE1F32fnQ7TIYfh5obYQ/91PoLGqhhaEcRngJG8lJ/KpaWnsBmp78N4K/PAyzLdsN4N13xPDzzlH9276G+htuBRpXYODVl8JO1SDQ8xL91jtzKHS0SW43Lv0VbSm4MOGvWIbCnx9H4b1PugJVvtTwRdpM0BpP/hB4yhuSDuoZggBhx2ZuuySlAr9OADfnIqQCot/M1k0ObKBw9ZRfq3iVa+/uLVBfFq7gTQBLqWRXlDoOanVjp3dxhwJwZFczXC4+LYNC1MImyw7jsSYhvIIDv7UTxrI2+FmaQgrEcmMJI/Y8lLZQGxXHclSliiYMrCcsMNIt7Q9pG+bIgUiXV6DwWT281lakB9ahvakF5YEJf92BQFka3qJlQEOzipTH7Y1S9aGa892SFKouPheJHXcU09ix8rBZraRyFVE3EiOV1Cg0ThmlLDIdouflU7MO3nzxBTTdcqeYjpmSciRPnYyqXXYUE9rXXbTdcT+C6dNRcvzRSP9wO2jsImLV2KJ5aLue5ZifqXkRNQNRdvARsFmjqxuQOVF5H00/PRu2BMl0aWCQYpZAR2tNKYbedDvc6kpYOSBMGNDkedVB7dH40J9Q9sTT/ycAx3tnVA1E2c8uRjhkjEqFhKRZAO+vD0H7x+PI+VkkgzQyO++EASecKtZZYAYIdVtNtTBcWB/MRPNVVxbVywfIbDIBg6+4DLpViSAsFGkvIbaKzjBImfJhFiTtIEqh+V//QPDAwzA7sjKKiHn77B47YvAF5ysh5elY/MubkZ8zD2PvugkoqUbByktAkfl25t3BqDzpGEfmabUFSXR88Dayv/4DtE8XRQBWNdRdAI5mi3VHgnsCuLh6100YSFaVoyAFCDrQmoNeCKFLUQ6L70I1Y4sFJazMEqAKWgTExBrdQNHSzHwQ6EXpJaWFVVwjrpsuRlf8LFr9xgNDakSRDvSBbdX2JC17li0AVkDU4bGXNltAobkd/vIWmDk1KoaN0wwgdBEiaj4QfPMZIiHXVS4Z4UVynY4rqQhqYTr3RnUl7HRKmqzh5qRckONQSisrkG1ogp8vSBGCJa1wUVNDBGSZ/cTJG9VpDDn3TIQ77yZ1yZ7uRLOquM7I142KE1gexw0jASOrRUUAAx9mm4/Pz5mMmuWLkEka8MxSJE4/HVV7HAQTHgqhg9ydv0f4n0ehrbMuSiafDXv8BsDn87DkzttQPWc2GpMWyl0VeChUl6Dm4MOg77k39MBFw7XXwfzoPZWyUIZcFEeg8DRQfst9cIcPgaOnkfRYPxYBmPuRa8Piiy/A4EXz0JrUYbPE6f9wmIaOzDoboW7yqQjGjofuOOiY9hyC+x9C2LRMgVrTYE/cHIkpF8MvrRNTnzXjOSOBdEcDWu++BeFLTOuogw0cLSNHY/gNN8CtHAnDbe8GN4scojFBPFcSGxHjskij/b4/w3j4b3C0AgzHkMEBrfvshcEXXQzdZ07cwcJrrob54lSUnXQwyo87Dr5WAlZ0xVVq8UiheNKMbjgI/QTch57Ast/fjVShWxAGxRMPi2a7iZBkFVtcR86YkGFKZ5FravCqKpBMbtjgTwAAIABJREFUJaE5OaDgIGB6kFVcOR9a1CIo6Sruq5WEX3AkzCLbRAVJeyMa2CDBLPrKzEH3eB5FTzVCqe/RPBGATeW79gIwIgCrelBTHH4muZ3OLJwVzQga2qUMTvzhIh8sctPUNYs6h3oDmCaYnQfyaSVAWIedZ09w0kSSvmohK32ERiqBQr6AhKdqtvmaa9Gc8qWQQinXyIeXlJQHR08gm04jrEjD1JIilJjr4yCAKO0sUlA3EqrRXbpgWKSu/BO6E15nC8qCNiRdDx5MZEoSKNtte5RsMkFsmpxTQONdf8bQluXogIFcshqdJTqS+RxKC+1ICmOm4duemGZ+6CObsuGVVAIZH9VBHkGY7RN2vP/KilrUrD8Ojm6JWchSTx70m9x5X6DSaYKVy0rBCqc9/l+OFBsYQgNtqTIEtXWyB6mmJpS4OWQ5rSMqTkC6CslJuyK52aZw6K5qDGiGaHltGvy3psla44OtjrpnwdtkQwzYfReEVkXUwaOETHEzg5Knipnb5s9G7qVnYTc3wHbZzK8jxXFIW2yJ8n33VanNxhZ0/u1xOAs/h2sZyLGFtKwMiUAFNHlI+W9UCUWg5EwHehZItDcj5RWooLuONQFY16yu5gW22brkt5Ik9JoymKwnYClrPguN7h7319cQUgNnXdHwBLC4Z2YSgePA0gypkY6DxVQSrACLAaoEz6oZg65Idx8ToHsC2FQamKaHpGboC7HLhRqZAGatKG8YKn/Yq2+EQdOBkd3IhJVonowOiYprKEGKIqTd4FYFIx1laQyZtDEyre3A0gb4rS3wHRdmscTRNQSmCa+0BKmB1bBrKmAHebTMnA8r68GPykDjzikHnsx4YklEltqd0UQWhbBoIwo8iGQUw4JnqWehRqd0ldygYSBZyKPABzFM2A4DOAEKDE5zzIurI2NpKPVC5BnqhIYUZ2VZzBbS0qOFYML0Ddisr6Y5TkvOoChgRaGBrMXXVq85baErAzA0uVX5Y3zw74LJ93UJehXh5yvhWA0mIOAo+Gim0xMPkTdZctkd7aSAIDBN14Tls/6XcQxWYzH+SkHazXiuoaO0oKHDJAMHsBnxiQ+JmHavuXiapjB7EIoQJ4DpmFFwsafaYwMFe2kZrAwCOLojNeLscaAFl+dwsVjYMK4S3Y+gSOVUCl08qWhmdEywoIj+3f6l4gdG4pXpq3zqMGlDG1gJvYITSVhY4SPIdCJ0CnAo9Kl9ubv5EExF8bNi3Wm2tOsyCEhsxNNCY+3aRRqJvfTdcy+lxMWVcfH66jcZGEqZIpnY0qEx6R6NRu0CME1U2uxSK8rt1WSWUNjQjnBJM7SMSs6LNRRNRZCa5ehZint3VSVWlJPTdeRLU6jYcDT8vAOd0eX2VumGoo0vw0bicy0bdlUVdFZYlaWQNH00fjgHaQo/QxPwxSkwRSQ1R8gIEhLd5BpZMUM2VdMjmbpS5Yay2dIpwnXyhjJlToo1kp6ahuCZlOWuAqEUT9APBEp8E3mTQGXwR2L8smk08Vm9xdQITXuCnuxjBZQoUnsjkV4Vz1D+oJrrqQtYGegy/OjZaJWwC6koQsg6bLbeyVgcFrEEZPg4CsreWgoQxcgyrSLyZlRjifLD2JTBwBA7dxxpXmDwhbUSrF0uzjQoADJiy4YKhC7yVog0a7RZMMo8JSuZSFsBBMEdIGOFqMhTmEWjbLlMxmgiQcRgH0s62S8ryoEBPGoxWmNsXpBEo+oOSnih+PpizLDc1Q+kXpy+Jl+Lawyk0CIa2BeDlKBwuG4/KhNmc0RXSaIM1lUR6O424UgJWQjoNjKQm0wA1eXQOQiPS8znlAbOUaM7qm0zx66iEFpBg59XTQrShumocThFQ0675VmkVaOCYFlvX9JYANxr+qiw7dIJA0LRuFwQ0zIMXkXN3wQwuyqEwQ1qQfK5ZG3lJm4mD62hDd6SRsBTvimBJMMZo8S5bHyR918MXpFAnIZoq/pYKrvA1qUtkAytFzwJ//NvMZ+Yg5bqFD6rMpUYopeorEKhyicTXAElpGJg12bA0OhOEURVXIw8+3rUAia7Z0iemS2BjmZJcYB07nCcsKwpiiTKIkzkE0Bl3kPWUr27KvIpq1LRaAm0cW2kWCjjTflMsg/x83K6jU6mU11fIvW4VslbFilTiZD3ra3V5jMcx8Ca+pzFDlm5oEIN6aO2gSBjZRtjDnkUmGvwNdFg1JQEm4yyYVS3q9FcMZ8aLs4AES0Klomm1GgXxhjYrEA/TsDIuIOaokgtSaC6dM9k9hQtNOX4OiatCl+EApU078HiCWp6RsNV5NdAxjKRzisBGEcLYnM5Tq1IcFTG0fJzkcaMTGplE6lD+ZLdAPZ85lq4wd1FQsonpa9qwghMhIkkrLoqaYhBiQEjlwOynfBd5qV9NeqGAszxJChLqyAsBAgKoXR59uj1lWdTcRfh2Mg4UWayAk+cVio2peJCELXG7ne0ZRMHhgSvmJ/S0EAAK4nms7MmmopIGsgMYQE0B8aw59FH2JGTgFPQ3CSSUIl8BaaY3djLGh9q3nN3RxGZIZrYAxg2wtoKIG3AWtmKIGmjkM/DKE8jUVGOQlO7VB4lQsUQsly2fjGqram5T3EUXSKAHssrNbgcB8snjv3lota4wIhAKbvLVJQBe8RIlG+8ARrfeQfWyhZoLBJIGrDTFXBL0gjaWlAycjjaaxIo+6QeBTcPu+AiMJWQIyAtl+2GClDkTDtZAX/oYBRoZWSY6vCQdlzxy/ODh2DgoCFo/PRTWDWVCFJplHgm3IVqIoba6Z4A7qauAiWH47C1wNCU34qRo5EIkmhqXYaEqp4XXyuV96Rxn5zjWDoqt9gMOZqor3+IQGOzPcf/mDDHrAfkWpBryyJVW4McgzgM+LU2ImxtlnhIzZ47YuFr01GWywqv0CLQ/IzkXas2nYil2SyM1lYZLTRg3Bg0LKqH1dIJs6UVHKFV+4NtsfCD9zFi402wYtpbSLguXF1Dir3OoSXuSmhZqNlsQyydMRsl+Zwwf8JRY3iVJaNQGQNTMbcKwsbzs8WsjQ6Jd0RFHEqr6bBpnrMBJKrOEkEhpYw6tHQJjIoKJKoroFWkVLYlm4GWzQiAyWN0+WiREsysrKJMI3DZixI4BHE3/6uii+4+gRjAqsJQmdBdw2d7+EXRGqPijhjE2vLNB6kYEAdnRekjrlV8Qs5vMhjgUuNSmeXg5AH+sKmbkpIM5ja0AvXLoEWmr+osiSkWfUNGEQG788O05AhgHV6JBWPoUNjlVSgsXgSruRnh6EFwlzbJZiSGDkSivALZZfUIW5qkDJGpFCk0p3kPFWmWazOx7oeS5qCWJYCplWIAix8kRSsEW3dEgyZqYtxYlE3YDJmVDUhvOBoNT74Ma9FSBDVpmBtvisS4ccjOnYmKjccjx5x1bRLWSx+g8MVcJNYfh+QmG6JgazAX1CPz9nswvZwqKuAYnR23Q6K0DHquDVYmg+aXX0f5BmPhT/oBEtU1aJv2KpzGRripUgyZMAGZv/4ZXjarzMOiGWUKz8U01mCOHopwxGh4b8+AX+hE9RGHYcG0eRi9/mA4Sboctown9aa9DW/lIuRNG7WTtkduVDXQpsFYUY/sjHdh+T5yho66o45D04vPwC2ESIxfD96gOqCxA5j/KZKLF0MbvwHSR+wD/eN6hLqashEk03Cmv4P2ZfUYdOAh6CyrxpLXX0VFugRl6w1HoaEV7W99gNLlS+GVpjDorLOx/InHMeiYo4GZCxCYLvIrV0B75X2kJm2FcGgVQg7pGzsKhc+XwnTyCJfUIzvtPYRNLAjppkHxsHsCj4pG2v48NhpE3wwRzWErbjQQANM6c6NpGkXqTQA8ZAD0inKUVFeIpRiydDWfg57LSGCKn6MG1pgDZsEHCzooLHk5T5nPyHc/pxrLsyqAlRzisIaic4tVbWxB0PmioIndkKVbDBQ7k4zOpgZpLYyYg2YUTVJJI8U1mPwtQ86IZp5rwcs6CFc0orBkOTSXPl8P/KpmZmpH+doQ1eQQnyLGFF8fUYPqjdZF++KVKCyol6mB9ibj4C5thNvcIoGDknEj4OfzyLEyymUqQJXkqaF7cc9lPNxMdUqJxI3bGaUyXBW8d1kHOrtNLITpciR22ALayKHQmzvQPmMWkMigeu994M78DO1zPoE1dj2UbrIF7NIkgkw7XN9BYtQwFKa+h7b3p8HadEOUN2XQumIxag48DEvvexC17Y3oWGdd+JVlCNcbC5NBv/Y2pFY2oGPJXNilpQjX2RSVG45B01NPIygA7SkL6xxzBNr/eC/cXEZ8OvrTxSO4OQC+YDmo7gzQPmQQyvc/EJnmFrjPP4vkkCFI77ATOh54EIZUuJXB3GobeA0rgTenotOwMXDHPdBepiH3+lSU65XIbzsWpY0O2t98XWhgDFkPSBnSaZQLW+FtvDn0ubNhL6wHKmqQOvIANLw3F3bHItgoR5BpQ8X49YDWDrS/9SGccePgDh2KXFMD1t1sAhbN/Ai6k4U+Zw7sjhxq9z8c9f5KDBu1AZqfeQ1py0MwsFL8aX/qu6hOVUA74XA0PPEv1O21DRa8MRMDBw9AYtESZD6aJXPN1Lc/qK+0YUFODGLyJ90Uxj3YbMAgq9J8qlyYVkbskzoUEDTX2RwgJazMTbI1NYBTkYI1bCSM6mok04bMFkMhhzCfg8/fBD01L9sF/bzyl9mWHflcAYPRToCwUNSZF/nZMsZZzPnuoJXgtSjS3Neo2thNkGHxXPmSLQaEsenJQJX8xABmsQMBLFFo1kurGmkZv0OzQ0aJ2OLXUFP4i5cjbGgGAg4j6T7ioJFocgFwd1uguBoUUgkNfsIEJ2RyWiIftGT3rRAsbULHgoUwNeWfMRiRYk40dGWDBKAyUrW72TwGbvwE7CTqClr0DIJKsCbHSrBRw2GtPxy5t2ch5VsoPWkvaPMaEL76Ppb+cBTKlzhIbjAC1mZbom1JPZrnzsPo0eMwe84sjB03HC3PPQd7080RJCx0trRi6MbjgPvuRatdgvILL0Bh2jtdAT5zeC06PpmF9PT3kTzqaJjrbAi3woL/wUzkEzYqS0zajsjd/QcEuTxCiwEeBqa6nWLH0JFilDNRAnvnbVFgUYWZQuH96ajdYxcUBg6GfuvtUhDv/3BXeiXIvfoS2GhQetABWJnpQN3T76IwZjgKI2thT30Pxk4/gN1aAKorgfXXAXLtaP7DX1Fp5FCYsC06F8xDqn4JUDcY+Unbo7ZyGDpy85FPVqBs+WIk8gxo+Wif9hpyI4fAGToESUPHwO0nYemrb6G0sQWpBU3wxg5H8sCDkf/Hf2ANqULhrTkwJo1BdsESWCubpfWwM5lEer9dkf1wLtadtCWaZn4Oe2AZWp95DaWZDLQopSZ7LLGQonZK5lvDoGsgnJoJJsN6BMNBQDdC+fUOO93oakVNXxKgZeIhkQQGViA9ZDSM0hQCtyMCcF5aUF0nK+Yy6yI0GffqiqmseTrZHzRPAwZYqaGLARwxZZxfJnbiQ/ziHgBeNaW0RgCL6ozAqjp8VFBINJwMpFaaWJ3HABcjeKyWsSUaGLLtcOEShJ1M3Kto7//H2Js223leV2LrHc98zp0vLmaAIEgCIimKFGVb8+BBsuOO0213u1x2dzqpSiqVD135ECc/I5Wk8sWVHuLuTrUdy5Nky5ZbsURNFEVRpDiTAInh4t6LO5/5HVNr7ec994CWuwIWbAi4wD3nPc9+9t5rr7V2VY6flNQM3pPwFkfVYS0CvsJAInimyNXPfRTJ5n3sv3tDa0KIPPI10IHDjOhdQy9SupVA9npPRgo2DpszDHPOjzNLEz9HnEMmb+mHHoL39ONIvAChX8NRMEEnStH64bvYJgPt+iW0H7sG7+AAWVigdeVJ3L3xLs7EKbb/+CtoP/tzaNERYjhC2Wsg+Ve/h+NWF6v/9e/g1r/6fUT5BF7WRePZpzE83EH9Jy+jXD+HxXMX4F89izv/8bvoPnoR/ptvIj88RppO0E7M04Wot0Ald7ly1Um9CDH+yIdRnLmI6M03EF+8guPnf0gLLpz+3OfQ/7MvY/T4FSxfegSHf/JlBN4IdTaWZIsF7IEzjK8/jaXeCvCNr0mFFRceRn6Ipd/5R7j7vVew9Oa7SDtjTD76aYCo/9YdTL0I8TNPYFBfQfbSD9A4fxnexTNoD1NgOkSN/5+KpjoVYQUQk26Yo2xE8F57A9l3v4PR+gXsjrfR2j7C+s88jenBAGiGiLfv495PXsfpL/0icGYNxalVDHttxMMJanv7wNE+Dv/w6yjfev/E20pulidlHz9t9rkCNLnviQ2p9suE0pQzgDmu0ogqiqy1SuivbRzkMqyhXF9BfHoNrdXTQDYBkkOkCXUAUwRpiix1GXicwCcQy2AmDTPxUGY+pLuYFApgjywxB7BVcTAjiLi9Nx8Etfh1LO+ttP67Q0IjG5XwNp9ZUwmtrOXKS/akpn+0ADaWlgWwymGV0QZw8aEwgFV6JAmSe/eR370LJFNDtp0cyvK9vfz5AC4J/Ljf55yMAU0TdPavE2SosRRii8I5M0tJd5c6m2XHEqtGVtXirjnQTAKFk8xlpBMDhdT7cwwTlog8aCadNTqiW1Ko0KyvovZPfgX+H/wV4v59pB9+Cp1rj2H/+8/j7sEenuTakMjH3f/t99Dd6ABXLyF/8Q1ku9tY+ef/Fe790Z+i0d/Gwj//74GkLzd9TA1u73/nR4hefhG7n/gEGstdLD/+CHKqerwC4Xs7CB86h8nLzyG4vYt2bxmT40ONbxxqozJwXKth/bd/ExjUgXaAbKGHyd8+h8Nbb+HsZ76Ae3/xDWz8l/8U+//7/4KGN4TXOy1yhn+wrdkvLWbLx67DXzsN/O1fg9psmg30nn4WyVMfQ+yNkfzxXyLr3wee+gTGr7+K1vYdjbMmTzyB5ie/gNbtTT3f4mgAr9dG+ua7OH71JdQefgTDpWWE7BcRoXn2DOq9Du7+xddR23wPvU98EruDXZx+6lkcfPN5eFfPIDsYGb/4Bz/BZDJGcP60nDgTRNi68Sa6e334L7yOnMyuqlesQKu5AGZLViUybXdkuWuKHZXQFL8waJl+OD4jjiJCUGkAYLC4guDiBcSnV7Qdwp/24Sd9ZOlQTp3MwGVmoBVLaC8tTPBAfn7qIZ8SheZghm4cRP3n/LFcIJwEcBWkLjbmYpUe2g8G8Fx/LIZWCW/rGbOVVZ/Lxp8ztorIoYqZ35xWQRzPWB9rqY7gViQZIsdNHLNoHMBFYO/dRXl0jCAzPaZEBTMjAoMO5V6gWfGDdpp8zTP3hA8I0asyuCKoz94cg1GzbPfD7QeuMrFGK/pm/HPL3FYdEJyz9kBsIAnWyVaIEFxeR/jkRxFMRxh/9T8iWGgg+NQnEJ45g+mPX0Zx5gwadw4R/fITmPzB/4v65dMYjccaqyRHCZavnsfBn30D3tUN1JeXtM6jVqvbeIXmed1FjL7z1+j91n+DieehgRSHzz2H9sNXEJ6/gjTLcfTlf4NomqHzD38dg6/8JbyjPXtmsuWhi6P9f34G8fppFOcuYPrjn2jU0/3iL2LwzR9g/Ze+hNE3/gq1MkP58HVkw0MkP3wetXGOCRHzR59CvLaE5te/Dvps6Zk+fBn9ZhtBGmKhvwcsLaO8+DDSu3cQ37yF6e4WcO0a8rOLWPjm6xKF0HzPXzuDMAOSt1+B11lD+cyTGGy/j/pBKjfP9nIdh1/5Glq7B0i+8AWMD46xcf0KBt/6JsqPPIn9l15Gk9zv7QH89UW0rj2C3b/6G6x86Rdw9+t/i+UrVwXElT/4sVwzNVhyDhjzPGXa4pi0z7ZAksZoicOtWZ0fw+gfMU6u2rF2A/75s+icOa/tE0xE3nSszFsmQxTpRMEbZCN4bGGIQJOdqLKZd2yJYsjaPEA+4eHnNybCbYWrAVgPgm+zc8vfnyOWzMps93ofNAN0ZvNbTy+pB9YPF8An4xjLypqqcQ5M6qFbEUHiuAJY4FZkjpYMTKJweweY3NmEPxoZmSKqacFVRsmi5rlGNRMLJ6CW12xjLUmfkCyKB+iZ9hptfMqvsa83hNaseKrDbbTOkz5blYO8fR2AMevB6WgxN9LSIjAPabOH4LNPy0xg+u2X0MsTDLsxgoVFTPuHqF19HLVWiOH33kL7v/gUDja30djehL9zjPD8GqK4hcHt1+EdjVH//K/i4Affg7/aRS2MwA188cE+4qeuY/A338Tiz38a99+5i9al8yiPR/C5lItjKL6Du7cxHhxj6ZOfx+CFb8M7OpjdyLpIq4NIMXs9RtZuI9g/wqRWQ+sjH8P+Sy9i42c+hcnxEBOKOuI6vFu3UNy8IW8pMc8uXkTc6SF86QURJMjsqj16DfGpc0KdB+EY8fKqfLW8IsF08314r7+JbGUNxTOPwNuZihs9ZsXSaCLduovytdfhpSHia1cQTIeYTHPgykXERwMkL76KqJgge/JpDIbHwJ1tLDz5OIaNBsLvf0slZ9BywfujH6MzHqL1yc/jzne+hUbgo/mhayje3kR6754bH9lDOFlKxkxq2aLa9yXzeFfCVmOmmRCHpahUYCGKWg3RmQ3Uzq4jbNA8IVHGLRnAzOLJUBJRbogos4mJ6snGykrkU/a8JTISOKalwEhRvxTAbj7tkOZKQ6wEol3PTm3k1ptWr21exFCNmHTBUlvlti54955e0hxYNxntVZ1bgM1TLb1Xyp9KMywChMysaeDGNB1ZYLsZW56Ogbs7yLZ24TV8RN1lhL02vE4DRbMpWmaQ5Dje2UO2cwNBYnQ7/n1ZxVQ97Fx2NrWGvVP78xNDAYF3sy0S1Z/Nlc3MsvxP6DOteRy/gX/PYQi6xMjQYTmIAGktEkOoleQ4bBRocvMgx2pFimmrIRpda+rhoFcXGOIlA9RJ13CODVFJ+WIE1Frwxn2UdaqUPEy8AK10iKTZBQYTeB3ywcc4JhrKJVw1PgfuBa7DG2cowxzd81fR33wTtewEYBSxhKVf5d/kWB92ifuI2qsoBpuYooWiTPXoosJDbDT6GTOLxgr0hQ6GOyhLbjIAJjIu5+c7AXfU8nmQIcXZhdaWUkhCSKjZQhLFIoLo32QLOTmWyKWW+ujTlI4HmE4irRqKw6HMIcJygrK1hjwbIu8XqC37mBQNoL+PkGgwDdQppskCRP4IefcUpv0tkWrKrIaCbYDLVJXUr8rAdvjNXaUyjjMaQjUrtmNUBQeLPDIMi7iGePUUwtNn4LVjGd153gQFM/BkjGJC7veQg13Z+RqJw/y52dnk4wDZJLMATkttgaH/F2fnbmrtLpwHMzBfjNhbzExVADtK2E8L4GpG7NVjNDib3n5qUX9bAeBWc1QobhGSC11lLxu/nPCkSbl0qLV8cEXTms2ovMEYw3v30KhH8Bc6CFYXEawvwzuzCm91GWGzhYwI3c4AxdYW+s//GLh1B7GXiUbII1an5xN/bUIlfTBW6pvdCU3WSLkTMXG2h+WnmAr4jj7J8HV2PxZo1ULyalWGkS5E5SOZgCtOCk/lofrzyhiNVjkitBhLi7TFkiWkY0LJZUT+TDyIRMhZmBuBQDNK5Ah5+XHWTnqlvOvYnrCSKFASdwhqSNnORFyZEmtTQ8C8rAVwfI2GCdC7iT5epHnK9EySVhJE+fpYOtK5k0FBMzm7yBx506ojidrJDKp8ZJk05C9hSiR1HM4MXRQyN7yTxSttX+xrmUbEJOLvF54uP+5BYIDQ70rsJ/1dvgWS+MncypGWBDGnshUy9pdjYKnH41PjE6KBGz2wnV2rfKKNp22kDKOLzjoolWQnl/QD7hPuPVRsK37OU7qRLG2gfmodRUdKDRGAfH8injPHRl5KTugIyJh9p8gyQ52VY5hpB7RizpBxt3HiJOrm5j6zEOJLqlaEntgKOW83MVGsxqwyMC9NGirK85yXl4nV4fVa8M+soLW8CG/7eof28JbpnaWOduwwGKVGEjZsNjsu+4mlxZ6zYnAxunRjkf1CDihvzxTliMPuKWqrHUQbqwjOnkK4sYJytYei3URYayGJG7qVo8Mx8s272Pn636D2yrsCbKahHfSQziCaUfOiMEsUMq+4pDsoM6GRskmtWuBZv+s6A1IV3fsgKV/KHceFfnDe5dJ49e+wNK2qgblsXfVTJ9/P1XDuN+SxrRLXXpOcTp09UWXwLecTEkkcqKa2xY3xWNFoyzztaaPIHBFDo4SK56tbO1JA0r6WzxpUNRHx1f9m4P496iRlhJPRhc3mncWMO/eWuWzrAX+YY6L91KpL7TGydkbWNHqTzpzc/Vm1vkSPwBmiy0WxMi+v+jonpVSAa2vC7GOc8ZMtfzIQ/q7TqQngXanq/qoxSOcmHXMjpmrrQpXduOa9triOaPk0ilYdqM9hQN5YPTCSCfxsijIbye7W+mDrb5lxfTKahhwXFWQUG4njgT735D0xgG3Dhbtg5ozlq6+qXjqdLvXS1W5SKBOgtraI+Nwq/KUu6Cbr3X+0rQCW7YgTLVRZNlMGPglgc+ywn6S8ib3l9sbw0FW3Bw9AzuCi1xMr7F4DwakVRGfWtUG9XGgja9YRxXWhjvBqKMMGCq8GP4xR3L6H7f/zKwhffgEN0iQbARJmcprAhb7sWVnG8Fam/xJJ5SwTT4AqexRG8mAf7/jO4iCTumV9r2Jnjh1hz9Qys1Uh82iH9cuzoHW4wQw/IJHb/RCW6ZxMDOp2y2nUIpgYogLk9DorJ0p+DjSpj2oI4yYQRwjIC48jhFySLdYLDdpilOUYHk8L25XpFBNm44qLm06V5bh4a/6CEvjH9aZzWybn379eS2XU5nyfxFoiN5isN81InfCi4hm7oGQ2no31KmGA+xqisLoIJDSoAr/iNVfx79LznHJpRjNUhVG5WdhnNLscLbrNltZZxVaeipbJHIGjupSdIKAifSTtNjora0CjjZwrZumwO0byAAAgAElEQVT9JX4Bg2ckrrbHLJyMURCFpnlhRiSadEkf6TBFSbLGmH0v9/gaf7t6v/ZtT7JsFcBKkHqv7lDNLrKTc8REKH0B/c/qEaJzp9B+6AyKXkM8Ko5TvXuXazK1YxBzfCOWkttdWgVwFbRkav19AUxqo0pZ8Y1zoQp+VCKuRerz/PUVeJQC0nC9x3FNHQGD1p8iYFYg2l0L4YUNoNYDGgvAi+/j3X/7ZSxtbyGmC8TqMuKlHnA8Rr6zjylBEJY2Kq9sM4FKo+rDmgXiXABrmY4LYCVce4CGCVkprcfqVFPV6KsCK6sgNY64A0fYd3JQffKNRe90yga3kd2+F8dmLK1nZBldhEb98+IYqNUQ1BoIa02U3SZAnzDK2Fp1lI0mkloL07CBYOojSCYIx8coj/ZR6x8gGY1Md8oZZTLRVgHBBiemvcagcwQdYRbuDVkBbBmQPHI+R7na6tc8mLZPWEHBf3M+SBnsqQp7Kxcd1a5yoaCxvVXZLoD165MgdAncVpSIXeVYdS44rdx1Aey++IHZqF4PTels09+DAcy/MMeF1hYI+6BoKDEhQMeLksSNMDYBA/EIIvwhBTo5islIASwmFqsb1sgTD/mIAgaWzAXyMR0m7XVUIy5jS1mQzoQWlfOq2k0+gweJHLP3JWDH/mzSjtC6eh7N86eRd5j4ItIwrJzevFCXraylSroHaI5jABbF9MqydsBU2lU+VDJeD5DbDksjNepE85BOCQMhrHkouxHQrSGk2+JiF/5SG2G3hZK3Xa1m/ZO0xqGxwPh9a/wzHtwO/HQR/a+9gMn3X0Qj8tA4fUr9YfH+2zi48758kHwCDVrYRb1vLjEBe2RVCHoEtnBMObmidc4yr5XTDkOwHq0acc3L99Rn8yIw5ZbGN/LSMvnlrGTWzNxK8Vl2ptTStSWmFLHXwt9TVxc3kMcxCi72bsaIGjV4nUWUvKx6p5AunkNt4xKKzqJcIewtOeMzWo2Oxyj2NpHffgPe1jvwp2OkhzuIpiMkXDJeUBBrQhSh9dpoEYpnzOVhvoT7TGE0NSf4kmnTxRRTbT+gGRzVNmR1yY2RgUwpnePl6t24zCZswe1JtTL1RGjghnmuhLTelUDP7MecpQ3/ru1YrloB10/OFEcuc89lZyvv3XRjvhR36jnXpZuwg8BcvY2004If1uGFMXySOkKj5sqL3Oe8OEWSjFCkYxQ5xfs5/CRXwOaTTLHMMnqe72ytwIOjIruvZjf8iRpJ8j37wdcvTRIzL6WdQYJsqYXa9YcRn1+XEooeWwFXjrrz522fq5faW6qAdHs6aWjH4JT6yJXN7D/5JmcBbAAWS1qtUVSp6obh3EpPlQ9viW5NTXe4uARvsQe/W4dPc3WWz3Re5CuXCRj/fbr4R0IEEdXgMyM1FoGyB9w9xPD5HyPY2ZHhWrmzi+H2jo2qWOKQLcMA1pYCVgGWCSxuLc8YZ/oDwSVqpwXbvKnd7Km6uavArZkRkSOfVH/mArhScUnn6+aOGl0FJ99jRmZh8PLZsl+uNcy+qNlC1GmjWOjAO3UOyaknUDtzAWguAPRX1o4fO9BlMYZH9RSJ9KReTQF/yn1Wh8je/zHye28DB3cR54kkg3rMrKBqTW0M9LmkLYwxjgg4ZQh5CZJfTkog5/lU2ZCRME3h0dyPlqYsyQmUUeml8pzzTVc6V9mZ75w65sKhwNIjm6ROxANXppv65sEAVn862xJYnKze/CkAz7wMz57HnLE6X6NixUpoGytZ6V1JKosyRFhvIa3XEZApFsTwSbSJjLzEACahhwGcinXF8zUCxilyLkyfBCJqZGM2whJLz77lTw1gvRzTa9svLZhJvZwFsC47LukjtyJGbaOD4GNXgVOLqHGLIWW3FZYjp0wSOTYiuleL0KDSUovuLANzyZayBHsCIs0uA1fUyiqAWYowg3hsDDwelz4iehRRBN+JgfYSarR0XVoURI9GhDKqO88tZiz2dxTtsieuK4B50BCyD2R53yU9BvkowfiV1+G/8Brym++g7B+hHAx0cItsqN6EVqwCcNwFqIzrVm/O+vW5S5/pQP2uwx1sHOW+oNo6pwDlpXASiBXxZ7Z1ziHaAvKE6Nu/wSqAiqdZ5aLS2sppfV++PwZTo4mw25EvNM48ivLyMwhWL7hsaVzealRn5gOpUQmZicUIGgJjejMl8Kd0D72H7ParCHfeUnvkk1jRXkPWXYXfWYAf8dDyuXMskqFIJsDoAAFZV+M+MB4AaWLmheMEJb2RGeCpSeYU6ApKl0mdXNFSiRHOK6AolN2q2eYYGHaSdD+YgU+E9TzILsu65WOzD9XS1Vwf/CDAVTlIVt9frhuzAHZBza0PtRayKFa7wgvSi0OUcqRxiYsU3DxBnrtZcDoSUamUob6PjGZ8HBfJV+1k1vzTArh6xyd4oD0E6Y2rGbX7opLt5eWzaH/4CrzVltoz295kPzQ6q8QMmyuceXBRmJYBq3dVSV05U5J3zAPgM33zAzd3Duui6VQQCGjJCL74VCIxgEl1m9j6kziA1+0hXl5CwJKQ2bdRk86Tt0wQ8Fqht0wNiFsK2pLlS1xD3lhEUOOfkUvbMe9glnLvbWP6ne8geeVVrbJUbzKmPnOMspg4kb8Lttk2vEq1NHd4KhvZKgPP5smONCJHC4W229vkikBHmFE1MhtfVdneE2JcSbI02+YzdXPyahcznyFbEHpb540FhO0ayqVl+BeuIXj00ygWVvUc+L3t+3CO7PYm2dDQAkE9HTMknwGXs49QsiqhfdD4CMXuXeS1NrxGBx5nz6HNwWnswwuZFU/Iz17Nb4JyfIRs/y6CrXd1OdKXrByMUFJHTAR2MkHBC5OHmv2x27yn0tuNgOSZ7EptO2yGyOvQzQe6Sm/7M2NUWelZjXgqGXl1SfCanXGK3Xmu/p6f+0g4beDdLW9m14/zSTlgrOrfzQaFiYnnto6QnO2YCSUE4sCUeTJjYHXDC44XI2WEA5TDBOUoF3YowMpxc4kJVGMyZXz1rzPp0Szrzmdg4ROceWvsZ4YG8ve6/gja1y8hW6W4h79JrNxus5lsslq/e3eBtA7OGxnExhuuAlg9aRwio9VOwKE6S2tmRGfh2YgRtAJ4DTKMODtL4ZcTeOUARcFVJw6g6TQRLPQQLC8CDphhyagtfoGNS8oghhd34NUW7GG6nbdesyM5nBc13QHmYMxHcX8L+fd/hOTb30G+swkMByjSEcqc6CxHS9VO1sw+r1lP6oCFynVkjmapP3HzcMvCJ1ph9bhzOkl+nUZbqoMcGKYvIZ/bSvgKwSeWUPXVKtNZ7fD3ohBhjeDUAqJugOzSUwif+CUUa5fglwPkbFn8WIw3K43mS4eT7EQEQuXddCJEGv0j5EMz4NdupiBAkoxlki6Mg+V6VHejqgeReNJli2SE8GAL+ebrwGAbgWyOCNwkyMcj2cnk2VibArh4jkHM2NTmDCnqnOOiMzCXkID9M0v9GSPKXC/UT7txlPy4dKDt607IGXY5yLHD9bnzns1V0pc1j+yUnE2OalUbw1QAqxhazuNKfP+oAb/BFoYJhOCQVZ26eNleZVNdXBlHogxiAle0zuGsd76ScNMsZVXatFaLyng2ZlM4q6SEGc3GbywQHWtweQGNp6+jee0iyjpxnFTJSPN9FlvskAUSmn+1LsXNjtu3zCxse6JtT5ADsOjd7DW5M9aVmm6tp9eKlTU8BjCzbEQUk0NuziPpF+QOPw91ow5/oYtoeQnoMgPXDaTSAWXGYhaOUUYtIdAFmHEb1oc02igbbXj1tlQiZkLHhVUl/Lt34X/7eYy++7wofJgO4CXkqJJNzrJVTYZ5Dru+w6pjt5+pWurmkrJ6+ZlWmVnvpBSvgpsPTzNd/dsus7DS4AVo39A8qiugijiBA7VmJBS+HhI0eGDiOuJWD1jqIXv2HyG89hnNGsnG4qHyuF5Uo58Tumn1XmbviZ8NQSWyg1gKT0bIB8fSLAtFdU4jPluTZgMe8QdWPnrulY0Kb3pbU8P/SFAI+rcx3XwZ0c4t+EdDFP2hHWQGcZKo/9a2gpyrbpxAgMZz8pfmo3e+xzxUCmAewActUlWOV1jtHJVQmdWNpnRHumA/KSPnrWVs+uAnMYowcTNWx9xTDz7n2OF40tW/48VNfQYFW0Bu/lC16RiIRL9pIsDqjnLZyVR9L0Em9ryqLoSzePqsil4T8STH9NgWH/ACFcXzpOirxumzAGZ1wEqoWOph6RMfRXl1A16NVSQrHF/UZMMdbJynGlCXgi1m8zabFsBObaUqjRlY+5KYpVjCNmJErYYxifiX4xDeQh1hhwciQNiK4ZPFTlFzToPriYmdq5qeGX6hC3+hB3+hBa/JkqWGgvPOiCW5K6G5/4WaTb8Dv7GKNCsRtheBVgegSkg0TM5BeSBqKJI+8tdfgfe9F5G8/BKywz34owHKlFatRmCfD2DLwhZ3YrfINmiupHYeVrMPl6Xv7H84KaWb2yoTVM4eZFQRvaxmwzPmFzsN8oTdnV/RRImOs1Rj+UrEvbMG76HH4X/qt5FxFUkxAWpdq0pYibjtEUTBqx+Vaf7sJqcIXQFMGQztTgfA4EDBXBJlbbRQ1tlPGUDpUzLHf9+bWIvAA8eHISnNQPdvXsaIB+8hf/N7CPZ2gMGhMjuzcDGcoN7uINk7kB6belhmC42aXI9GyR6dFAkw8TkqQ5I7XI37XNYWuVOU0AczsLKMO/4fDOAqA9uYCxhxK+S1D6GGEdJX30JAGupsDm1XhEacyowOUNIUgWNLTj14sfFSOxnxse8HfZ8nY2QDgqUMIoJzdO88MW7nbU5xSuORs5jc3ELRNPLN6J27aE7NzXMWCy4bz/rzoES0egq9z/4MsssbCDnBkfaYLD1z+NCaX+2bnu/lE8kivU1yAkLnd0VtLq1lHcCS1Sl9s16NGYalM0ttlX6tFurLTSTNBFktRxR6CCSUtpks9/n2pbWlraaPslWD32sh6nbgtdooaIrNQBbrqC4wgRmBIyIvaMAPW8jrDXi1FhB34HOzvQMbOAQj/S/gzfjGO8CbN5G+8kNMbt2EN9xXz0AwyyRjmRwST8ZfJo6fzWFdJlXpWwFV8ys+XYmsm0+lsGVZjpEqhF7zTyEuVZ9tvTEPKr+e2uGqLKMIhGonIv9BI0aNM952B8MP/zpaP/cPkE6P9N4DEjmUfatb0GX3k6PgQFbrh9mycJTG9y76X5bObu9K4aWykPxsjktmvfuJ55aaOtlI8OBMMaXjSOlhsn0T3rtfg3dwhGAwAo77KMYDI/In1MamhjArCG29KMtqXjzqEWl4yHWdoozakrRMmbfUSOakkrCqRsuumVfcAiJuKTAHNHO7NKta8s4nyBotBJc+h/Y//mVgYYRidweTf/1l5DduafQlrvM8IUecbuvRZbkThAjjmj1vnkHOgNUKlMjSAYrRFOWAc/XMsLkKPVZbMEdOIep+9jS6i6eQBGRnJTh87SZiWu3MiXJ4Jvh6uCMpTksMzj+CjV/4CMrVFsKQC+zZAnISMBU2KTWf215iVUlq5hbEK8heu9v2SmkmHcmdO3jNyJ3jDRlO2Z4kAlvqkxnENL8LELRCRIt1RO0ASTGUTalo7ulEfFw6Eop0T5SubqV42Gkg7LQkavD5k2VLraa9uroFdRN2AD5QBW0biPmT5XWTVgkKejFwj4/gv/MeyrduInvtJUwZwKMDUd14kPkhkEvLD33G4a5EPC4wZFLgiBsKYGIAriyyDO5Woc6j2uJUW5BWoqBSpgHuuVXGCI4QQ0P2im3F2asX0v2TKGgEv7sMMJN99LdQe/KzyCf3EXHVJt9/BVrphM8FsH5pPXF1oAS48EaWUsbGPeIxM5AqpaVbm6PPdJYS3FhK3HCebI6HGMCJ9K+kspIsU7z2Z/A2b0gmygAuxwNk7LdZaTEb8ZC5AE7ZcFFQn9CFk95qplIzJpbtTjKPY5b+VmAawGRgVlVy0mR+PnMxu5NeyE91GiZo9q7B//hngc8/hjDpI/UmCMYexr//RyhefRM+mWluy9/sH+KMlsGm+TE/b1ZCnAPXNFbjDF9jLxoOJiNtD+QojaWwMTTd+GcugD0i2WfOooh8pNRFU6TC7z2yOTovnOoHz2KUekh53j/0ENae+QiSbgSPxou0+aWNBysoXqB0Cqk+Q7eFk2NSGhRUoJZ361yLTGO7MaWwcO6ORJrDXOVy5Yc1C2D+HmeYDOhahIBe0g0PYT1EUk4QxB6mvRid9w61qSDmSILZqxbDa3rwWmRndRB02k5qWFOJRwdAHmYQLa23gMYS0OgCUUfBW0akkMUq/UTXPTiAf/MWstfeQfbWy8ju3lIAkwvMDCwAoMrA1aio8iiunqgWg9kPowk/wABwK1cs2wrIcvNdEV8cOGYZ2IkjSP3kJahlcU45xRtYFTjHdXyetjyO7UlBAGtxEeXP/lN4j30cZbqnDIyw/tMD2PUA3E1kr8cd+JIKHY6WGDzad2m8YrFNXDuhm8pEKNUPUlCrHzaHZUAyC/MS4H6iGnIyv975C+Ctb6M8PILHXnh4jHw6tfLOjbIM0GJJS4mojtJsIYCCb5JKhSbtUuWH7MCc2UU0c12kX3TFGxbcLgWYz0VvZE1degKLv/qryM8twx/cR4m+LmvKGA/+4M/h/+gN1Cf0jja+9kngGVOKDhqizRLwIoDFABbxhyk7Nw0xd4E52+Lqcjl5cG62LCFLAH9tzZJRECLb3pGjCtew8DLI5ma/OW+CRgO1i1dQe+o6vAUy75ggVQ+g5HNnRZON1UIKhtHIzAQrzM78jM1+FvDuffyS1EjZ8RA+m++hkeJFcmfpR76lkxbSm0n9E+F29nwEYciXjkIpiJiV8jDH8s8+guDpx3B04wA5/85X/khO9vKLrgFlM4RHLjS9hoiItpoI2i34nQ7QWQC6i/A6PXj1JaDWAepdAVwl9azs5wKOk0x3HL77HtI33kDy9mtCpv3BoZDoktmIQBa1NQ4dVsZyvtmzEroCkg0ZsCC2UaGRpkQtNZRZXHHpoak0coHugliKKbdTSh+SuxgU+MrqxmqT5poHxVUyqDfhcXz0kd+E9+RnLWgYvASZ3OrLCrm0ZW7Ob4gG8g7QsJaO6qTKNd3YYQpGHt6A2blC3/VB2YXF91K6tQUly3U1qTaW4iEheR9tkWq8978BvPJVFEdH8BXARzrkJwFcWA+sn1be5XmE8vwF5A9/FH5QR37nFryXn0c8OXwws1bP1iHG4l4jRySvZq7j5Iu111S2N1A+9TF0P/9FlHXa1eyaUoi4Afv9IMDh33wf+NZLqI9TW73q1nsKtXWVjNFFjfpoQhnH5SeIp57T1FYV1mH18hybStTOk/9NqWm4uIhofQ3Te1vI9g9FL9WCArrKyFyfO5VaaDxyGbULF4DeAjx+1AKO3ZpcZl/5TCdaM6pjpkuE/TcVZzTky9wYvIR3+OsfLcNeC+PtfaTvbwF7x/DGhpFnRHrZq3HBmaxu1PXP1o8ygNUjK0sDca+N2sUmwicuAR9+BvnaZXj7Yxz+i/8ZtWSMvMkgzmXSxm0TUSMUMBV0mijbZGi1ZWdSdnrwe4vwmotAowfUF1BQVyv2UAsIGjJ5z7b24b/zDrI3X0F6813kRwcIhn0FAUEVOWzbSuSZ0ME9d2dUQNN5y44VslzlXzFeKmN09vD0V4pj1PgxkOAgkM8CW3uX5kwDREl1mmMGOy+xqoS3W4wgVmQjOc67lxYRPvxFhM98Sf2pIcT8/64soPWN5Ieksjoy2ZzB3UmZaWMGrm3h3021ScIQWpX3Vj84Ar1VE+nm88IkwvbDxhijmkwMaY5QRoDfg9Tpm99H+fKfojg8gj8gKtvXPFi2qtqyZz7cZt5OkkcGL6lh/OSHsfif/bfwOhdQPvdHGP3x78HjtKDiypCB58ei0srcPs+RlyZOYSZkwMntkVb1Zx6B/5lfQO2JJ+EX+8D0GCiGDjjto+yPxBkfvvIe8j//FrxBHzlqdrFUVdacCEO/lTmtuJsgsHohWCvhh5Me2m1nhvmzOfT8vydTPQ9+na1ggJyzYhozur/Hy5U7noOFBcQPXUR8dkPnHc0YZRySfm1xwWevACaWkSPjVke3vMBYb2wLLSPz+RDA8+7/8uNlvLIgFs/k5l2UW/vw2LjTK8r1gzp8LAsdS0sbHBjYdZazHIdYRi67IRrPrqHx2Hnk5x+Bt3YF/nGJ/f/j/0b641cRe3TomCJsRPKcCmuBUGy/3QAYwL2W5sVldwFBjzPjFXCplqiE9R7KuGkBTGLHYIx8ex/eO+8ie/NlJO/fQDlyDCIiqaohjZUlwYKYlda7aobrIoGOlXas3ZqTCsBSBZLLbSLj6OrMRXSuPY3R3bdQvPcWPLK+ZmwrGxVV0jynF9C/y9v9gwFsQBbBwVD7dvhhBmc+hvBjvwZ0NsQNZ2CrLBcKzTGSy8hegtSnxNLhW3PDyNnhYnDw9ZB4T9CJ1qdNSuVsly0JNMy0/vQQ2St/AKycR3j6E7qgfJXQRHCZtRPAbwEEBrd/gPK1v0Z51IfXH6CcDLQOh9lCKDSXw8lgwMZKU4+k/xCdT38GePizwPoVZH/xL5E896dGTXdz+dwReOjCQW1uMdyTBJVZnD00y/ljL0bw6Eex+Eu/CW/1NIryLjDYgkfSDjMvpx/DQ3M06TTgbY/Q/w9/DW+fBvS1BzLwrFSvnhu1vFUjIoTa7JV0JuYVVi6AVUrP9cIVOYRWspWIgk2C+Tu7/p6M9+Ue2pcvIFhehtduqvWkKF/xow/TTPWELDtZKANYlYANym3ntMBCVgOpXZqHz1wsqXYopgm8oyFwPIDP9YguA9s7IZBDUgZnAcaB1txTwFYIn1I3cmr536PLaH5sA9OLl1Fbu4pk8xDF15/H4Jsvmh0JHzq1vEGOVreJoJ4hoU6dfOmFBjyOmXpLysD0Hw5aS/Day0BrEWWtC4+zYlIsD/vItw9RvPUmsrd+gmLzDpBSjdM3EECvey6AXZDKF1ijIBttzDyjFW0mkVRfyXMY5WikEbJaG/Wnfw7+h38WozeeQ/DSd2S14lwGbJOhb/5LOgw6ySaKYAWjLRKz7Ykm5xOIRRZWHCJolvAXH8X0iV9BsPEEogbBughFjX8/sgDOJ8iObxgwtXIVQdi28/FTAlh82qND7H35T1C+8DIyAk5BHbVPfhSrv/IZFAvL1kFtv458+0fwVs/DP/1JZfgqgIvSwBJkETC8h/LO91Hc+I76XwZwPjoWwUAWShRUcB0re0uCN4WHiZ+ikZSYdBal+04XF1C/eRdp/77aGj1uR6RonLsE7+xlJId7KN9/G+VwqJEYA+EoqqP7hd9C42O/CgQTTCd3EPd34GXH6hM9ccIT5IMB0B+jaESIphGO/91X4e3swuPWQpdRP5g9dUToIFmJMqoAdtlVmbsqk6sAdn924ldlg15plauQdVTSKjHQiim8fBbByhLKOsHaGKEUUJHAY5+JUk4wNIV3xgyc+3o0DbBZMuW5zOQs6yVJzBIL4O2n1ksibv40hzdNbUA/k0G5OHCUQ64NkfSN2YuzYEoApR5iANv8uHXtAuoXasD5JXjNU9j8va+iMciUBYxDm9lKirxAFIRIwgzRQoR4kaQNaI1KubCAcGkZXmcZQW8FRZv83SXkzCLtlsgc/v4EuHOA8s03MbnxGvK9+yhoPJZNReOUPqpCmn/KqKgao8wZOcxGPVV25ry+EuKHq6dRXr6K7OAu/M33xA2eZ2Jx+RklhMryyrz8tQWwtjOyJBewRaIAmWz2DAM/E1Elay4gvvRR4NIXgLVFVRwe3QDpCU2GXDaEt/0yytExglM/A9QvauFa7iXamsiZYcgZOUUdKHH73/8pyn/3x/Deegt7xRR1P0RjoYvex6+h9ksX4V1ZQD3pAMEQaethRGeels6Y6dEsXghtHiAZB4iP3kH2+l8AB5vwh2NbZpcMEPAzzUuMiS4TYOLcV+KKzHZMqbxmuWdCEWNdGS1VWm2RhRrA6YeAhR7G+7uID7cRFWMcF3UEG59C99d/B8XqGvzRDtB/D5juAukxkJCrTZcM7i/h+ZogH4zNStYPcfT7f4Pm1jESkIZ4AkwK4OO82cn6OPoWAP4BYwBd8oTPq7+qG33OpmmOp23jpBOWHNNGyKV4XDi30AEun0PUayOgYUAUI4hIGmHVyuosmTm/Cq2mBJTBmk+RO7MKkUFc76u5MAkyytY5vHtPrpbpaKJFYj6ZNWz0ZwpS1z2q7ORqRwO3dPglP3R86Jj9IVD3I6T1AEXIPbgB1s9ewuDV23IzICvHApgggQtgiqZJnaOdJWfpCzGCxTrKThPx0gLydg9BbwlYWEVAeV2nCa9Ds7EQOS1I7xwAb7+N8ftvKDOUVCMRQBGJw/kMid9s9CrNeqVUsrKaj7xiXlVmBep93KxXAexoddKqavcwNwwCSd2IHaZiskw+m606Zw3Z87oA1mXndL+ST9IEkAEcEviLkUZ1+GtXEFz4PEp6My0uI2+tOPkgd/ckwM5PgKPXra2IesCUc897yHZ3kNfbiC59EsGpD2E82EWT61rfvosX/vAPUb78I4kSmt02Nr74CSxdX0LQOAR6MSaNddTP/yywck0zWr+g7xPnKERD+ygYsPdeQnrzm4iHVOWwz6V525EpwbIUU83dzWhNy+poKcwA5oGnqmnm5WsteEWA4YU3DWJEUcNWrpJUkucYNi+j+c/+BcaXrqM2KREMb6MY3YJHYkrah0fuO8k6rIL4XHjghyNkw7FMB/KoiaP/51uo32OPzEx+EsC5o1JyfMVCiZ/xLDMzKOeEDzOlUFXp/P8MYBYYBe2QFhbQ3FiX2WDUbkrvXgUwK1lWYQxgu8gcc0wzdF6MTKSkJpvvGSH9XLxsEzLkWWqjOwZwPp4CE0O45kuy2YE0qoC6+KjzeOUAACAASURBVJmulWVatQyNRgAEpShCkOif2+3MLkbWKrwp5gKYh8NeCHffOucLSVFLlHUPjcU24k4D6eKiemJvaVELprxOF36vowDOWC7dPYD3zg1Mb7+tlS4icGgsYtsBXf1g+twKdBCIe/KBauMBs+L8bFTBT+DqZGwkJw+yzTwfacj9UHYBmCGArRasPLQlsWSbQTKCEE6jppopIO2BDEPgDUzHTlYu8ttqLyM48ykUC+eM5LJMg7UFgKg7//zwBrLNb8Ob7IkyOjqYIgyXEZM7ff7jYgj5pFJmI2SDAZL9Q+TTCer1VIZ2/J7TVh210Mfo4B7SLrBw/mmgdx4FTfRYtNKRfMoAGWv3rU8/7FvPITi+AUwJPrZEa8UhTQvvIZgMkJUs59xB05IwruQzIEZBYr6+s8vOVvK4ncwhdxMREGzCa65hfPlR+D/782isPEGPYmB0HyjvIMu2EI5stcmM860M7JhnfVMK8fIpWj0cf+2H8G7voZ4k8i1TlmQfybkv2xLSP6fG1/87AayWk7ZBxB+c+oeftZNMSln1AcciLnCrrIgkpiBhaWUJUacDnwBsg2YNkdhevkhLxqvIuXy8ShKc/onEwf3LldsMqxvO2dnzsopl20IRSWZt786zZ8pkMFQGpsGZNKZq1J2C5uToP3Dwzd3Rds0waGn2T0RNqiYyuuTuYPtfyVcka0eeTbxhNIy2f44Lps0Jgv+30hYXCGIf3tqaxA/hyoKomITdo15P89GEw/KdQ5Rvv4ti5zbYs0nUr+B1rouuhq4CsRKjOm8w0wuz73VzUdvyVgEsJxvKmXmZMalWCbmLmIN0jjok1jBvsECOloZIcyG3ArRyBKHO2rUbDF72tQpY3bwkpnA3M6uYOvyVp4GVx0QKYCkYLiwD3SUUJHaUCfyD14HDu8j3tpBHG4ivfgpTr4nauI+UFRT3DyW8wafwEuINVsKKMCHUO0TZ6qJsLcNvLQAt46R7BaskBgQNAo5FxSwmBYL+DaS3v4MwO0ZZW4K/sqHskt95FxH9oftHyGg3Qxs9joMmCQr6RymAbfWr9MFO2KL+383I+Qjo+oKF0yg3Hkdw7ZPwz1+3yy/rw8vuYpodoEa0eXSEIj2CR1kjZ7T0peJlpc2AE5SHfSNO8DNdXMX4+29h+sZt1CnAqMAkVpf0GAtCpFMSVYjSGzbvvAdmMj05e1DqJ0DKGGaV1xYDmEnRxnaKFDPJr9wlm3VJZ7NGE40GM29DCDVbTZI+KhBYOvwos9ZLyYJzdMvACmCHSAt15mfKIOYeJqLz7IHJ2dj77KVyOqLrXo46Rx7jCXJ+Mb+oIufPgvjkF2y6zTPKHWIngJiRPXirVpC9KGCupJIo3WxODWgyFNhUM3xKfB+2ATFnRm83ECy0gG4b4QrtaXvI6eRB1/udXRTv3YJ3uI/MJ/95lmdnN75O0Nx605miaGa3UwmxaZBunHB736RhMjNwphtIseKvLMOvRyh2j+2Qqypx3tk071ZWZZZ1M0XHKZ9prPWM2Ps47ncQInJL43QjxyHS1hkEq08B9Q4CESLoMULSRwMeqaWOCMJVyXFvDTlXexCBpdRNGwOmCEhnnZHfqzrEek7uXy5o2dNYkW1RyeVnFLSXU5Sjfb2vgC6MZCAR+T54ETh4x/jnaw+hWD8LTPvIb/4QxeZNhJQaMgiades/j0bI+4eWSWZcZEc75TOPjEY65WW1dh7x6SeQnXsS4eUPS3pKQYqfszTeQ5nuoOSFlA6RT/ryZWb2pQMLtCVhamyr4RT5/jEC4jh8j802yvd3Mfnh20pMcq6cHQ0naawUT25zoX34bB6NIWZul1ZJmnc4d0ezr7W2gGAT+3ttDi1924TJ41CLUXRbQLMt1D9smL5dBnRMcI4YZXbMHMmamSQ5F1rQpxGSVZJsPRmw2kFMnCqhA0iq2XtRTAUsezs/c7oM6xTQRzqshPCz/T78EU1BH2QlzcexJ2dHR9LngXcvSOg0e71qJYtzxdUGOJHdyZutDOgYKG6MUwFlOtAxAr5pGc27toRlaaehUjrsdk1EfXyE9N4mvPFAqHY1d5Ph40nVbJvD3aigypK6O0hgmckJWdLxs3AjBGZVrV0J4XW7aG+soyDARhEAd97c34Q3oc/xyLipIcEq96Ew4FgmV6MiAX4mzeTQj1LKgP8O57qVcERfy9dTA3oPAwuX4Xskqhu1Uzt9+Ym014GFMyi4QnXchzfYk5Qy5OSg8mtyaOhsZDJnI6Rbn4SYWgdBk8SZNZQkk/BzKIZIkzEikvgHA5TJNvLdHyOc7slUoVh7GGV3HWU6QHjju0hvvwNvPEQQNeTbJYyBAUwDevlxuefuHEBVKhK4rNdQ/9CnkF76HKKN08hjKmpy+JkBUxbAuyiSoaR8SAcopwMr7VlVkOtNnbLMC1KUcg0hkcNcQ0icqB2mOPrBO4hH1FY5NNkgZWeB604Eq0P9Z1z8nHN4tof8t9hn0nSR741Jg6YWrpwNhiPc7yzh3Gc+h3wywtG3vw1/8x6CRgNFq6ULt6jVFcBlvYGoxh7TymZVYwpaEqMI/nK86ZYRaMcSWYTazYKcrSH3NtExJaFPNStN28rJasfbe2ypLFoEj9oIGzGyfh/FYAJ/ktpAW2/6p6VgR0Z3pHgpJRxgY2CNa8wtUjRyUFZn+ckSeubUeMJ3JdjEWSTqde0C9rhSj0E/TpCM6YqfIAzriKI60hr/bAqM+vCL5MQXWr5XDwawVDxuvaltE59DDMWgsp7M/t6JKIH+zt7iEuJz5+CRKaYAb2qUVQ77yLineG8bPnWiMRlPVmoHIieQrBEaW63Zkn8yCS/qfyjr4/yTOmix26yslAaapXjQQNl6GGXngrOvSVT6Fd1VBI2eqI1kzAXH2yj6B6IsBlSYz0Qcjq2lxpOTICsTSU7RXuWQBIJYgpSsuYyw3RVZg7NUbc5g0ckq6fAN+IMb5nwZLSBfuoCgsYoyH6J84zl4u7eRT4YInKdUxsqNbD4awFV2ebJJ41mwS71ky/D4p+A9/UX44SJKb2xUTT5/BSrJ/Hwvu9bfMnCZeZV9+ecM4AQly+ZZACe6TGl3o00HrFlGJQ5efB/NgYfUVXkV33p+A2AmVpqHMKgjXFgC1tdsvHh3D+lkBK9dh9dtCkWWHDMvVH73jyZofvYX0Xn8Sam0Rjc3MfyDf4vg+GjG6edFyQBWJnYBTOBq9nmrYqOBhvmH0/vb5z5hAlgpn0OijKsMrA0RwxmRwzvOkIwTePevdUsOlItGiHi5p1uBGZiEbEnDCF87OxLOodyZsP7RxbWcN2QSXop7StMtuXjEIWppiSl3AaWFVoOy2QjnuKlCfKs7gv00+dLdDuLT9JBeQsIMtH0Ef3MPCTMOXfEDZ77Of499DM3O58T2VvnPgVjOeM8Q4xOAi69bDCqXjdWHuA0HDOpRACw9+TjydteZ7rH0pdCio4fukxe8dRPp4S1btaHdOh2E58+LTcRM1CTHMqwhJf20QeppKMEGZYM0KyjiZY29AtCdUxYPJgb36sgXHgZizsJXzdCAfR9pq1mJ6HAfZf/QAB1mChqOs+SWWMB6NiHxri+XjSHRbzmsmKm8uLtt0lbX4SVHyPfe02dHeicldmV6hLx/F954W/1e2bALpDi8D9x+Gd7wUJlPjpVsv9ibJpm29alP5EuQZ1oEVnmyR23U0fjcP0OxcQ1+MUVOAYLXMwljcozS68EPMvhHbwOTI5XKmHBsRI9m7ualVJIBy4siBygbnDCoj6yF4OEnbXXkY+/lHUQDVkNW5WlU5Hy5KjUS73ZWPX6jh/jieURXTiPfZ4uwKTILR3oh3VS7HWS8jIsa0sUlBA89jmhpETf/5b/Bmdv3EP72P0H21T9H/7svoKzXENLnrNZAUK+hZCauMjDVfjyPbl0vpyKip0u1YOaBVZWRZyNxMlhdpZRw+jno8DkhYWVYImM23n1qqfQbNeRxoP4ubjbRbjZxuL+PjEGshtlmfHpDjolSmb8rwYaBttJHiUPMAg/1U8uIVnrojzn4H50oNOR6bcoU9b5Ka0bJV1DQA7nbRXRqDemFNcTdFoq9PpJbWyj2rFykeV5tsSvK3rQ/FFuHAMrsh+RaJ/+z8mEWcYC9qiuTq8xbfaV6EedmLhdOxvPGOuLLl5CzZ2NmjMjL7iLnoSRotPc+0q034A2GyIIC9atXgcvXULCfvXcDtb0tFCmfrfXHaaOD6NyHgLPPII3PIGJ2oHg7GyMfbAODO/DzffjoY1jfQGvx55GOIhTFfa0koS1OwZHf4R6ywbFQZ5XXQn+rXs/6OBuJ+QbCB7GIGsz4ZRgh5+8TAW924fXWZIeU97cQqMyjT7dzIZVVzx6y402E6Z4WeIndNdxTGWueyVOzsOXzIFjmAph00ZyVB1e3xOx9PZSL6/Cf/Q1g6bRYeeL3enUU0z0h4CU6yLI+ovFteXQx83rs77mPl6U9A3icqrQux+zbJzIY0PiL40pe8MyoSR37r+8jGrIkNjGHwCg3/z0JYNJgI6ndGJDsXyl0CNMSZbeO8Pw6wlOrWiNTEkXmuGVlFce7h6h7TcRejN03X8Xixx5H9ud/hQE3Ldbr8HkJ1mkgGP89AWwlNOe55lBlXGeWzGoHkikC2hdRrjlNEPHsJgkmRxN4kwLexNPycm/7Y6slZ1R+s6ZBMx86m/ZWr4vhzp42yAXjVEuMpfPUVcaDYb7IJH3UOy2EawtK95M9I7n7jRjx2VW0Lm4ASYmjuwzAPvyhBdzMn0g3QMVFpjsBqZkNhMvLmK520VjsImo2MO33Mbp9G97uPqIkwzT0EJP9RfYPtZOaYxiiXEldq/3EiRsV6VNkmeJ4ypJRurg3EM1Wm+hi4X4hr9Cc0t84hdrFyyhqPXgxS9g2SpIswhLhaBvpey8jP9rXxRKsriH6yCeA1bPAaBd490Vkw0K4VdlcRnb180i751DLmHV5IdIJlO0H6b5UepCUsIN0sIko2wcSPj/aCA2QNRbhL5xXAJVHe9rXQ/ME9ptFpXPlRZhTyGHvQ8CSJgVEP+uuzGdV4EwKa20ZLZRNGuvzMLF3NT50hhpCt2YG0z2UBz+xnnvM/pNOFSPpv1nW2rYC+iSb2ojnhNrvZDJGXG+pRdA4+PRjKK5/CRFLS7qOCL9miXhsUwSa5qWH8BL7PiqdJ31lJZbMDF5K9cDgZYk7HaKcDF3PmKKgdRDHRGkNRzf7QN8XlmHH1nlCO1cQZY7qAHBuKy+2unj3/uIiso0e6pfPAIsLiGstVS00BAhaNSTTKTb3R7h05VGA460bN7Hzh3+CeH+gElpVDLEF6gVcCS3Sk/ushbTzrOtJcYKRmQsoe36i61NbHJ6Op2jQPXQwRNInLbYUgFtymRpxpYNfuFhys13MIFxdQLnYVhqngJmoVzBOMN3eR3Y8UJkmTvEMErJ5mUYgjQgBXTs4mxoQCS01+5p2YpXD7YUekuMB8q37yA+P9O9rrsaS0WlreZa1ssOPUJBy1qDdTANJLUDYa8jvOLt3H2WfZHjRMMSfZVDyjFcXwczZphojzXliMQMrWc95YlWAFjnMNj92mwzJ1y6IhtfFBgouPIyot4GyuYiAayS9KTC4jfzWq8jHfVA+Tdljcf4Kgoc/hMlohPre+7rRA1oDbTwNb+UhtziHZafziHZzYc1xQWCLKDYnAtsopu8jGk8Zv6aLbp+Hd9RHcbxrKCy3MGjIb5QivXrJzU42TGi9qxdhMkyQcinb8hJYdSmoaaCw0EOxuAC5IbKm1CydvRcxRsd2IKCY3Eex+xOUgy0EMs+jJ7ftD2LfSgSVWmR5ZPHT4ZYDlp3q9amDDuBf+TjKhz7t9jZx5kmJ3AD5dKi5ZsgRCvoibICXPee+LKHV82aWdVVCJwLx/HRgO4umHKtQRkrU2UOQRDjeDZElMbrUW+/s6rlLTexmwoprodA23pQdMC/sxgKC9VPwLpxC4/JZFAtdBKxeRKLnTDZB0NuwceFrb2Dz3/+xRliLpH/WyG/nrJwZuyFwmNODgJlYPa/x1DWyDEg/Fs0KOQUj3BHFVoHBm6XIylKVQL4/QDacIqGdDxVO5K7kPuqNBrzRb1wraZkDri5ZXkKxtKQ5FXWbE7ou9IeojyYY7+6hGHHdYoqIPRoVJ/MUNTdPJWoqUzL3gz0V0TiqRKIFAmV1TI768I/GKMm95goslnV1zucCGWfrAuEMmR69JE04TjERYt6iCbcPVEu1Zt/IMk6169fI8kYgmNf42hpSJ8bXIbNZ5exrZwvPOD7IT7jRJK2snULtyrPwLlyB58Uo6Pq48zq8+2/BOzLeah77iGjCt7aCtBYiGpdI6jQ+2AA2fg5esy3Kp2XEGnJRK52NS5Uh3PPLuOicXN/xoWaWXmMDwdBHsfM+vGPORGkHO0Y2GWP35qaQycUz6/Drdigr/jXHcUl/gpvffQW7Wzu4/oufQufhs4jlLNqA36WB/JJoqiA4qHTFf8L5RHOuKwZTABzdRHD/VWB8gGI8tADmgVMv7ixudTGbck1IfBwhJeuMkOv1L8I/8xRQ9AHQGO8Q3nCAdGcLESOLNrseZ54DtUt02vTIc6YXM/vAMUeeLKUtUxH4KghuSUTBIUeOJI9QTwMMz30S/Y0LOPPQRRz96/8LoNsmxzCuvRCBoyBjwea5dn64UrELf20VOLeKxkNnUdLPnJ+XrSGw0dTxEcbb95G9egPhe9uYcEMGUeqoJiSaJTRXtbCEDum6IhMHWxBoCcu2UBJw04I+cZtt7xJjj5wMgmWT/QGiUakugIUHhSOhHyCNAiwxVg//8ytl3G4CK12UCx1DJOtUu3i6SUkS54vlbVuw/2B2HbHnIWhyEqjzU5uT7tP9ytlWCAVtRAhJifR8DEYD1EaJLEbY5PP3VaTT31hDeRMlGCOsmtC5Oa0TyZ/0ryfjn0rpcqL5PXmdkhM6JUyleZ75QEsA7DS/ol0aWq7+nKKEWhvx5SfhXbiIfHkdUbulbISDW8D2JsrDXT1oOv2XrRYKPkf2zd02yqWL8DeetYXirBq0xoOjJGeGZ0Zdjphr3lE+M6F6cfbmtBGqAfuH8Dbfgz8gsMO+c4zDrS08/x/+Ekvrq7j49ONYvnRKjijVyhYiv+PDIab7I0wmU7ROr6Bzds342UTMifgvkHveFdG+AhBo0ctsLFtVXiBeIBpjcf8V+P07yDlC4q4glfJkbxlIKfCzCmDnvpmRmEN/70d/HsHqw0BxbGQNPjCO4/oHpn4iJkDkmZ5ewwHKwRDekOM6nj+CWMz6zquKFyFR6SzV1ohy4KEc8lkJEoT3D/4HdH/1HyPbfw/jr/8R8q99BTW2eJUZPWkHGa2UDJ0ngGp+WSGCbhfF2WVEFzaMUcWSmEAkz84kRbZ9H5P37sK7uYlia09kFi0nIFbChFU3EEsmFpo+WADPwF+d30x8Z7HWXP8uR9VpiuR4iHTM6qaAT3o7Kz66idCjLgoQljXsyfb3f/2HZfrOPb2oaLEL8GenbrS3zBdAQrAipYRswJItN7f+0RjJeDyL1Q8YWTwQw/7cRFlfx1vI+U7T8YAZWxcAM069ZuoLkeIrcgbRVA7VT6xgSG8QN9lqRhTVKr1ZwFeBb2Ke2Q/HXa6ofNx3Oxtp8d9z4y0xqrhKpRqTBeQs013zPIKlZeQbTQQbF+H1TiHnuGNvC/72ayj3qIAhZY7jA1Y2dBnpIl+9Bn/lw/JxMi65c+J0Cibd/lXmE6WOGlK3OpW/Jm2JvdtRH+XWHvzBAQpmoWyC8aCPnRt3sbC4gKIRY3FtdcY31j/J/o5ouMd+2PHY6QbCg8DXQo8ymr3TTIFbMSoXT58WwfKXQcG5Ky1evBqK0bvwdl+T6yVnkyQcYHwowEVSN34oDmU1S12CRCXy5gbKK59GuLABUE2UD0zxRErklH0uy8eBWFccD9K6B6ORfmrTpcCdRH5T5fQIJbEWbo2g6qnPTQl8ZjwnDemqo1/771D/0heR726jeO6rSP7kT+CPhuaH5RxBcqLlfh1xdxlRo4GkTzfPibKmv7qE8tQKsLqIWrsjJZF4CYMx0p0dgPr529savcrvmgFMYLBWUwauApj7sERgISJvMIzcNejAIcFCngkPKWnjM5oi7dP5k+8z0wpecrL5DCnfZRUwpS/3+gIWnn0MXvm9/7HM946R3djC+PZ9xGEohDfvNhBkRN1K81hib8PZ8JAPciwQIUKAhCKCNEPIr2PWEnjieJLyWWLjbwCTxe78ziDbrzs7vOIU20mW2MBZs+jWkhmbu1hIipBvED98eh9zdSy/F9lj/F4kgNgmPTOhNzk7l6jJysiV4uIzuxmxsrC0svaQGWR0GZmtAxWCTeDHgL5ykRsXT8G7fB358nkEbMLvv63xCgf73LJI8IIbF9BaQLnyFLylq5rVqgknyssMR41uUT/piyu3DLUILqKV1cgASoB+H+XOHvLRoQ4wd6pJ/M0bmmoygnrao+wjJKAHD2mRI5YhHKtMH6FcQA3cUuvM3ndjHeH6uoAuT0AE5WysApzDBk3z2XMHLZT5AYqd74unzIucvlflhFZG5hOtFae6kE3zLBicmz4WL6O89HNmo5QxkMZmg6M+lwFsOmOvfwQMjlAeDRS4FE0QsOIl4qcEzYg209LHQ7rvIe0XSJIUMZ1ManVd7HGZY7B+CUu/9hvov/suvJtvIX3tVS1o1/Jy2d2YGTwroZCup/zM6UhDpxFePHSK6RGl72rljbjMBNm5rWL3ENnOgSicvEg1NKNBI6sqtqP87OMGAvIaSJ+ldJRHUW0SqSW0O861JpfYSd4foRxOkPEnx3E0SciIttP4ooOw2cRk2Eey2MTyxx9H/vgpNM+vwytf+J/KgjcEmTw7xxi88T7KvT469RbGawuI6KDIm64idae2G0a9SMKdOlwTRV7BQNk5Jmme4mTa07gxhjiiypZu08FcvV0FsEUx0e1qG4KVykIuCX7QwUJm5G5vE7fIuaVr5IgSPCMnlvxRlt7iRGurgeM0C6AwGxn9dKojMmCqNaQiYsxZ4cgLWwHN2V2ArCiRDscCEuJmDH+pAzz8KHDpOvL2BgJydt9/EQUPIEuyRtMCmHrmhSeB3jkrl6RGKiWoJ9MrCLoSOdiPE7P4GcSgFoTSvCnyg31EHKcNJhjtsw/OUSe7SVY2JgbnE5T/ljMFz/Mx0v4ItVbDniEdMPheefFRcNBoIVvqIOQclL2f5uaFXF25f7nUVnpnWctsWiTI7n8fGN8FGUke12qSRSUWES1fTA/NGTsFL9yRKQ+v9cfgn3vGkHZaB/H9cAEAx1EM4DED9hje8QHK40OAgUKEl6Al/b45E55mwmKI7GdHGcoB/aYDtX1pr4k6da3KrinGDJaVdQQHewgS8+TKFDRk2TGIba0uL1s+FyUfl9V56ZmPG3tijoNo/E4mlokgigGzJPtyE9nzstNnHtZQ1EOj3nKawpEcWw8KF2RVRikgSRs54jjA6OhI1S9NNBiDxZgTFRsJZiGwvriGw/4Ak04NzU88it5HrsJfpbmF9e1e+YPfLSlCkC6SJ4YzRgbym++jc2sg+mK50rbtDBwRsA7nf4S7+UZGUzn3cZM8yxmyuKRq0YjpZJTxwb64Cm43mLL4NU/SmeUrQ6fap6sAdhY+BNlSWYBW0H+IjEg6b0BeIMM+0uO+go0sylBbGrRK3ZXEzmg8CJByb5HAC3PrIBLJG5yAmnpl/j4/IFqiRrzZA80ij7e2JK9sXnoItceeBB56xDb83XnbJHihLWkLGk0UrXUEi08A9WUjmAQxctqjpMdipWXk2daXTKTvSjs+DwaZSDKuZxMbZ/c+vLv3kOwei5VD/q9EBFKx8PZmL5oaDbWyZsm555ZANKWe3BIemtUqD2juI4wayDst4NJ5RNcfUe/uS+jOOJyjaDJTWmwjP3gJGN+yS4uVWTq0GbBE/swuzrlT4hYGcB1YexLe6ccBBjs3JtIalTaqE1Z0x8q6xdEBfJeBWe1xTQxHj+I/j8fI+gmS4wTZIELeT1DrNDHpxGg8fBn1lZ5cZYq9gcgqMR1fJgOk6QBZHqKg5lWeX0Zw0VYQkizIBaekk6DYcIhoZFa5vDR52asFYCJjkSZ1VS7KKauiag+TTObEU4+F86gPDjn/ZktSKjFIN+GXaNQiTAfHmBwd2bxZOnyW0Mbb5qy+0e0gHxXYama4+MsfR/0JknpK5HSv1GJKYzB6xQu/W4ogPzNz84SsixhyPMbua+8guHeEHuH1VkOkdhmNedyd6rw2RxNk47GG+XQa8Dn2IOw/B3L9HWDLsZ/m+dZaKqVWT0iCOTa4DFzZ2mqPE3/yYPFr2VdwRMGekgRy0ha7CwiZ/ahnZL9yfxfF8T7iUd+WnzGhcebIgFUN6qRuYmY5Jw2+EJaxs36wRBa77RQM7DLWbdzf66O2egbRhx4RWOVrV1MpIgfHYEG9g6J1Gv7CY+Ykwh+kUUqlRX7v2G7v2gr8cNl5eNmXkcrJ3ld2rDx0wxHSO3eAG7eRTqjW4aiPHsQ5gukEmbIgDzvVOnRwNI+stOYj5iYB9vE0EdQuXOOsF35dxm5ZvY7oymUET15H0VtAQN9lGbQzq9LahV5NZOcxiJvA4E0Ug7fg06COPVlKbTC3FuqEuxGZ48jzGfsdFMsfBlYvw88PrX0oJgJ/OMv1R9xzfGjgHAOYWxZp0k+cpT9A0R+jPM6QHmfIR+wpM8S1OrKNdbQ+cl0UzfydW/B39lDStmnjNAq/huzuHSHTNI7n+2FLwAqFnmZRq4NyeQmNxWXWqbLKTbbuIbt/rExIgo1UcoWWwNrq2WpjhJboMfNqYGdLvZmBOVmoE8yq1tcwu1f8hkhtH5MLZ8e2a4omCLZlgUEeLtAzPeLyQ6z8ymcQXDuPDANdJvTW1kYI5R9bNeOlP/xd+ULPqyjY9wAAIABJREFUkNi5SOOKFwYyvW0nm/eBd+8hKD1EvPGZqXmbcxTtNL+E84uE8+IM9Vod0/5A2YHmWwy5CmfSza4y2lwiqx+VcKES2wsBncnw6ARCBxCavfHwkTJnFac5P9Y0gxPxvNGETzSdcrlmF1mwiHAyEUGfe3Oz/n0EoyMtwtZqTlIz+WGIieVcCnmjVsEtIb+96Ar8ki80gTgHyHEtBz27So5l2pTcDeEz/UenkPU2EHYflceWh7otaQucOX02Qp6WZizOvti1HjocuWmrbcNiAQyOMX39DZTv3IDP0UkyRUgCBcEdmtyzF85It7MearaJwrHdVBXxdZJoIBP9CGXM9qim5xQQXf/Ih+GRLSU3eJbGBKZMQSYLG/b3URPFeAfl8XcRDChxI6LM1Sqs0FgiugnFA3LKReD0x4FOjDI/Nv02LwQ6a4z48xA4PkR2f1fZKDyaYDK4iXB/guyA+uYC3sjKUHID0nYLjccuIjy9guTuDsK9I5Ee9L7d0IGHXEvGiSrLU9p4B/R3A7dBbqwgWzuNoHcKBWfxBzvIbr4HbB7IzJ0bkrkyRmtb6ALj0TOs2s1sC8lm7DeeTe1e5tmsa52QxrMEC5sNNGh2wZ6ei9dZcbBsJs8iHWNKiePSMuJTqxgvNtF79hpwdgmY7Dud409Jf9V2wv9UAFc7iqV8EL4UAkdjDDfvozUmY2aCyehQNC+fpl7quwimGO2NtzHtQ6gPFSHASQr1gF1mm7e0YRVQBYqFd2bQO7MFkVQxNViemSWN51OsTSVQzXpdZmNWAEQBebuSJsjlaITy6aVF+xZWHirZRkg5S6VnNel6iY00SOSwNph+v9aXVjNifU9ji9hPiTfcUnIKBHiLxy0EdNHkzUfj9toKyvZpeO1HUGrNKEsqKlPcCInPhvNRadaovDoZeakN42XFZ8V25PgQ+Y9fRvnOW/BGRm5gBuehyGi+LvGJKtYTI7c54FDbInh7U7bHuSafG8n0tTay3iKiq1dRPv4kgtaK3jfN4tVXk6qpX5O+OJTYgrY26f5ziJghcwJQ/HNu5TBTvJkCpiql6xvA2Y+aKUJBhpW9dqHPdBIdMICPUB4eAMMEk91DeHe35LxCXTK10TGVPe0a6tSHry6J6EA+gT9MtA2Bz0j++tUcncHL/ym2lRE4OEMlOJUv9RCsr6LodBFwjQ21trtbKG7fBXaOhAbzsDBz6++Kw16TvI8tY+AObtXemGzVEP6y2dbXkvPA15wM6RRDf1kSpCZIuCyNK8apAFxeRf3cGsr1BdSvngFavpkQyoZZ7n8PmGycZDsTEPwnM7BrgizTaUmUMUjEsCkjpPt9IYUx12bs70tDGrJ8U43KltPEx6W2FlIWY3U7S+3q35bfT3VmP6AU0qYHopfaGEg9pjFh8t5peOvnUW6/joCm3n4sfyhmHG4w54pIUdloEE9taDOAV++gJJOJB1e3KIUQzuaHfsL8mQyRZ0ME2RgBD6vjV8/myTOx/4nHlea6GtJHKKjKqbdVmXDZFW1u/EYXfuMC0HjIBTDbFfZU5CYbe8pTFcMaZbbM1H1OFbnAfYjDI2QvvgDvjZ+goJhhOkHAMoyzWCpWaEvqUE6hne6H/l03cvNjyxL8/twRrMutt4Ts9CnUHruO4uKjCGglSwslTORtpaBky8JSmqqfoK7snx18CxEvkvIImPJ5kvjBr9Wu0dn3pwuGT2XV2cetbaDaSME7RZ704R8fwjvYBw73UWzfx3TnAPk0VS/LfzdsdRAudBBQNdduIifoyn5R3s62i4m9PMGzB0T3zgKHfyY+PMeUjbaokcViT+CdVory73LX9N42UhrhHdHzy0ledT7NvIHYMdmDchkR2FhtxuB7pcuqzXxz2iNx2Rlfj8aS1gZltMwNIkQriwhPLcJf7iI/vYjasqnBcpI4VJpXH78byfyUBKzf0gpX9sAcKfAbafoz40rOgswyMW+wOUIEi2IipxxJFB7SQaIt77RhKXf2kR8dI0gShFIJsY+yvTg+DwbdIgiksNwhFdAZnilQKvqjZomuBzQ8WRkyabURX/95TFoLaE4PcPjiN9DLjy2AjQTp3DIpmTMQKWs2JOnzW9yzxBKWUkTCpPIVMeKBKIO8+UjQr+iB9NmyUYqt4bASWhlRWZiGfpFVDU6m57MUJtgWUyPLjRId+K3HgP+PvfOAs+Oq7v+ZV7eorYplG1fZuFFiwLSQUAIkIZ3gVFIhJJBCekLaPwFMSyE9Ib2AHQI2CWmkE1oAQyguuMtVliWtymrL21dm5v/5nnvP27Oj93bfSlppJb2B9a7em7lz5879nV5qW0M7DMBrTcsIzqCWFOBfaIQY1BnVM6gnRameSEEBzX13SPb5myV5bJcG2VSiNJFqEIW6CtTHyIIb4VECGImq9gJmflUyZcakuWWr1C88VzqXXCW1x12k+cYJllxlZBgkQ1cALTWLwQnOqUE+Ip1DN0ul8YiIGqJw68GBtV39AgfWTpglSTZeIqVzdkjaQXyelRI+bGwnswdF9h+U0t5JyScnJT14SN2S84QrbhhXVUwlKrhvFFmDK4YaTKFNC1yQIujaSgdBL8aBIw0SQYaEiLGKJnnkdmfjxCjjU6UkSENykna479QhyWhihs6srruAHCUSMYZYDYfYFdJQFok9UR5BfMbmoNWfcUtHUZryPRVpIH5v2yyl7ZtFztoi9W2bRcbR/TohbVClnED08E4sGMZ8S1n0bd5FKMqnufhItK3PvC6vdqv9sy4LfVn7Ad9/rlQG/QGxMHLQJgHf8y2pHpoV2XsgxKE2W8KS6aQjt2xR3C5JpFauhORkTVT2lBuMxGJfOU3CapI+6dlSveRq7ShP58L08x+Wzj0fkzJiWZfloIeEipmksVGBIh8bkxzDFrWmaO6lfYcIo1sIDiE8lGyW4A7hBTbUoquch9rHFiRiANY+v6HTArHGagw0roYEQI8nejuNPVm7LRDxQ01mIrVCQfi6tu4oo9dH8Vc5MqKYvivsBx2NDdfPyNmdelSSB2+R8t33SuuhXVI7OK3+wxZdFMyIpFk9sZtdrJBIeieSE6luKdUhNqyX+tYJKV1wich5F0p28bOkhM/Sp3FRlzjs4FAoH7+txj2TK16WZOZ2KTXuDqKzlrlBB41dHfx7pJ/zGIX6zg51j0kFxB6BT/vAPv27jIV5ZlrzsetEuEGztBdXXBureUNNKA3EgONChIM7pUNWTywAF8TaUOO5VKpLNl5Vm0iOQRE7SZJJmQCQuZak8wdC/vscCfOhVlsAbKyzE92n/JMpaX/nRKRdSaSOpbmTq/hd0RarIea8CVffMC7Vs7ZL7bzzJKdc8sYRScexZCehamfaCPnOLjjpCLxpy1DjxlFUTVKt105Ttmo7l2Tu974nH33ihZKvJ/Gb2r4WQLBkcKS7lwEutB7FEFTJqWtMjdhYuRKZfmpK0slJaT42KaW5ecrSaR5vSl8Y7aVKY/GSbgL8l9q+RA0xbGY4Vy7zo3UZueqF0pqak7mJCdl0yRVy8FMfko377xKZfHihAkTkmKFkSTmY8um7RHtS4n0xMJBSh+iK+BRrOCtq2GCWlac9ggAzi43IttD/SLlwmcZdzJtufyToE4kzoiIUXRVzuO/IeklGrwruBZI0yuQEj2iyAv5YFXhc6SLNWY1cPhPKqkwFnb08HnpEMcX5Q5LuvUfKD94h6c77ZXbPIalOT6rbSNeSsL4Y6qrEoVKX6vpRLXtDQAA2hdl0XtKRkqQbKzJyyXNk5OnXhvJAsUZUAK4DsNYcs4Jy85Ino1Kav0eyqVtCLK8W0wsVIoMeHAN6guymTemSyoawZ9t0GOhIc3pK6sRBdxpSpdQP+wEbRFQmsGorkqzpGUQO37a+H1SymN8bwqCjjSX0OaZpPHaG8ti4pARkYLADfKxLY06Sw/NK+LKUdMxMyrH5uCZ1Wbmd4AwJ/45CEXordpZOgw4g2EtGpdlKtb1sa7Qumy68QEoXPE5k0wbJ1o9Ju1aVKmGSuKgwLqqKEaUa5eo+THAxhEOtacNhyGPXICMwMVOT5s7dkux69tPy+dGOyNaKbLvmAln/1PNFNq9TPcOXklqKG2spHhZeZRzuEFw1NMZCvyCJmxTBkJQejUhzh2Rq9wNSf/SA1uAaqVBGpyStJFTp46VVZtkQMTmCmFVM1lc8QSoXA4iS7Nm5S7ZvHJX25z4o5dm9CznG2h6EWJfAzaoEhNDOdN06kXEs1PTKHdXSMlaMnftpHSREpPjiiO7SDgZwNPT5CGDd20gxEIg6Pl3EfXpEYRgakU6FCKz1klbHpUK63ugVwXCFyFwAcGA1wcJtbjf9hKig9sPSuuM/ZZSsJDiR1sl+msjEFeGa2/5d2rd/TK2rJapmqOSALx+rdEO7B5L4kedz0iFaTqWFTEoVanJnUqZMcHVcps5+vmy89nUiVEBR/6FR/cUALqlEAqdtSdqpSbl9v2QHPi8lXmqLnlq8r8iBjWMGShCzm6i9hcqB7x3f8byU2qglbOhQHF7V59hWNIjuUQeN78fK12rKo6o3QXFib6ihSFPaqsGlSD0q9G+toUUmE7m0WO0pgxvedbdyiHJyfP4mdKhyFV4NUiCZdmk7GrBIaGhKk+ios7bKxJVXiWyhk2ZV2hivsrI2WC91pqUkzRCJBjfFgghElAKVFSoVNfj1PrTWdNc+RBZSR+S+huz72H1y4J59Up/uSPLgs68JbQg0OiWRdkWktbkiW648X8afeaGMbK6JjGYi1Y6C2v6nHARAaWFdLccRqWWUNXoxcOaj5VxQ8nFl1CWnNw2608FD0nh0l5apqWUt7UFENoemt2GooesColu7Ktm6CRk961I5OLZNJqrz0v7ge0KjeQI22BxBggrEO8RFas8aHOxUmqDUpxC4DydGbARcKlIHDqwKaVyTsP8gB6nW5Q1iWi5Zpa1pcoi36hsnZBCXD6JyFSq9hULZklQvF9lwkRIUtTMQEMM1+JHh2oBfs6aIhsVPWQrJU+VUOjvfJdnOeyW9+xENhcy2jYicd75UdzxPZPeMzP7HR2X20ftkrD0tpY2plGozUi8l7FUNnyThv6p1kddJCZcYHKzZlE6ZAvgUxx+Rg4+OSnvbebLlq14im7/1pZLTTF05Q2hVqltcW5cSVE80Fnm/WP/HpNK+VzoHP6fd5Mny6XJfxO1i76YIRB1aCX0slI60ZH12ow6rnfg0pidQUhWJ4fKxGihjGMcMEUOcForlabQUbWiBX5sa5G0Riv5pPntoT8r1JHtoffCO1pQM9p3oIy6FJmCBoEEPeWZi8StUSdko6y44X5JzzlOJLpi2Ey35ShIOfcVCw7iFUlFdeCpTC03yiMGGYBNQRUglL135a16Wdsz0yzqJjM7XJX9wWh777AMy+4VHpTLV0GtoScMSJ7te+CVdLk0YJEXLCf6fZ0LlksyNplK5aEK2XXGhjJ61SdobculsyGW0GuJbkWe0+19WDU5tfH/2khYRlkgnYrMxrHhYbjtjVanXRjVBXvVRNjPUcHpamvvx2c5KHVGFUEISAWio1WlLS6pSv+gJIocPy9StH5MqVSI0NzZQchYHsMF1klpIa9MqEwSEaxvTdVLesF5knFA5xH182sE4YBnP3VqjarFHEiBUMVD9tIykQO2rIoApHwph2KrhbkklAFjjrDUoBf03bBAMeUEsCpxejWjqVjkQCqpNfUoqn7tHDk22JbnkCskP7JJ14w3JNp0nMzs70vzg7fLwHffKVny6mzqy4bINMjKOQe6gNA/ukRGVByEyDel0RqW6cau0MORNZzJ9x6RkbI7SJqledK7UnniJ1L7m+bLuqieEgg0JCf40U2Pjh6btwW8bAZxT9eI+yae+oKVQtficic8GYDPGKRsNomi0h8YuhgtpfIF4mt4Z2U7sTaTNw9nerkVKt/GYEmjKBcEQor2EAgO4MdGXIwGynkLUnlJjEKVu0cwQt7UudajAourW6Kg0KN6fZVJdv0FGtmyX0lnbtcQxBAPXEuWAdJ9i8KLYnMwH952KZk6KMXeLpTDiL1bmFwxuMAL1rhCg0UolbWRSPSTS3jcv03c8KFMP7ZfyNLHsNVUvNJQzdgyBkSS7vvoFebe4NUEEGpJMpzi4QtisBNXx0M0qRbMT2XjeZhk5b7NUt4xIe71IZQM1j9A5AlBU7FiwRS2WD7q6EZs3JCwoFcVgg8+YSKESFQ5xy7RCDimiB26D2Vlpzk5JvUmyWEOyuY4Gkpc70xoCKnMNyWdnNJuETgTaZbGTSqtE6ZboZqIZM5ki69ZJjST2TTXVixGpNbihawnXWNAFaTICWKtrYkSpEJapJQUjB8ZwFizMVJ3Mq1tUgyjXrlAAq4eWtSF8D2u8Ulz62RKOR5mYw5LNH5T08P0iM7ukWh6VRr0i5VtukwPTFTn7y79dZvbulfTT/yUb110qh/cclNb/3in33XGPjNfHZeIlXyqPe9aTJctnZf7WW+Tg7f8l2zfNSKtGBNm5svuRUbnwmS+Q2gXbpHFgWg787+2S3XKXlOpjUj53i4yef46MvegaqVy5TTrZYamP0N5ls5a3lRI1qZG24LJBz8WTUMaARcF31UX7ADhKMF1dkn9rvLQrlqiMNnJi/R02T2wxFVQjxxTUQWHvSVMio4sSV5o2HMdtqebowG2JUzCOrvsNCzDEq67BOiXcjbVxaUHkx2pS30C9bNrahg6RHW11gppCaWQIWUty6mjH2mNB2PSgXRA/lWh1i8fD7DQgXyqsZzsVuqIQYSYHO9J89LDM7NwnnUNNqbYq0kYtJZSTPRd1YdaNunMaTw0H3v+qb8kxfjBQKFQN+LT8YkisVssxZnK2XWirAahVDIDkbKjIhnM2SnlLRbIxwDAi5c11qW6EE4VGX2qDsuLpXf0q8LkO4ZO6pWOR7Jg4HuJPQytOrdZYrktWInqIDJuYqI8fd35OY10pSUoIJ9U04RIpGSwzM1ovidQ04kxJ1yLXklIkBGlozV5K1a4fl5yyQgSgVwluiCGAsQK8Wu5j1YauiZ+yCJoKGMPB6J7APPHvauvQ9Qrk0sgOSccvVbeFGgC0PhN6YibtLJHKzLTkhEU2DoWop86sZDP7RA7uler286Wz+wE5/Mgh2bT1SumQkTO5W/LNV8qhB3eL3PWQdGgkvW5UtrzqZdKhC8DsjEzf/G4Zm7tHRqt0BqpImm+Qx/aOyLrzr5ENT3u2JJs2ydx9D8j0u26SZKatbV1r27bKpuc/SSpPGpWs/ajar9oTZ8vIpgslr58lWXUsMBfcJhhXOtPSOXSbVOd3S0Y8b4kMoVxKWOyVA3fD7bo5ztpkTPd6jCHWvyOl77oog8isG18NqhpAHNZagxBiWRxEVLWOh3PLSC/qjg2icZC+Qy+qTKgOWpcSLkQaxVNUkPjnUUrfJNp8DdUnBBehWyMQZaElEO8Lv7VW+tAgzNB3S1u+xooy2hY1xEqrq1RVuWhI0aggBiyJtMicaknz4LzIdFuS2VRKj83I1GMHRQ7TCRN/cVD5tAQRdiD9rebtEEwVVHXN266PjEjSePsv55jP24cp3dmW9uyMKuqa+xmLgYWE+iD+GGPVgtaOP/ENSSFUoB/ZPCL1iaqk45nIurKUt2ySkY1UOiSIgLmwyKHOsRYJs7EUKAsDL1KjVdyMzcbh1tTp1RBQag3HBs36AimOTXADBcCJUmJjUV8o1XIs+KlJRFfjWKutTaS1GiVj0CIGHRWJDLFb08NC2l0oxlKJrVQwPtCd0KJ+2GBsgNDXVzsOkv9Z2iT52HlSGn2cumHyxj7Jmwclq4xJrbxR812zqUekrWpBU7s7Eq4nE1slaTwo2fiIJnMfvvUByfYelCydk9rYJqmuP1cO3bpPsvt2S2VuTua3r5Ozf/y7Axc4NCmV226QzuxDIVlhvi3z1aq0O2WpyQVSueYbJDn7Ak122Pn2P5ORhyc15a96ydmy+UVPlfZlNUn23SPVqXnpnHOx6vJpmc1flQp1pOmMUapI2joo5ewxFflbM0glDW2tk6cEdcwsihkIdoQFY5SPkVdd1o4IiNDPOEb+RTtLMEng4ov+bhXzSDiBuFdC/6sY007ureY1oxZV69KhqssIVTJiHIDGLsTCAxLcbyERI+rxKhDArMik73OYqKx1vSAk7A+ITDn0OVY/degVnB2YkrkDDZG5kmSH5qV1kNRB9HiSbzAUhkbiQfSm/xhuzop6FUhDbALgclkqI6MyNjYmFSqsjIzKCI3+2n/w21wdq06m0qZ8CtwKStY4JE3SppqY/dGLAgXVHjOL5Pyw3Mad4JCI3ARXSL0koxgVxnLJRtqSj5ektmVcRraMS2kT/WrbarDJKh1NxlYqYGJXTO2LHywAnUeOLU2CyIsoSxwyoYKIqZTniTot0gKNq+G65Fiix9F71iLDksOhPhflaRBnCE/EnJShZYfcYGUOZJRUYyw00odyo5iWqEQkRljFgA6IQFrbKuWtT9HqEu1990oZa3J7TirrdkjncFUqBx6S1viI1CgvWx7RR+8kqdS3XSzlw7slnXtQ0pGzRZL1akHFgAEhQbdrPHhQHvzAx6T+wGMyds42OefnXxm61R2alPIX3iPp/C4V28kQa4zW9P2NNCek8cSvldqOJ2tppjvf9key4eG9km8ck/o1l8rmL3uqlM4fk3zXPTK7c6eMraft6IUaeknYbAZ4aAa+dbO0G3ukWpmXNKEMz/maRdSZfFAqE6lUhMSGUAnS03gFZpScjRvTAzGiO1oeI4eNhjTYDb2VeO6UkFqyiDAYEruNr53EEE3F5CfYLzCSakEFLROshalj1QveK0kUuOcs6IUew/Ge+qItosaLwV48jruRpu7E+BOEk+ZSQTHNStI+PC/NPdPSOjAvlXkypnKpzDSlRTG+Dvah0FlQ9XZNbV2o9KrgVcaNI62i8dljE5skGa+HLiWVEamRJKFVYsimqkgy+1d/kQcuxmbMVGpVX2JKPA/F6TJ1GKN7Nmb3SDo1G6rWu5I20TsVRQjcMKFrAwIQlBFxQqOQ1GBXkgpWOzJ76iWZr1Slvqkqo1vrUttSERnHzRFKl6BTdw1KgTYtEOsip1bRIxQyxyhB4jpxx/hadTxNLI+NxlRvCsYy7Q+s4hqimxkoqJAQyt+qHxi9Cm6uaWkUkEulSisStYyGboaqAqi4j9GoLlJpS2tku9TOflHYPI9+WrL990q70ZLqdC7zB5tSO/d8ybduCiF4bMI0leZ8Q8pnnS8y/ZCUH/y0JBufLI3ShFbLrFfHtM1Me3avhjBOzc3J+l2p3HnjR+SyH/o2aZMNNn1IynfeKK25R6Qx35CNtVHpECmUJlJrbZP5K75SqudfpjHBt7z+N2VbqynrLr9Axl78FClfuV3aOb2VKNObSuuRA1K74snSKo9qgkQyf0g6k6QCJlKpUYwglXzjOZJQ42quIfOf/x+pb+5IUg81nnoC2D6MjFdhEv+DipSWRqUCUOGioxsDQAGnpuoFsKtuyBuORBN1KNS1ily+Q2glpvhmiMtWjLQkL8UGfrxa8Bb8dQE07B/LP49z1Heq3LWHQYf0xFni09syu3dGWgepUZ3SwljbUqsursQ/5HJbv67g5bYQWqTcGOUHA64SLbZRqps2SXnTBk2BrJGHrNlvaJQL+585aZhm4/3vy32v3NBuM1AfE2dD8zFM8JnqBi1CJvc/Is1DBySdPiwjuKBw8URDYorem+SataTGLJznWraVFLVQmhNdKojkAXT8hbbCPm7UEhUfN24XGd2+UWQ0cHJNNCeSi4wSjVIJPsCg8HiBO/oGY3xipxwivoIeTjgnMWFsiDFJqRgIuPVdBkuJ1ttVi/5o4LKEM3K9gjrEJaeCf7UUqhXiK5Zp3SvENJeISsoIg6RUL21CN0nn4MMij94v1YcekPb9hySvb5eRqy4S9QmwMSmaR4DBnEi+41IpjZel+aEPyNRsS866+mkim7dKG1/44b1Sa05pUbn25sdJuXaW7P3Vv5dzXvoimU46Up5tSuOWf5Hp2x6WWx+clK/+8gtlerwh62Yb0hm5QpJLnyPzWydkQ1KWO379L2Ri27hMPP9JUnvORZLs3iPNPZPSHlsno5dfIHl9Qiq794hMjBMWpSqWHJyR+XseERnfLyNXXihzWy6TMXoLH7xP2lO7pJxScfRAMOjXxiRNqlKpIrGEVDu6OKghj8AO4gJiVdLQwJAmeDG1U6OhQo8pjfbT15xKhSgnNrI2cSeXNjRTK3cOd2Ptu6LaQpB9jM8GLBXVXyM2pVOfljKF7bQ3EowmhO0GcThTvRTdFdNvZ6Yls3sbMrN3VkZmgi2A3GD2n/4dyIpa7jUVVcVpYvmptBlec8gnoAF6SeazTNbXRmV82zlSntgu2fpxaUcpQ926URgIHZtyzeFW1PB/iBTbdf7fPqAA1g0LBfIyjyOhuvWdk7tRzrRTXwlKS4zufhKUJ7WaPlUDy+iiam4nvhMqGkQWa4rWNWgYDJlDNEjYbcspnAxXeFtyrKmjbamPVWVsYkwqm1pSWl/TkDbOqcauEfrCyyEBX6Oa2Hpt8phjBlQZSswCcwJtN0KR6FDGCR2UuORMqhidaGGC8SRSvhZuI2tMrdZnVgVLJfWliBrDv8vnoTtALjXJkrpU0zFJZx+RyvQj0tn5BZm9/2Gp5GVp1nON7aeu9uj6dfpyG/tbUtl+rrSpnlHaI5XZVNozHVl3/oUi1G7e9bDMPrhTKtvXyejFV0nntoPy2Dv+QSae8yQZuehsTanc/5n75O5/uU3SrSPyvJdcKbu/8FnZNVWT85/6dNl48Tla+XH+rgek+d+fkdYF6+Wi73y+zNcpLjgh68gauv92kUtGRc6/VJo3fyZ4GBptmW4c0vYsdESobatJ/UlPknzrpdJJNkm1+WgoiKdMgp0afakbRoVxAAAgAElEQVRKpSG6wVWj/mT1toTgizK2BD4hqT1rSjMJDa85NP8Vp3Z0saXZXEzYQMojbTBwocBtjhRzbR91sCvoOUR7BSNiSG9F8ordy9TlVpZ2Wpak0ZF0ui3NA21pzzSlPdshDEJqSKP471slyUZK0qIkLjEGkkmzhFpW1QZoebkdK9IgSZZllDTPcl0lmWR0XEYnNsvYxgkpjY0JdefLSU1SUkfVHeuSGeIDqButK6pEtqpuUgprfOQjeRn/WVxUCwwqJuMX4zI0h1RfTijTyQuqYPRCKW/My/yhKWnMzEl7riFjRKRQyJyMCzhTzOLwsRIWwA/H5pUwuXnAplwzFGUrw4HKqVbCoCc40gJF27O6SHVzW0bpqUQ9abogkJEU/A3SHKd8bUzNwy2mTJQY49CJfoFmxUBxPsBiqqWowsbIqMerUUMUHUDUD6GTCmDGIMZaAzTwJ+JXxi0VUhgR8Vqzj0nz0Z1S3b9PajNTUsZ3OE90zZzMksub0H1yRAuzEd45eunlUr7/bpk9dFBGtkxIvmW9dEZK6kJL4ISSyVR9g1T+7zGZ/uxdsvfAIZk4h5KyNXn4rp0ik5lc/cqXycjV2+XQ/31aJj+/X9ZtWi/rJjbK4b1TsuvOu+SsWl3Grt4h2156pcw9+piUznmC1LecLY27PimVHRNS6qwXueNuaeUdSefbUq4ngbCN1bUET+m8y6R+0ZNFRtdJJ21Et3lZqpoID1BiaqFapUPTrmjiVaMdvtoSKgylXokiI8KLBP+Yd53WQkUSZTC6u70o6zOeoifAMRwTy0M0l/ZP0ViDvENZHCRDNg+tSemT3pTWbEdaJOQ0RbkuLUw6micOt45N9rQjJ0Ia+yCERJpvm/iJYMSsSYYhkxampbJUyTtePyajE9tEamPalI5SQ5pHr+J7CN4JxfBjwoI9R7QaY+DSiq4+mSg2rE/aN9+cd0VILV9qDY/9akQC5lBMAXIlXlhXqWWlDwWVDQZ0D0TtHDA3Ja25KclnDoSSobH8SkZdXxIFaMsRAsK62q2WVYVDxoqK+iKsNUr0C1o9q5j5GXvyoB+FipWqn27IVPmv0hOonkteC+lxMNfOyEIB9BKF8dhQZjyLOm6gbi7QQNPUMIhA+IO4HlrPIO4FUU/1KV0jxDNErFSq5Jg26AB4WC39SbMmOYBVdhNqQxOuV2vl0tl8lvZLau87IGVqcWOgy1KtBEp2TW3TJsnPPVdKD83I1N490nnksLQPTkvj0LQ0my0tbD7ywufIWS98huQHJ+XO3/lrGaVtX7UiY1T+3DAio2dvkokd50nnynGZf2CvZC2iyHKpbshkfMclcmjnLlk/M61SDp3tsfbXMRCuH5Ns60YpnXOpqJ6DCwdfvPazbUtKGxQSQyhUnraDbq6R59RKQ4RkPXjfqXas1z2n6X6hQbxugnLY6FYRRf2+ca0DiTdxMG4YiDvSHj8IWAT/II3hTZmjXE4irWYu6az53mPDbvLMIepwzviKQ10yTKrTofevFgfkPWJkxAXJ2IT+kj5IaScASzG7ulQ2rJfq+GYp08mBQKWgi0VlL/r+za2k7UyD2G554ArmaFG3NF7ze1u/KxVm2avYbtq3fT7HLB365oYwr4GO2NUtVKFUHhWok14f6zgv6tUTTwPs6Iw0pmqRNkZ5VAIZELsbWshc+59iFaYWcDf6JnSPZ2nhzpSbMWkhOK/DPAKVCi/A3BEUA7BD+zvxEqwu0gjZVOUQJ1xLJa93lNpB9eeTZmi+rEa+4NNWgoAbS0vOxvRCtZ7EErAYFxT4mVopg+pA/bDQ6YJAABqcW/F77eWrEmAImNf1i8SNTCUMbUHUC8/GmHoOLUprNeVc1G/Siv3x/LRRkc59hyVZt0lKlVFJKYLW2i8j1UYgUNQojoCR0YoaErNGSeh4x2aqT9QkH8ml1JrRHrRm/OvQCkTDRUk/DapFN/VRdb9g9bXi+fo8xHRrgXxsD9Gfq1bjyE21Rlcw6sSskqDeEJ6qhqXgk+UnaROrXNY2MkTuaotZuCNGXcAJo8VmRTcDygzFuHbCILtMTQ2W3mSy8J2FYFvlFeqHVShPixuqUpcOtcO0EXtZasmoluQh061EuVkyp2LyvRbBX9icwSUUuXV4bucqpdQvqqUGe4Se2121IGbK6ffdnO7I9dGz+bx91525Ggb0CP7OFR3eOWyjRHm9V00sc35rTDE6KIXpYpSMtklR6yEAbksnmwsNs9CnEcHzueAOUr9dS9qtVih5QlA7eZ0YIdR44ErX4gzXfj8BAMEgFwwjobDeQhVIXeQYQqYVMRH2Y9dD/U0ieQQ35sZQcz00Acf9o+Y/BXVbI63sxdCFXS37gBuTKOdavLXVvjYXhoI/RBZlBEeoP9LMpDFKKaa7qTshxtSq2BndIWmzJo1PPCCdw3RurEl29lZZ94RtUhpnbee6FUUUxBT2K5MzWxdBt1MVg5ShpsZ3ayC/EWWCVXSbhNC/8HcMqkGdCGld9ICxWkfh37aldK5wuhCPzLsqdYJ+qpFyrI8ab3muspQ69fBOY4qfZhllJd0i5P9CmAFwELm1pVkcG9001AODMbU1fiBE8WvYJMUhrP0tjdTZgxBwDJJ0KlRik8g87UEBMBZxIuyoaabEK8xRDUrMQ5chgFL3n0tRDUzFIypQDxUoVLcNEm+ocb7w3UKWWsxHjucsMCn2eS5JZ+dOrYllAF7IwVgGxsrxQt3nwEEc547f2Zi+8NVCf4Vg5V6weEN4w7dqfdNnwZodNoy+MLoNqFWbySPCBu6jPD/WItYyqcoFg2GKcypw9bjR4f5ac1fPz6WjCejR4s5GgRgYZ4lLoGBn3EU6SCh0BocOrruQhqnvyqQDSxLRpIcYYqqZOKGIWZh4sGrrGCTNk0KIVZN8HdpsahE1dciFAJjgK4m1neLax/uqXZ4F3PuYzH7ok1LZkkj5gnVSbtWkVV0v9Yuv0LpdSqijy4SNrf2CrO6XgkdrrWJ5CABkvdRCGzetOgOC6Mp7CaIDwIwsM6lo1JKuTSSaC/7fKP2oukBFFDPsBwBzXjnBjx9CTsOh2qGCUmPItXg7xBXLMeCjaDpLiZExEhJUDp5JK7pgnAyGWmp786P9ihGNSTyJIFJixZjqZiwiL1iPlWbp3sQGRMQXHg7248K7CPvd48ElNqjYHOKulcC7hgQx8ya2cIkVWqNv25iBzlUlzuBaSlp33JlXqdBQcHX5iCidtJvQomip+FCe25qp+4jP4ssILzOMYiGWC6J4F/bdXjSL72eEJbq6lOIFzmfDG8nrpuepry2OG1hx10VmdIcFCmJteFLdJhZ0oCFybJ6gr6ozQuPFg3uNa2ggpiCMbrgQfp9r1RHETmJaQzM3Nl4ALxyionmoMaQQf6F2OWhJTrJ5Z1aaBJZoDyQ677VUv21rbyBqeOFHzKU5Ny8t7UgYnnJ9e1pqk7fKxNeeJ4duvUc2PWGHTO8ek9nJLTJDEXn16JXV4NchrzdJZIQ+trQAGa1LtVqTWq0ulfKYVEijq5akPDYSWouoMSla5lG99JaaZhZcMJEIBy4dVI4OhIiNx/Nqlce4bnkueDOURqsGEdQvtWuopBTXVIkLxh5zowRSqe6VWFAicMUoeSnjDYS1a8zq4sn+iGCMm8a4oW5nUyO7mIjJ9PqqTfKw0hOmQhZUz26od6wUE21Dge2ZqhkItRHwhZ0fiFb3sAID3ev4JqhnydxHPuw4cLgkiJcL1+s6RP0scLKF7wKVddX51FsTqJ3qcAacmDRvsatWMZFzguR1pOhuDnRrE6qPVbh/+C6IJHb0mv/ip3HnKjWLpWQ7uAmQDkPN5A7UNRZDU/uAFkwJm2s+yHohWks5T0uqpKZpVQMARoX/VNoHp7QY+6HJA9KYnpF0elrac7Oap6vznA8cN5RkndcAEULMsWo2s/kQlsd0mAlidZQ01Ehk3DkSkeAiTKR64XYZ3dqSLdc+XqsfNjeX5PBn5mT6Hx6T9ABF6YJfUvXVzkJBA/wJWrUj6mujpRFtUNjG7aoTCe+IQItGbYPGjXNQQSPdQCbUmIxvXC+jW7fKuu3bpLphXASvQHlr6MwQuruoyjFfypDYZX2MvAvx5qmkWrs7iLuljGqSSaiSgSjM3Arvn/trFw3nRlL3knJV/9bDP8xAVNzfvfaRXa17VJnNgmqm9Zv7bKoFjIdNyfXWBoi9E4qMxsQhfabF+CkO22v/oysrJqdu+Bs1Yi1kTAS5fNGjF57WMiz8OXaNiZGLuK9GY0U9pwfHLk64h1rtCMHScyvOyZ6r+7m14FSOEDaGEQZYLsnW6tLQgmTjoeayZiC1JBNq+WYaXprs3i8zkwdkduqwzB2ekvkprOtt7SynSSCdloxgq8Q7UmnFPruhZJEGy9gaYxiKxhYyVdrokmofyBU46kSLKoVtUjZOR7l/cOgX1+ucK7fLhu0l2ZfvlvO/6GLpTM7J/vm6HPjwLmlNtiV1zdBrKgKHI4Bo4VA1xH3m7DJSoeRv3BcqsVA2R7sxEBmLmFoiX0zDMKn3RCmbjDaxtU0yMr5ZqhvWyYazNku+fatsPnubcn9NCSyNaqQVfZskb0itXlNwalVSpQCxw0dhH/m5FTPhFkB7JOT8d/32XRBbo5oVlycE2ZrRtA+Se3xsBNm+IgLzCMDa/YpUxr8b9hHrsvc3fiNAORoBF4Acz47+piIwumKticPOj25RVnaNOaL92J6qdDdQ1BktRqvXshgF7gpCVnjdSTeRqcY+TQubMi55eFzVo8n5DHHfwVjU1h7EyWxTexzPHNols1NT0pkO/myEZwBZ0/5DLengNkkzqSUEJERjRZKIqodqBIsbhqiabuE+xM8FItShqmUoTR2Ebk3p1NynIKKr1T08Axu7C3xK/0R7QLGx3Ojl22T7BVsl3/2QtKuzklBMbuNZ8tA/3yLVw1Tb9Mnmru6S6Xdx4fG3c5iI69+HRiq5A1FehQ+TMOO+UHciVlhVXTD2IN2FzDP1bWZVFdEhVhQ8IGuIvtJjmzbI2IZzZGTzRsnGg4smI6wS3ZW4Bc3FRoeNoFZ3T5htdz0iAIKFP1jIC4Ju8PPHPa5z9L27AkJDKGVgwV0ROtTlCsansEgW072AmwURYIE0KEGM1mrO7NUU0Pa4SqV6adhHXTUw/ktj3x953c/koafuElTEnlqfz0IfzW0TDRe+QrsN5a47YnR7buvn7u9fXGXDwaJBIlePSr5m/mmhONhAEEvN0jtPZhKicYvPQz5nibTCuabMzR6W1tSMJLOUzdE+jvrC1MgBN40iGiKTimXxpS6xWgN9ZSpDN3AmckBvC7TqNl1i5dZI9fU+FDqtpLL5/C0y3zwoZ68fl8a6cWnPl2TPnbulTseFJV/2QNM/oSfx2HgLyOvNx+pS27hO6hs2S2VsVPLRmpY1wvKNRZ2G2iVqlNHRgufE2pxXQv3wqA7187MYAbJAEgUzHo/InLSPUuyrtcjDAiaioTLsvxA91rXBRF3dqGHw/saXuQTulpIcDPjJA9//Sg2l7FaY7/FqgrU40mIXKx2oQv+J2HdH0r2F67ocpaCvLMZzF+1hFio+xTIvalvCAJVpVwKoEk2vqZ5YbaFItmVuHvdTJk0S/pVrdlR3hSvCifVetgZOfQglXY6kbUX6clS7OXKL7nMuNWhkAJ4eLmyOI++uluhqInNJU8696HFy4N7JELyv6ZuBs59Kh4mv7EIN6dV3FIIfkHa09SqWawrIjdSlOkIpWizvSWjxmlCTraopkXBv1WUZq1QKobTOqLqwv5AI1JCjvbI5ByIQjGOuGEG4QIkGNavzOhlCDUnZa0ZgowvT8OJV0F7YsHdjhl0z9Pp3pq5Xbn3vN32dAlgLug1whP0dU7S6AgmP1KMG0ADjLXeKThIrpJUv0fYhiL0NKXVSqdBwLdbxxS2hgQ4AmTC9UMxS5quZ1GKzryCmBlDCZdtRFNRFVSvpwoyWEkqWm/eg3y/yvsUwUrvWd27sJcb2u4fKCWkqM62mnH3ZxTK1a49au9mQ2rztRDzYoAsw4HkhfmBhj2koZDyCXhlKFrFmlRixFYoaEqBDr6Jq6NvF35qOF41x1VHtwKm+X/UHR3dfUtJKk8EtGUXpSCzMJWn3h6FQaRTigSRI6xTt9LCEoWvAx+57mhWcTO7+ihd4kbzvBWaFXrAiB3N/cFxHkFlQQaQONlgwFEUrYLfyc6BiWvqEz/Rhcb4TThP64SImEqih5yHWEnYYOS2BEzwERibllMEarzoJubmk/NlGxcWjnQ7Vmhibptk1WrY2iKMngy8NoDl038mg82MN5vdPaSL44655okw9+IgGSMTqWyflOY91wwa2EaQlddWFAAEddmF3RUOcLWrch2XCVJGwyGOPv7XAnTY5K2ughtpnon4KQDHsztfpcEgnj9DNkCoZmszhJE8N5OF7iEDUg20vmxclBFKGo2go7H7u1CFjkl0pq2BUtmfW33c8+xkD0WPTCxbM+AsqtbmBNGpGgyhM548Tj24p9bXGCCgMQDpBTQsLSxKimHCpBBd+CEUMrhG4ZYeSOPFhMHyEyJ3FlUL0e1xbMQRR+xp33Q8L2t+gYDgeG+9Ej6Fr0Ggpx62cMyGdycO68YPoefofwFyDkzAo0nTNGbC0VI22YgnqhHZWKJfVX98N54zGrA4x57WajmHdOMx2oXuT0HKaBGj/KmqDL8QxdyXVGDdgqx4KP/Z6B/7DxeaqpQxUyZ1f9MSBAKwQCxacyLCCrzhQiRCf2Y12Ch+F/0Q/5qIpR52DzzS00GCqhodYUMAlUfNoJOUTFK+A1npc9MTtqH4SpPoFA5PG6nYih4ZGrDA69HTY4hAuXgHlgEyXPx2ea5Bn8GDD364EjcXQ4i2xXavWdos9mIltjyGRwUURg4xIK61WQofDGFiycP8IG0Uq4vtiq7ztU3631Q0WdO6QxYovOFxnRmHVyqN7sejGXeqZk9svuXAgACsmrWtABAxTCGb4MKGA2Rhv7HxkizoQFmcT9RrAr/5Jmm6BYqeTcx+oJKDUhSiXpKnV/9FZw72hgkZFiZfSCgZx0bU53Rl2BDEz+JDPuOeP4nCFNM7YvqcngNkTEdBqA1FJrxxEbS28F4oGqPRZcLEt3k69cwi6QHQBTRamaV6EUB4n4MZ+Q4AGlZWS23ZcNBCAT8T+VzEvxhZjPLDHKAbtq9VxQSQIIs4ZIh6eiPdwqt/DdGLEZYhXhcZvaqcJO0oNtrEYgBb8j5JkUMkGM+aulTVacwBW8ScGend9XTHdTEV0cyOZc7sb/LFWlnQ4j5O9AgZgTWbA8BTrUxUBzL+1k2EM3tDQ1DXDzgZbxTUHYEQ/643UrRk82LMMzxquQOC00QSDG0kDO5r8Ff2mrgfV6bBcaw7AXvnvHUJ2Oiz78BlOxAqoQZSCDFEsNhCfiHufqHusKQCfqIce3me4AqfLCgwBfLq8yeFznJErMATwGfnahw99uqzAEMCny5scPscZuQJDAJ+Rr3340KfLCgwBfLq8yeFznJErMATwGfnahw99uqzAEMCny5scPscZuQJDAJ+Rr3340KfLCgwBfLq8yeFznJErcOIBnFB9OHTxo3lXrV2TRi2TTinT1LdTsdzLGblzzrCHLqYT0vu3oS0JcxntkAp7ZD7wiViiEw5gCrICUpLsW5WOduOs1DbIWDqqjZabvijViViB4T2GKzDACmhRiW6pHorptaU2Oy/SaUirQnGL2IN4gLGO5yknHMB5EtqBZNV1MnLx5TJ9yVVy9fd9m8jlF0k6OrLS1mrHcy2GYw1XYMkV0CT7mOxfemCn3H7T+6T50U/J+kcfk8b+x0KHyyWKsa/G8p4QAFMJEdBqg6o8k5HHXybt5z1fLv+R10q6fqOW0alaCVdX9Hw1Hng45nAFjmYFuhUyuqWeaK/TkZG5adlz0z/Jofe+W5q3fSHUOB20nMbRTKRwzaoDOFQRzKXWyWS+nErlmqtlxw/9hFS/+HlSqtA4+Qysd3McXtxwiLW0AqnM3nGLPPTmt0vzUx+Xaju2XDwBU1x1AOsz0CibNpBXP0Uu/MmfkMqzniNZqSpV6lq55ssn4HmHtxiuwHFfAW2Ek7dl9tb75KG3vV6yT3xyUTfP435DN+AJATA9dqpbz5KJ1/6YbL/2m7SGrlayjBXyV/MBh2MPV+BErIBW0mqnMveJj8meN79Z5u++60TcVk4IgLNSKvXnvFgue/uvS7Z5QhtKqz3ghNGpE7KWw5ucwStgO1raHfnsL/2S1G+8QRrlimxo5tJeRQ/TCQFweeN6Gf/pn5bzvuXbBf9ZobHdGfzah49+Wq7A/XfJg6/6AUnvfkQa1dXVh08IgOuPv0Iufe/10l6/WRton0gr3Wm5QYYPtbZXIO3Ix7/5Wjnv43fI/vWzUu2gMq7OseoARkxuP/HJ8pQb/55K66Ha+BDBq/M2h6OujRVoi3z0514rW//u36VVnpJyOrJq81p1AOMD3n/N0+W5N/yt9kfWjgGr9jjDgYcrsAZWoCOy889+Txq//ZsiraZIfgpzYAXw066R5737PaFe7xDAa2CHDaewqivQEZl871/L3uveIHlz/tQH8IGnP0Oee8O7hwBe1V0zHHzNrMDpBOA0SWTymc+S515/gzbPHnLgNbPNhhNZrRVQAL9L9r7xjZK3Gpp5t1rHquvAAHivAvh6qeWhifJQB16t1zkcd02sQFtk8sbrA4CbDW2iu1rHEMCrtbLDcc/cFRgC+Mx998MnPw1WYAjg0+AlDh/hzF2BIYDP3Hc/fPLTYAWGAD4NXuLwEc7cFRgC+Mx996v15JR64SeJ3eiLpV/4fHgcpxUYAvg4LeQZPoyBFHAagA3ExaUplVbP1XHGvYYhgM+4V37MD2wAtYEMvAZMQJxlmnauh/+ez8vl1Qs2OOaHO9UGGAL4VHtjJ3++aZrqJLyIDEj7AdhE5iLQT/6TnAYzGAL4NHiJx/kRvDjM0HBNA6v92wDsuTEANrB6DmzTK+q+Q134OLy4IYCPwyKeBkN4fdUboUwELgLYg9xEZgBsIrIB2I87BPAqbJQhgFdhUU/BITudjlQqVEEIOisALBqbBikk3g/oxbGG3Pc4bZIhgI/TQp5Cwxh39LqpcUqA5sXiov5qorM3Tpnl2ZagH/CHoF2FTXKcAGydXLrqjhaCDIc5/YbJDKvw/gYd0ouyvfRTD76iG8hEZG89Lvp6i4AedF7D845xBY4TgDPnmi82V+uC+rYdFxWBfoyzX3z5mZpOWPS3elG3qM96EdfOs+u9JZmVNaCbbuuvPa4vbjjY0a/A8QJw5LdJEnz0Sey7VCqXJaOuOoE5QwAf/XvqdyUgY3F7cUd/jTc02d8GWNN3iz5aD+CiZfponuR4jHE09z2trzlOAE4lDzYQ7U+US86+EtEmau2StkYYAnipjYQRCWANEqXkuWqRexbFY8Zrt9vKTavVUPDM9FwDrt3TjFdeVz0WvbWXJGCupuK4PH8xwGM5v/EgRrVBwXsszznoPVblvGUArIVZ40GBi+5BOKtWfiTktSQdWTBa5lkueZpKKSlJUkokLYV2p0MOvMQbZAP/4i/+ovzar/3aku+ZjcZG99ySwArbgPwNJWW8173udfozOjoqn/jEJ+QFL3iBjm3AXb9+vbzrXe+Sl7zkJcrFv+zLvkw+9rGPLTJirWTTQSB+8id/Ut5IdYgognmx2zh/L1GceZ977rkyOTm5sOHyXP7f//t/OiZz9cdf/dVfyY//+I/LoUOHus++krkWz92zZ49s3rx5IAJ6LPc57tceJQcG16VKaFGaSCJ5OZGkVJJOux0YSUagjuI7ABixeihC9399LOTP//zPy6/+6q8qQNnQXke1Kz2n4DxAA1gtOspbkxnvp37qp2TdunUKzOc973kK7larpb/HxsbkhhtukK/6qq/S4Z/znOfIxz/+8RXtMZMa4Kz8AKo3velNOkYRqCY59JIyICrbt29fBGDGYKzXvva1+gz++Iu/+Au919TU1Irm2+9kCAcAPuU4cQ8AK9MFeeWSYJwyxltKF9ixlptKaDwUAJzUggux02mrGJ2kcOYoUVdKkmRDEXrJjWYAhgMDzJGREeWcgNO7ffjOgAFoAbCJvnw3Pz8vMzMzes0v/MIvdAEMB/76r/96nQPnNBoNqdfr8md/9mfy4he/WMf8iq/4CvnUpz615DwNfNyX+dVqNb0/cwFk3/Ed36Ec0xvWzM1kOvfGjRuPADfzveyyy+TAgQOL7s8zvPrVr5bx8fGeAD58+LBy56OJr2Zt5+bmdO6nLIC1qN31skdrYs2HDmBqRi6JlJNgmorZX0mL1ivxIFOsFLhuqvpu0IH5WwGf5ZIhRuNWRNQeAnhh7XoZc9jAcEwAzKI9//nPl6/+6q/uCaaiJdlzDUTKm266SW6//Xb5uZ/7OfmZn/kZ3fy7du2Sv/u7v1Ngf+ELXxBEUA6478UXX6yA+tu//Vs9z3N7A6wZywA9f1955ZXydV/3dbJt27YugeG5ABQ/nugwhkkIiMk/8AM/oKDz8+baP/zDP1TpwA4+e/azny1PfepTlVD04sDT09PyEz/xE/K4xz1uRZyYse+++25dE8TnUxfAuey96V2y541vkXy+KeUslaRSlqxcQlcKumvM/sq0l/DiI6mWpYV9xJV/1JrqFkIrSbdM3hklQnsOFCQaJ77EXNlAHIOAw/dwm9/8zd/Uzf/DP/zD8ra3vU3BXBTrimOZUYpxHn30UfnRH/1R3ZgQBHRg4142zj//8z/LN33TNykntjl4Y5jNB4ps3JPfGMNMZEdvfvvb365c0w64OvP/pV/6pUVEgHG4luNJT3qS/Mu//Ivqu/7wVvKicaqXWGsiNAD+9Kc/LVdffXV3rsW1P2LTxpTHf/u3f1Mx/M4771zzAPbP5NcHUXfvjdfLvlEYg4kAACAASURBVDe9VTIAjOoFeCsxZbODlyIT3EF5JyShLDrKJekkIuUseDKyFOU37Es4MNtWR+KzM0UHNl3PREYvQvbaTPY9Rqzf+I3fUND+0A/9kLz1rW/tmRTvObj9bSLkI488Ij/yIz8if//3f68EAS5cFD8NwADOuDnjwOXglNzfrMIQE37gvAZCngEAo69ffvnlXQLE98wfADOGzclEbO7F+QAHjrloI5qY5wiaEZJeOrMBGG7/mc98RgFs51vyxZG7dbFe/oEPfEABfNddd61pABfdeZ7YlvJE9t0EgN8m6VxDOTC9sDOMUoIUrT4gyfJMBHAWjqyEAasktCo14qw6MZ9HVxKWbJXKT2cALxXd5K2vnuPZ38ZhABugYMP+2I/9mHJgvvvzP/9zefe7371IvDTg2bUAFrEUERijDxx4KQB/27d9m+o8cOmnP/3pCia4/h133KGf2/MAQizBz3zmMwVu97KXvUzPnZiYUDCiB3sgQkAeeOABJQTort/4jd+o49k8EVXf+c53ysGDBxddxzn2DI899pj88R//sXzwgx+UV73qVToGNgF/9AIwEsUbXv96+cQnP9kV2f01PMull16qojpr/K//+q9rEsBe/TCwmnfBmIMR/VIWADz55rdJ2pgXyaKYHAmhSnCSSIpoHSU+HT+CUoleNDfbmJHhnlmhlLbovcQ3AzDfmQvIg7cIYCjha17zGuVmfPezP/uz8ru/+7tHAJgxLEpq3759smHDBtm9e3dfABvQ2Ljf+q3fqiDFCg035UDvxthlOivnMxeIwZd/+ZfL3r175cILL+y6mcyAZvOAA9sGYwz0eaQBz0ERVzGWMc+iqIwuunXrViUAEJb3vve96pJijKWMWMaBMUh9+7d/u/zjP/5jL+ar83jyk5+sz8h7MBF6LXFgszV4yYi/+wE4SUX23kRh97dIwvpnHQVsqRxUL0RiDFRFW4Zx1Z4L1efDU54Ds+HMh2rPaOAz0dM/u21QWzzL+PFgt83Pb0TPt7zlLcrV4F6I0Gw09Fh0Sy/C+vtzHzPCoAN7EZpr4W6AzQI6/uM//kO+8zu/UzfF3/zN36ixjDk+97nPlc997nP6jPwwXz6HMwJgALZjxw6dEz/mvuL+Bl5PmJAg4OqsEeczDzj8C1/4QgUwn/OZrQ9zx5Xz4IMP6jNjVHv961+vYxiAeQ6u68WBATCSBQAuEgdbZ3RwdGbmczI5sFeD7F3aZ0V7hLcP2N/ddc4S2fved6oOXMKdiK1BYzSCBbpcwtcboqrMkKjXOg7cD8TmjsIIhjh9ygC4Fxe1xe0V6WSihxd9DNg2llFRb3Dy4jTfI0Kb4QoxGCORceClAMw4cGA2P8DAiPUP//APyrn5gSAAjj/90z/VjXvvvfcqd+NzxNmv/Mqv7IrqDz30kIIRLvWRj3xEzwfAL3rRi9T1hFTgNx/zQ7R+xzveIbOzs7oX7NkZF9Gb40u+5EsUuB7AzPcbvuEb5IILLtB7mr7uAUzwybOe9SzVz8866ywlbKcSgIt7yYO0SGRMOivaBvi3ETlvT1EurQDGCv0mKQHeCFYAvFA5JRi04MRdwl8AcDHzKJwvysnVpbTWAeyBaYvuQwyL1NEW0gPVU7JeAPZj6AK5F8O/ERvhutwXEHoRuh+A4WC8eACKXgqA0Z/f97736XgGYAI0vvRLv1TPNSJigRyItP5Z8SOjizMX5vhP//RPyoH7+Vrh/uiWALmXLYCxMdDBTT2AL7nkEvnLv/xLBbc/PID9Zn7a056mfuq1DmBTI+yZ/NoWDWwmKnvprAh6rjFwm1eiq6qkJdl/4w2y703XSd6al5yeYK4emV/XRRlHBQATC83YAB+xG8hj4MIYRgCIcuy1bMSycMQiqExk8YAsLrBX/nuBeDmQG5iXAvDv/M7vLBJZ7T4mUgJcD+D3v//9Kob+9E//tEZcEYmFjstcsAADBj4H7FhwPTgBMODlh2NQAMOBAfJVV111hOvr2muvVb17KQAj+uIHRte+/vrrdc7+OBUA3M+YWSTo9s5NYimqZr3EaL83u1JQJ1EA77kuNjcDwOamtFjIuIhqg8ZlhF+Y7p0O6HxXhttyTYbZOlPrtFqp43UnHcBF0WQRdYoPY4vkRV9/XZGC+vNtPH+tvbhFO7HHP7jGAxhg/fqv/7oCAdHyt3/7t1XM5N9eFzZu6kVoXCNwYABMIAcRUv/7v/+roZRcjygLQUCE3rJli1p4vaEJTooujji/EgBjBf7+7/9+jf4qHhjYNm3a1BfArCuEhEAUuBG/EdnXMoB77adekpztkSKhL4rQBmavonhg99xLy8VCOxDDZZVQw03x6ypOg2vJuLO6nqLPGAAriNsd5cwnDcAGKLPw2UKZ+OKpoad8fsG8+Ov9m54b9+LMywHXgx4AAxr0PR/IgRsHi26z2VR/LL/tsE2xf/9+5cCI0oAfvRXwAmIPYK4j+goDEQAuHjyDARgxmgPOiD7byx/L93DMK664QgEH8bjuuuv6xhRjhSZ0E3eXF6F5N+i4PId/Nq/zDcKB4fL9rNC8NzNiHY0bycTWXkD0e6LIXYvvygPUj2WiMt8vC1wbtCOy78agA+fNppRcwBAoVX9usEbpmCHRJZVEuS3Bz1FcjuMBbDVQUnmUpAbSCdNOAP3JEqFNPO4l6vpNaQtnwDWA91tQ//mgnLYfoI0DA1RzI1liA6DGF4x4yeLy24iFbZz/+7//Uw6HD9WMWHBuRGgA/NGPflStzBxYnTFied8qLxcgwv0Qhf/6r/9aDVwcxEtjTLKaWXwGt4VLQkxIKMD6y2cvf/nL1dDUT5TEgMY5iPxYtE0H5nxcPD45gTXl3xAUnnc5AENACID57//+755+YOb9hCc8QVWCo7FC+/3hbSBetDXweoOmvXOTljxQbd+YZLfifdQhlPJ62fOGNyuAywRsGBgpMhiNWprXG1NWlYHBXfkdAdw1b8WU1k4WorYUH/ycjEgsFQtiSVRbWPObGjU1o4AtuC1yEdieivYD4Uo+99KA3ctioXmJcGAToQGsuYB08Xu0JgGkfN4vkAMAY8Ti+Jqv+ZojAMzniNa4WHDZcH/AwJjoyh68nPuf//mfyt3vueceFcOxWCM5/NEf/dGSKZE8N+4efheNWAZUv474gQm8gKgsB2DeKSCGCPU7AK65pFYaiWWuQi+lecBaAIwRfuOixfflOfBK9oydu+j6TGTfe98le6/DD9yRrBWkMyUwMZuIf1crVWmTaQQo+U6TGFIpZyFU0gDM2JVqRVKkgBhWqTbsk8GBewHYgANovOHG6yO9KOqxAtj7ib0k4F+G6cB8Dxc1ABf9yEu9dCKhekViFQH8nve85wgRGnfNJz/5SY3oApxw8H4cAR8qojpBECQ0kBgAR8dyjsV5kKOfFdpfy1jo/xjWlgPwIPf0IFipH9gD2IDb5VKFm7Nu/bjqsQDYSwG6L9qZcuDH3vBmKXXaUpZcUkTk6AcGxD6IYzkAIzbrPWKaoRq9tErHSRSh7aENsAZio5R+kx61KBNfYK+XUxThjcsbkI1SG4CZ53d/93drWp7fcJ7I9AMWxiwMUP/+7/++KJSyCGB0YDgmOrOlHxJIAkflc/yzhE1ynH/++QpqngOgMg+in8hoQhSG+2MUg1MjnlIkgIPAD9IDOR/9FqAjTeBrRvT2AOYc7o2kYT5f0g6XAzBzRx3wSRWDAhnDHpb2nTt3DhwL7fVgA7En+L3sJisWi6OL0Ti9Xe+lxu7fnZJM3ni97MUKjRupVpWsCZCD9VjL4qD3psEQFQ4qvyRqxOJA3x2k3dxJ04GLD1402ZvI4anqShfdwGUEoCiCG0W2l20vh3vaNcQuW/wzm9dnEXmRe6kNCgAQRQGIZSOZDuxFaDiwxSsTc8zfABI9FBEXvRf9lIPPEa+JX+Z75k6aH9ZmQivRhQE84CTCC/EbMRa/L7o75yNRoI+jA2NognAAYCKqzA/8xCc+Ue9x3nnn6dzJX4aoQBwAKmmFRT8wz4oIb+WCBgUv68kaMS5zNSv+IO+96IlYjhsPOqcisbZ9WoxH8BJcyQE4azVEajXJWh2p5EngooRUKjwXwjh07+nGi5+57Lil5nrSAOwX2P7uZ1EddLE9JS4ax4oiuI3Zy7DjRS1EVsRmDqgm41itrEE2VnHuVlKnF4DhWoAdMCFKci+ir57xjGd0rdBFNxJAhZPyHMRPE1xCQgPGL34DYHJzf+VXfkWnAmARfzmKgRwY2zBiAXAqgfA+GJugkIsuukg54zd/8zfrdb/3e7+nOvBTnvIUufnmm7uBHNyLbKSjWZviWiFJEIc9yFhGrIscctC9UzzPS229CHtxTn4fldKSJvR7DpwD4CR0ySAZ3xvK7N6DhFIW53lSAXw0i7uUyGpiuRnBitSzSCA81fYSgL8HgQuIpv4zLx2s9BnIMrrmmmtUJO1lxGKO5OYS+cQBYM4555wVAxiODbcGwADKqmpwT56HDdQrEgu3Fy4lcoNZE7g+QMVnDFdGLMayzr+ZKyI41m7Go2DBhz/84UUJHitdH38+WU+41QYBsGcIx+N8k66KkW7L6dDKKIjEIp3wOqzQ85LCWomksjavuoGCx8h7mOLHK1qyUxLAntP2A2VR7ylyYAO7P8+LRcbBPfVd0couczLj9wIwPmV/mHujXyBHPw5sBAcAmxHLSyX9AMy9vYHFPAT+c8tGQorwHK9I5I51vZijFSw41rF6cVhPwHtJf761jV3fD8CLOXCiACYbCTdSnvdI2j9OD7SmAewXxQOp16YqclszhvG5d0cZpS6K2P2odq/SqktReD/noiGuuEng7l4H7hXIYc8NF0R8fvOb36yPSmAEsdD4ZIsiNFzS7g2A8WPDbe0ze3bUAwI8CORgLNxdS4GQ+fPzy7/8y6o/F4varWRPLqfS2FwtZW8lY/cCqxF9I0S9gFh8r16M9vvLn8f8NErKVfyUjsj+974zlNTRAJ8jk/aP5Xn8tacEgG3D+Q1YBOVyAPaAHnTxeDn4JclR5SDsEStwPwCjsxHvDCC4FsChNyPOkr+L6GoHnwMY9F4OamARWdUvOYF7YhgynZDILSzRGH0wOrEe3Ac9FtAi4loVDuPAgO+lL32pisL8jVhNlBVGKjKlMB71AzBZStTbwm1k1/WyHwy6tkSJveIVrzjCbUZcNvXDsJazfkgk/dZk0Ht5cBlwPQHpBVQj9PwuSnPLiuha1O6dXQ58xgB4KVCaKGkLazprr8U0F9HxMIr1S2botXnQATHikNvLprB8YB/IMeimK56HywiOiRGs3wYq+oFxAQEAK6nDmBjk8BUzP8rDwk0HOTBiASgzYpkfeJBre50DxweoRS6+0kCOXmN770DRHtJLGltKGuD8YsDMss+8XCz0sgMMfsKa4sBety1SvZUAuB9FHXxZwpmM4wFMMAahlH5u9jdcgsqSuHH+67/+SzkiwLVYaPzHcGc+X45zMVYRpGx0yyUeFMBwMwvkMCu0AZjnwzdtn/dbG4ugwjXF+RTe4xqzQve6jvlxnb0H/zz2/BjKkD6KVT2QdogXx7eNNMH6rZQQ2317Efmi6Fws+lBcW2/cHHj/nKkAZoF6cWG/6F6XMfGmKGIPvNDLnFgEMDm6uHj8Ya4WNiR+VMrhwIm5llRBvkekJToK184tt9yiQO9XyQNqj15cLMkKEL/2a79Wf/odngPDsSE2cGACOUikYE4ewBTSMxG+HxCt7hei+7d8y7eoS4sgC6zkvpqEv55nQEdHAuFv4r15Ht4jYaGsBb5rfNNFox3XIDmg81OyCICvmAPGyRg4lxKB7Ry/x5YVkZfbYGcygHtx4SLVLOppx7zgfV6IB7ARi+K9ASjtT+AcNg8zPLHpsRKfffbZyrEIrEBsRRRF3+x1ADxK6uDTLT7Xcs/pwxC90c9LJAbg5cayueEmsmwkuwYrNEasIvf0z0OAB6WAiASDCBDrjY6OivEnf/InXQnHX8P42AGoemKVNW3dl8NMr+9tL/UK4LHz+1mVj+Z+3WvOZAAbF/ZGJ78Zj2lhV3gxLxcugJGo38HmwK9LwgAGJbiwVcEgW4i/ATK6K/+G68ERCfDnB1GRA98qeiacFoCboanffe+77z61QPvNSRgi+u7999+vXAtrtC9yx5rCRS0NkXkVa0H7+/H8K2mtAtCJ++Y60i0ffvhhfR4CQDAAGoApIwT4McLBgVkHuC7XWW1rD+AVvrbu6ewbr3od7Tgrvu5MB/DJAmzxRTEPNiTW5X4HoIBrYlVFtPyt3/otTT7g2s9+9rMqZgIidEhAygbFgEMgx+c//3kt0cqB2IyOyYYnnNFanfTjLOT4Alh/ELBBTDOAQHe88cYbFSie22I4+tCHPqSffc/3fI92ZOh3rBTAiM1wT4CKvk74JQSG5+HZPYAJaAHYBGpAjIgz5369OPCKAeQuOCl76UwH8LG8sJN5bdEK3Wsuvi70IOmEvYgKn5E/jNjezyCG6AtXg7hYogabGSNbMZTyeAG4X2F3Gx+9FhEaDkxBPogJBIt1A9AQu+MN4JOyH4YAPinLvqKbmqvCZzFhnPJuJAt88CCzWGiA5QGMX9eqUppbw9sD/OT4HJ2S7KZ+5+AzRjyHk9vBPLCGk4gAB7ZQSr43XbC4CIyDn5jDODkJEbiisIx7ERUA8/zo9yQ4WGeGIoDRgQEqz4sI7QGMdAIXR6IxI9nRGrFW9EKP58lDAB/P1VydsXAv/cEf/IFWvMCIhfjo3UjcFX0YAHk91UANGAzA/I2YzXdwJFL/ADTgQLT23QnN4m6+bgIsEPP9PbgOffSLvuiLFjU1syqKRnwMwFiFAVQxEstXGqHMLFFbuJGIBsM2AFDR/639KXPix8RW3/zMDGl8b64Zi6gzAFvNayMUWO0RvQc1uK3Omz6KUYcAPopFO8GXoOOR+cOGJK0PcbbIgZfrruc5sHE4rLaEVAJgNq4l9Pd7PERlopaKm/xoy8r2u0+/QA6f0H80rwDQegB7K/9y63c09zsh1wwBfEKWeaCbwAVMhIQbEHcMWHDHkO3DBkRUJLgBqyupeBin4DJw0mIXe7spG5WaWfTu5UAcxVcKgBEh8Z1yH/zOjMf5FsLoN/lyAIZLMm/O89fB/YiqIpOIeRN2ac9pc+T+6NEQKeaG+I0RjvKySBxIHxioWIt+wRaMgaUbYxr3Zz1xrfFv8w0PATzQVux50pqKxDr6x1idK9lw6HWUg+UgiIISrWxK4p1x1wBgi4FGX8T9g/WVg1Q8XzfLzxJQABgs1hwYcRDLscpCECzmme85D7BgVcanuhIAY5Em/hmLs9fFeQYICPnGWKx5tmJYo4EcVxjzwi1FaiNSAXNE7CfpHomhH4DRcZFWeD4CWmiQhr+a6xHhGWMI4KPfv0MAL7F2Fshh4ZOEUlpNLLsMUFA9gygtiqfjh0WkBiCAENeOPwx8ZqgyUGFVBpy98l85F06KfxhXkw/M4B6EHHoRmr8B1uMf/3j1TWNYQn813dTuyVjEQmMwwiDWqz+wN2LZczCWNTeDCADoXnoq90OisF5P3o1kVmi+JzqNCC/Tn+0+PAP3P+WOoQi9Nl6ZAdhaqwBgUvN8kAkzpRokOuuVV16pAGZzcg7iNuKi55j+b9v0/AbAiNy96kJzD7ggAOaHMcwyC4AJa/QZO3BD9EeCIQCw1YW2wAazOANELMrMmwQMAOyBCKD4zCKxzOLtuxMiIVhpXC96cy7X94rE8m4kvr/11luVCPj4acZCtz+aWOiTvnuGAD7pr0An4AFsgESE5HNAQdtMREC4LOI04iIbHr2X82+77bZu5wZ7InRkRGtEW8IN2cwc6LmUakVU7nUAOvRHfhgbV9AXf/EX6ziUmmVOlMHBz0tqIqI7Yj7Xof/avCEwcETOByCI//0AzDmAizE4D/+xcWqs3xAK7kXUlQc+56Pbk0yxHIAR2y0izRM31oB6XL0SO9bG7lhiFkMAr41XVASwuXD4jSsFEOMqMc7GrPnO9EHjdF73tP5GiJPoyxQ85yCNDoNVsXVJcSVMDCYckwQK9GMDp/lQAWRxTjZ3amIRLcbBPOF6/QDMOeZygsujo1N4z3zffI8ui5urCD50XiLRBgGw3ceIpj0z4LWE+bWxIwacxRDAAy7UKp9WBDCxu1hdOQiBxCfKgXjLZjUAAxY2HgBF1MV4gzUXUZQqHBRch9PSdMys0NZelM/hXNaPqPiIJr5bczNfUgc9kgwfwjY5jyqVgI3wSsI8OeDyFBfg2bACMwf0TKQJuGq/yC64NQEY6PsYs0jQYGx+f9/3fZ+OjfRh6/ODP/iDGiKJVAKHZi48G0kdWLAR71k/H6TBnBGZ0d0B/il7DAG8Nl5dUQe25mZ+dpzDpob72eY3LowRBhcOAR3oz1izLSkfMZtYZivfaq1V4IhwYjhykat5AuEBXHQRcR6fEaABECyh3xvQmCPWYSSJQUrqGOFgDDNiIf5ixIJwcHzv936v+sZNhSjO36QHzkUUp7qJ9S+2Z7NQSgxrp+wxBPDaeHVwUVwdVhfarNDF9DTEYKzQRWOVr8hB+h2cb6m60LhjGIOMISpT2qY2UdzEYD7ne4gGInQvAGPcguv36sxgBIa4bOsPjOHNkjZ6EQ7uac/NNVYTizJBNAxnjgZgyvksd/QCMNccz2yk5eawat8PAbxqS7uigdmUiHsGJqzKiNH+AAyI0MQdI87CVQltBAQGYD5Hd2SzY62GyyBa9mqtAkgQVTGAcZCIj/iKrk0NZnROxkaMBSjcG8NVEXRwRzglIioWZmpecQ7WXroBol8yDwq1A1yCRxiLHySKYgYW43EtIjKiN0SDuSIWE4FmRjTE4n6WdL9u+H4tBdM+Zy1pdMYYiOan7DEE8Np4dQCYH1wxbFCCEPCbej0RIOBGgXsisiKWUlLHA5i/EY2tRCqgYvP3AjAcE53ZYoaJs8ZIBIAAqvX5RWf9n//5Hz3Pi6HGtfnNWICC+1oxekTm17zmNQpg5gEh4XnM+o01nWCVYqqixUIj9uI/BnxW2N2K/jGeNTfv5Rf2b5V527r6z5kXxGqlZXTWxo6JsxgCeG28Dm8BZZNjvcWK67kdG5XADaKL0CWxTFtRO4xWJDMUqyqaLogxy7cXhUsb6BiXe+IawtdqNbEQwTnQmRFDzUrsV8ySBDxnM2ATiIIqwDlF1w//xtiFKMzc/GGx0HBHwi57NTfjfFsbP7bXff2Y9nk/XX9t7IKjmMUQwEexaKtwCQDGIgxXAihEDFkfILsdm4/QSURjRGW4KkYrQAuXhMP1i1KCY1PAjYOsHusbTIKAiahwXNNlr732WuHHAFzMB6Z6BiIoRiTcUXRJMM5qRqhXvvKVR9TVgjigxyL68qyEXfYDcLEqpU9mIKYa0Z91gzAh4vM3a4b/Gg7N/FBDPIe1dWMteW78v8dSc3oVtsLKhhwCeGXrtVpns6EQmbHiAgCqV7zhDW84gnMBFDY27g/0TorZcT4uGoI8+hmFvOgK4AE7Qf408sYoxhgA0ER2xFNzu/RK6MeoRdgn80D/pnCclfexNUI8LebX4tLBqo0/+VgATPNxCBL3RAS3pmxU28CqDoHAIAiBMAAj2kMkSZsE7Pi28ZUfTWfD1doHKx53COAVL9mqXFD0AxPxhA5ZFA8x+lCwDtcHYjab0Hya1t3eCpSjj/LD2IAWkZnDdELcPnQeBIz+PvztwYcuSgin18cR5SEwEA4ATD4wYAKwFnBijcm5J59BFAzAGI4eeOABefWrX63+an/ANRGdKe7OPciFRgfGqGbcmlhufL7EbSOJGIARyQEwz8q1L3/5y7vPZlIOHHtYkWPl23iYzLDEmnkAcxqBCgRJeI4KAEjzwxLbD8AESpCKB5ch3hlORSQWVmWrjoGei34LR4KD+koa3BvO/F3f9V3aKhQwY8VF9PQHlnCszYAXIkFVSAtrJPCEeZOITyUMwAInJAgDooHYCtC5jnGM8Nj4uKvg0oyJqEwCBWMzL6zaHERfAXA4LcTDKnYQpMKckCYYgwwoW0OIGIBH9Ga8oRtpZSAeAngZABN4YS09e51quiWbj2wkAhngwBwAF5ABfIBDWh8cHCsu3AsDlXEvqlUihqO79jLuAAbK8QByM3AVLbXW1cAqXTIHCAx6NAkIHPwN0WC++LjhiHZ4fzOfeeMToZTcH2u7fcdv75uG0yKBWCCHjWvjWE0s3GQGYAvLNMPbEMBDAK9sBZY4Gy7FxrfY4X4A5jxEVURRwEn5WA4raYP/GN0YvZZQwt///d9XAONXxfLMQTAI4YcAGO5sYrbdc6WtVew6AIzVGfEX0DAPa/CNvgqB8kAzUd7cWNZG1ADMfBG9+Ska5zDa8fxF6cHG90XtACyc34iR1ckeAnhl23fIgZdYLzgSIiOZQv0OE2cxdLFxCSu0tDwACoAQHTEO4VbCn2rlVtm0jM9BHDIcHN/oO97xjm4W0LECGKAgHmMtZq5kD1nXBwsM8c+GtRiAY/nmgFsjJnsOjCSBlFHsqoDuzfMXP+8FYJ4VmwJiO1Z7JAEIzLAq5RDAK1uBYzwbkBO44UMpTazs1dxsqbKyiKdwPmKh8St7A9XRcmB7PAufJJ+ZMMh+gRL4gc2NZHnFJBh4AMPF4eordfUMy8oe42brcfmQAy/DgfsFIXjdFwAj+vlkBr63qopwGBIhLBaaaC02v4/Ewi2EeAqAqVNF+KY3lpkObCJvUXzlXK7BWIbRyB9e37RAjn6PjRXaAxipgYQML0ITC90LwLZW/YiDb63iK3KQyYW0wvphfUeasbKySDCn3DF0I62NVwaY0FmxGhcPSsrgDmGzwlkIyrDODDfffLOCDzcKrhPAB1dFJ7Y4YqyvvsE34veOHTt0PMRtjF+eA/M5flqLEWaTY9XGWgz3NyMahjDLD2bOWLXxKxP6yMH9EfGLCSioCQAAIABJREFU5Wvs+dC9uT86PfcsAhgpgfEJGikCFSIEAemVzMB6MEdK15KlhURBXDVjoPdbQzh8wljJsXIT0cZ5w7rQ/fEw5MBL0Ao2OSIvYqfnhvzNZ8XuemxCNjD+WTgk13PgQyX0EF+xHYxBsAM9g5Y6bBzj+HYuSRboiwDMQM2/ATbGNOPQ+H2twTfXcl/PkXvd284pAhjub1boXtfh5iIpAo7NGAZwG69XRFoxnBPVAUs5BBEQE5l1yh1DDrw2XhkbD+DBwTjQaeEgcBJESJLxPXcgg4dyNQCZA98wRim4FRZfrNP8jVUaDozoaMnwvZ6YzY0xybghQOVaDuZFLjH+WcRO5ooYyuaHk3uOigSBG4vxmCOiPc8AJ2Y+/gDwiMsY2DyAUQOwxsMVewGRMXCLkQqJHxgiYn5g4+hFlYD4ai8i8z1uNVxxzAHLvFnB18aOGHAWQwAPuFCrfJrXadlcWGThsHwOcI3D2jQoTQMHskgsq+joOZEl9BebjvV7FOpeEfjQSwf2gDBQmR5ajBYzLki8NeDn37iWig2+fSilB7Bx737zZDwiyFgfxHrUCCzf6L2oD/i5/XytwXdR3DZfNPcxY2A/grHKr//ohx8C+OjX7nhfiQ4Jt2Tz+WwkC0DwIDcAY6Dhe5Lq2cy2KRnDADyIBZfz4bK0LkEXJJDC+20NVB68tvH9OhhwmAcAhhBxWEK/P9cAjIGNcZE6sEJ78PVbYwBMCVuemQQGivYBYPRyRGNP8NDbqXNt62Dje6Nhv4CV4/2Oj/t4QwAf9yU9qgHZcIT4kSbIgXWXKo1sMnzDiLf8jRhq2TcYrkwsRU+FAHhjFD5UCzdEf8WC3e9gAxMtxX0QS9GhScDnwIDFfRB5CZ/kQMQmNhmuhu+ZyCxfqpV5IE5b/q71RiLhgoQMwIZB7tOf/rQCl2ej4DtBG0gMPBv6vOeIPIOJ1Yi9ZGxhCCPiDCMVKgSEj2IGzIV1g0iYFRoAE4qK3cCeAf90v44WR/UiT/RFQwCf6BXvfT82PG4XCsGxaUnlIxmev4k4omsDIEf3g/uwgYmyYrNy7fvf//4jwgqxNlvDM4BihfH6PTG6JyCFo9u13J9gC7NCk4oI2DCIkUyADgwo+DeA9EYruCM6NWDiXH4gTMRYU/kDvRhOT3wzzwDBAeAEn+D+wtLsAQxBgyBxYETDsAfYsVQT0MG9sTozD6zN+JAxhBmAIUwYrCBM3I85Q1i8Hr82dsMKZjEE8AoWaxVPZfMRe2yF3QmAsNTC1WhuNsijmDW6V1VKfNEYgDAgwUFJigB8AAMCYIUFDNDowIjRAMhqYsE16fmE6M51cHnG8s3N/DytqB3nWix0v5pYw0COQd7wys4ZupGWWC+4K5wWwxQAIM2O2GhA5AEM1yAIgyQCQEF6ISCxSCzGgfvwG66Eb5jv0W0RUVd6cH9S9yi3Y2VlGQO9EokBXZx7kzwPaAAXccfc18Rk48DkO2Mtx6iEhRqgkipIGVgODFFYuvEfY0mnL7HnwIjMWNc9gBF/sWLzvJwLl8XazBpAMCAQpD4itRT7Aw9DKVe2G4YAXmK92JRmceY041wewHxm9ab8UB7AiMGIlhSos6qUbHJvsBn0tdk1NhdEZXMtURWEzCmimNBN4cSABsOSZR1hxCLWmusBJFZoAIwrinmacc7GhxBgTSdCC6JFkEXR+m3GJp+NhAGLOG8r7M7cOMwib9ewvr7B9xDAg+6EcN4QwCtbr+7ZxoEx2BQPc38sFwt9lLfWy8yyDYARcxGPASEBJiZCkzDA/CAeSA5mhYbDQnSwaANsjHRwYHzc/ugXidXPIu0BDOcudmbo5Q7y/YGHCf0r3xFDAK98zfQKuJjFLtsQiKuEU1pDMwMwRhxcNwQpYCwiBLNYehUgmrUbDorrRilskuhvNjeJ9JSs5QCkcEZEVRNrCeQgJZGMJ4xVpPdhAMPIhsjKgTuH4gGMRyDKK17xCr0vnM+CVOx5ADD+W4xSiNEU0cNo5Q/ugxgNqD2ACVDBOIbojB+YEjkewDyftYDxHNi6S/AMls11lK/o5F02NGKdvLUf9M4ADqD6TYm7501vepMmKcDtDMBwGc5H/yTM0KzQ/l6UiCW+mvEAO24pQGHVIyEOEA2LacYybmGYWL9N1wQYVj6HlipwYPytNFQj+ARg4Y7ifM7lxwBs9aw9gNGJzVVGVQ/LdbZzAC+Wag9gjFiMxb1xI2F5Rt/3nJu5Y7Fnrh7AEDbmBPDxJQ+7Ey69I4cceBnEwql6ZdcYuPzlbET0TSsrawDmnGKAgr+O7+B0cEzudcMNNyhH9BwY1481RuMcfMxYjs2ybISkmBEFgDDCYVzjHKzoEAo7+KyfCO3nSCkhDHpwU3+g5yIuG4CxgnsrNESL8Mpiqxgs5hji4O74hqmKaQkWBnQkFwBcLMs7KJE9aecNOfBJW/pFNwYMgAmwFA82MqKrj+XtB2DET3zGhBfCreCAVszOwG0ABlDEUwNgz93hZmTq4PLhczgaGxwrLiVq+AwgELeNKEyABAEUzA/LNADm4G9SGwEJfmp8shCHD33oQyoh9Dt8IIc/BzcVgSGMR7EAgjB8fDigZK4kJjBXVAjEefzEiMiciyQD0WO9EdGxTvMMRgB76c5rY4f0mcUQwGvj9bApcXv0qokFN8QvjAhoBwCmsDtRRUUrNJ9jhcb4xY/vvscGBcAQBbgNnAkOxRie0/O3cViCJxC7GYcADLgy+i2xyLiz0I/hrNYbqReA4ai4kTh8tFi/1TcfdPH7Itcvfm/PARFAAkCMZywv2TAG50EMkGIgVGc6gNX6kfP/HGuI5CUkOdE9EtY8H1qhlyIVbCgL5CieR/1lOJnnwLhj+IwsGhYYDkmpHNwzAJjgC9w4/KDrWf9bNjIiJiI0BxwYizKfM44XIQ0scH+4FkA19w8A5v5sftLw0MnhetadsMiB0dcNwCeCZEJsELEBcL+kfyvMNwTwwhtRrwZENqBZypVyVzob6sBL7FzEP2KEMUoVD9wulFH14IJjwH3pi8sBmAAqBijABocmu4goJ65DTERcxMgF10Sk5XzEdstooh8TARYQEx9JZa4qPrN4awDLfRDZ4XZYpPmebCZEZA6CPbD0mh+W7zGwUe4W33HxgIDBxRFzsUJb0zU7j9BLein1AySiP75jpAEPYOKhr7/+ejV0+cMixpgf0kSvQvQngtgc0z2OVoROEoHrZnmu7ycBqNqEva3Ahf1yRqkUAM0xBPASb8qLrMXTTJw0IHkjlRljbFMbJ7UxLFiChH6iqTgAIZ+juwJgRGjGBvCEK1pUk41BAgNgBKwEctg8iul4jGmBJvztAzXwAxPIAbi4Xy8rNKDGKEUgB2C2KppmaCJgA93e7u/Xic8gXhixkA4AMAY1ODCEhjjwot5tJXVwk3H4QJpjAtWJvLgA4FxK3bsHp2DvQ/dUKfTEQmRul3IpVyrh5CyXpJMqoBXIcOV8COAlX6tZoL1+aAaVomHFgGOczfQ+bgCX8xvcrqWkDu4Uyy3mPDY53NAil3AnYQQqzgEAAzoDcFGH9dZpnoN78Bkcz56LpAGLxIIY+P7AxvHRr1EDDMC4pIyw8dv3RrJnNnBzPwBKjS8MgcaB6c8ENyc5pAjg07GsbJY4ACuXdTBWsIYDXTfHNqC+/0RaOe+tLJVyRXJsBGk414hap90ZcuClEMxCwSXhgN5Qo4sN+YuHB7NxYgO0576ch9jNpkc3BcD4VfmcwAX0WkRoLLUEOXBgSSaAg8MTAUDAOQDY0hcNWAAHTk5xOiMONkfUAVw/gBjDFjowFmL8y1iUCczAkIR4zzgAHHEcLo4YDeAgKGRcQQw8gFERMKwRPII+z7wMwOj/2AuwwOMyIsQTG4EXvZk/QSycY+GhJ5JxHrd7tUX233iD7HnjGyRvNgQAdyW2YJfq/jtrdxZuC26tayQhuma+ShIpQwRiaC8DAOwOHPm2HRct7MTj9gQLA6VUZ3zms+S5118vtTyRPIG2rL3DAOnBCAjZ5LhejPKx4azouQewvSDGATRseA50OHJz7XuzQhMLDXGgERr3gfPg0gHARevsUm4UAIxLxgiGUWcCRjAEAWRffIBUQQr18QxwYNIJvfSA/k5ElSX02zOaH5jkfK7p1V6UJAWMdbilSJUkN9kD2BM9XElU6YQ4+MMI4CnnOvIPUQQwemu5rJwVug+nNSt82lqwAYANJdRRTM5K4QN0Ynh4SYJ4rfw5GjjPaAD7DeW5qoHNAIzLCFASVIA46ZPkiyD2bh+uBzwEU1CHCq5jyQyIk0QaEc7IgahMBBYGI8RWzrU5GaCL82WecE0LmYTzYZCCYBDtZVUdmTfWauZDoj0iOn8T0kkhOhN9GY/oLZIcAKA/BukPjHhNbDWgRcQnFtuL0H7+GOne9773qVjNvLGk+3lwb/zK9i7WHslfPKNFDKAjsu/Gd8nkm98qaaMhCWIyhicAiRU5WpUBNFw0HMFZxH/0fScibQmlmxT0qEE5TDjw2xhhe2ZzYG+kKm4UE1fhUuYHRiTFMmogLYrOfgOaLsxiY50mnBBA+cLuGHgsthlOhEUX8GG9xvrNGKa7AjhEVtNtISKI4YilGL34NxyduRKPzXnk9nIOIMVnzXgQB7g2f8MBsQR7fZ17oAsXdVOfD8ya9OLAiN8QKsaDY3PvfgDGWHXTTTepxIEFHn3Yz4N1wziGBLEWuXFRYvP6fzlLZO/7bpB9b3qrZHMNKeeZ6rZZOZE8yxXAtt+szNAilUztJhVppW2pVmv6bssYIBXAWXAGx+O05sB+UYrU3QBm3M2LkX7DwDHRQ/merB78v8VrbTFN/PNcmb8BKVUsAYwHsOf69rdteCvsjggOhzLgmghvRiYsxOiSHOiuiOjooswXbs5viA7ZSCZKq1iWZRq3jQ5cBEiR03N+PwBjhS42Pfe8yUIpi4XqPYCJp8Y24O0H/L2WAjmKe8n2gNVLs+/1vQDgm65XAKeNealEAOfVsiRYjmNATpZm6tOF62b5gjFLzVzBn7Ss4HFaA7hYNdJvYA9C47YGcksgYPVwtZCix2f08sENwgGn5Kef/5NzABdj9wMwojVjcMBpARyiM2I1kVnM3wBsPX6tETjAAIRwKOtjBIcHkOi+zMuuIfbZuhPajuBapALON/eVBZYgGRTXrh+A0XMxXPU7mCc6NVZnDwIPYAiOFQVAAmANmN9aAjDz8QS6F4CNECZZIvtuul4mI4BLaUeAZ4pkjJU5iskAWH26BQDzAdCtmFKsMnMwfhWPUx7AHnRFzmE6qP02Llc0VBV1TK/HIi4ScgiQCIwAzBzoesQgm7HKL6wRBIAEiBFJ4cCEUsKBMSSh+yHyIjpyPjow4zEXdFr8pnBe6wKIiA0QmQPncw4RX9b5AfBxPoCBMNi6IGITmsgzFJ/bAEzpHfy7VN2A2ECosDT7ox+AGR+DWb+DeZDyaHOy8wzArAPEwjK7CITBcGg9hbE5nCgRupdYbHumCF57Dk/8PYD33vgu2XfdWyVptyUjEENCZlkquaD1AtxSqSyVTtazIETf9QxY1kPndKpaob3I4hfX66c++MEW164ris4mQnuQcw2AMyMWIDQRGhASFtgrod84PRyEzW29kYi0gqMj5pobCSs0IGVDE0Jp4ATAjA1AIBJwWq7FwMQz4GpBZDbO4Odvz8BvxgbAGK+KAEaExqKM6wbuTeE6rNDo+maFtvXqB2C/jv02nel73ldtAC6W1y2GUq5GOmFR1fEg9cSb+RZFZGWGak22YIoATK+iwYH3vPedsveNb5ES4M2ALcCL1ynXDXHtcGPk5ZV4Zrz+fEoA2PtgbRP6zVCkhn6Re70s+95ehN/wRU66XFG7fhU5GBuDDhwEnyruFd/cDOMNll4MTGwSwhs5h/kSu2y+WjgiIiXnE8HED+dAVDgHrttv/nwOAeAay0AyIxb3pDIHxij8yQAYIxo+ZwgFc+MZEM9Za7gzujQBJhi+sDKbpdzWDPcR+jiEE8BDPLjWjGKDAJiQT6QFQi0pPIC77XimE3qJzeZtn/l9xN8WAOPn7YFrYayWfdUd23Tg694qwvvJOuoK0n2HDtxXXln8BVcop05KkkbjVZcYqml6DXNgv6ieq/pFHwSoxfPt30XdtSh+G7iXA3DRpcR19kLZuD6ZAREazg0XRXTE5YMBiINIJ0vLwycMABgLUAMiNgtuFX44KMOKpbff8/nnpEQrvXs5iK1GEjBwMrYHMKDEqISlmo2LqI6rCgJCVQ1ATngnNaKLnQMhAoyPGE8rF+6L6AyxsYZvNq9+HBgCQNokejj5zivtTtiLYBeJveegnoh7QujP6bfGdk5RCillJZm88XrZ88brJJtvxMgr48EBxHakxEWg34Y8BUU3XBmQowIThWXERAFbLqlFe03HQnvx2BbVL5ZfdK+DeAra78X0A3Avosg8+gHYAiKMA8KJjTqalGBhiIjQiLFwYMBr7UW9iEaoIX5ZrkWUhtPxNzmzcKLis1lZ2UG5kxFEeifBdf2m9gAuitlWVtavD6J3r/ai5DxDcAA8kVo+kIPn80SyH4AHZE59T1tKPF5uL3kAG3Ow314K7KcPd8fvJArgvW98o0ZiEYLR70C4xkWkgRmJKKctpyFwI4splxr4oelImeTlkrqjSmn47KSJ0EW9tejGMR3BA842gBejTf/whihvtEIM8nHBK9kgBmB8q3BVNi1/cy+MW1ikAbBFXnk9iPtYOiGcmI1N4IKPxPLPiJuFfGA4OnHJhFbyPb5SCMEgAIZzQSQ4H6MXxiCrvdULwBQNgFBAfCAyxS4SrJ11OoQjA0JEaw9gJAci1VgT0imp+8U4JDDQWoa/kSw4j3V62ctephwcDmtF9Ew8P5o2on5PeKnNiGmXe7kXb3vF20W8DcHvJZP+ujorQRauVlnP/bRENpIaljVcMgZlZJlUa8HXy+ekDJY6WQTwwuiqi3dSITorK5ek3E7VHXXSAGwGJg/cXmC1zzzHKBpFvNvHXpgXkT1XORoAY7hCn6MuNJuV8TBuGYD5zkRpryP5qpQEUsA14dxwQR+gwDWW0I8I65+nl4jO/XtxYIBiCf2Ah9Q/RHjjDNzHc2CewdxOdFywZAa/RujgGJKou4U0QmqgBzBx4gDSNrgZ1QCjrbtlZ0FM0O8ppIe1GYmD56ULBCmPxfc4yLsqqj62/ibd2Bh2XlGfDZFO0aBkccjxIvvcDFnLAtdutgSAAV+mCUWx3lmro2GWigO+A98OwCYqVzkHABMQUrFiCMnJATCyvHFJz02Leof5Io3LFsXFIkf2ItIgL9+f41+wp95sWgDMHAjkwI3EPCzAwzi8idKMyabg+eCEhDSaGwndE9DAhX0MsAEYfRPO5Lkt9/WGMpsbY8FBudb0RJ/QT58kOLLvMcScADCx0BzWG4l0QkRa44i2ybl3rwbf/5+994CzrKzvxr+n3TJ1p+9sY/suC0iVJoIFYwVLLMlrS9GPvv711SSaxNdoNFhiYjSJUZPYXhWRiChWlFgAiYCIgCy77LKFrdP7zJ1772n/z/f3nOfOmcudsm3qOXyWmbn3lOc8z/P99UKLNl1N1ONZOpbJCZWMinGCzHHrihxMxKC+TG5MHZn6NNWEkwFwOWGPE9A494wTMZ0dVmn948S+0v6a1b7yIX7gng9/DGGhCIgbKTrIZRnYEQTiifALrgK0pRIe4Cl/s9aF9bhLlu7IjUSRW2Ki58ONJI5qnbQcmeTjIoyexPLJLOekJz3BFVYhLv7GpQKtA/PZ5KIawAzcJ4h47lS+YOqy3LQEMK/VkVjkwuVB/DTyEBhxQsBnMmOJIYpxUPNzgo/RS/QDMzGAn2kAMzSRhIOVKPl9fN7oa6YFme+rAUzLM3+nxECfLetSUWSeCsDMlqIRjRyV4GeFkfLADz1egoV1sphdxA3L5H8SCwKfnJyBLDR2US+frT4fX75KAI6rUOVMoZxxxDn0qUhq8fWBG6Dr1q+j6+8+Csv3aM4uhT+qeKtQdF5alyFisQKwHF5QMlOLiynKXlKJELq4TqzJwHwAWCxsMS6sqUycYpcvUiVQz4oaTnFSnGDExTBN6fRClwOYImD8nJIoFMW3VtoQ04VSTvcOvLfuD1x+nubETFIgp48DmAEkU52vCZXW4z/0oQ+pTRK5ORhHrf3AUwG4XGyd7h3IpUnIdO3quN4Zv+5UwVNpTOWeBj4vLl2cyv6Jr7PeS5opmT5KAGYgR8o0RIoSYhJZl2m4kiwjP1RJDo6lbqlzfhmlNYsBzgsH1n6wOKUsF8Hik68T0E90kcsXNX69fnackOgF0AvNMWgAkzvQEEWXSHwTxgE81XxTNCUHphFruljoStezKDv1w6kO6rrayMUgCFq7yYHjR/y99Od8B76bbrnCz/mZTiekMYp/09VFbk4dmP5hpjxON6/l44y3VpkNEY7fW8/tTPs4Lj1VOrcS0TjRvaSJXFxyLP9MA9n0TXTd+jV03fARGMUiHFMVUhAAixFLRWGRn1peoGpdRcYxnajApIfZ+IvnFcDli6W5SqUNN9MiVuJ85ab/6SiyFrX0Ro5zYB0+yVpWTIPT58x2THSr0OjEmN84gAkKBkVMd+i44PJzmLrHcEOKsRR/OV5ukrgILgTd94UAEJA8KG6zHSnnQsdV09DFqhkEqubA+nxGalH0jXdmiK8bc5EZ6zzdQRBzfmkb4PzRvTQVgEhAqB+TcNDqz2srrVv58/SY4gA7VW4bZzCaSExFsLXxju9FP3A3/cAfphspD8dy4AmATaksqXMByY0J4FM55hXAM3GJqV5sKoDHKXG5/lxulYwDXlNSXhMXhzQHphGLn9PaHC8jO9uJ57horKGuHAcwY6HpMpruoHuJG758rphYrwvI01DF8TEhgByVaYT6IKiZTcW4Z74f9U7d45if615K1IsJRkZAUYTWANahjvF3iI+FY2Pq41QHCRDjt5nMQGJDCYb3nwrAPI+cnlIECRxDUWcDYL2GJ0pcNfDL90tc1SiX3PiMqQKBBOC+KemEvR/9CFDIwwiZ9+sJgEuHTgmMbEGz3Uvl5y0YAM/2BbTIy/MrWaXLRRy9sOUALhcD49Q2PpapysrOdrzl58UBzHhjNume7qB1lmGW5QSHbh8dC62/i/cH1p+RIxOklepC63TCeCBHOYBnes94SZ1K58bzgQnghVJWVq9/SezVImzMHlDJ4FWJq8fBLtcEJroYyBFxYAJYVaBTmUhx0XjmhMHpV2BRAFhPkH4VUr+pxKNKFDVuVS7/Xvujp6LyOm1wpo082+9pFaZISqpOqkyr73THVLHAdDeVx2HTnVRekof3jr8Dv+fz45+TENIqrueVoKtkWa80Tl4bd1WVn8P55v20DsjnTyfFxNMJKdKfjK5aaZzlInCc0FfaM7xHJdtLufSn/44zBOMEIrFmu2+mOm9BA1hvorgjnS9yOgE81eKd6sQm1y+cGYjrx1qHnQ2AtbQXl/SmAvCktz3ZutAnMWULCsDT6bB64vU7xrlq+XuXf5eA9CR2xiK+pJzbTqfDxsXfStLDVLaTaadnOQI4LiZra3Rc74sDuBLQ45QxAewiRt9pGHpcvy2P7irfGzMBuJxxzGp4yxHA03HW+KSX68Ma7FMZoWY14clJS3IGqIKVJ0iUi8Baz41/fsp693IGcCXuWskfN5uggCW5K5OXmvUMlBs6K0lm5VFUpwxeji4BcNTcKSp+G08JnPXqJScu+xkoN0KdamDHrCd0OQO4kvm+XOyZ9UQmJy77GZgX1Wq5A3jZ77pkAhb3DCQAXtzrl4x+mc9AAuBlvgGS11/cM5AAeHGvXzL6ZT4DCYCX+QZIXn9xz0AC4MW9fsnol/kMJABe5BugLEdsco8qKaqiagWrWt/JsdRmIAHw4l5RwWUJxCF83Y1ZXstFKEVUHFYARmpxv2oy+kozkAB4ke8LvyjJ277poMjWkVE+N9/KMQDLB1TDDGnXvshfNhn+U2YgAfDi3RQscdRZBH59cBi7en2MWQ0ICehIWq63RnDJulqc15ZCq+PCgLN4XzYZeeUZSAC82HZGiDBwMeClcM+hAn7XCYyZDkIjRNoDXG8cnh8gk8kKNzbgo9ofwbPOb8HTqtjE21IcmV3a43WTFts0JONVM5AAeHHthDAM0DMe4EeHbezrYztJExY89B8/gP5jhxD0HUTXuIWNFz4TjStXI1VVx9rfyBouzl5t4XntQGPKUgatRKJeXIuf6MCLf72GCgF+dNDHzj7ANxwMHNmNgV2/Rtdvf459O+9G1jSQD2y0b9yOs86+BKlV52D9Jc+FXb0CoVHEFa0enrWhClVScnTxz8eyf4OEAy/8LVByBnk+7jgO3H24iCB0cOSx3+DAHf+Ojt0PwYEPwyjCCmiuUj6jwLCBTC1azr0Gz3zDX8PK1qHaNvHstT4uW83q/E+tx8+StCzPyiJvbJ/CvsAsHctkdX7OgnTM2GKbE/5klUldpI9J7Swsz26Hurgcay2zAB7PZVsVFpljLyWd9aUL/XEVvvKVr+CNb3yj3IPdFtkmRRfkkxrIUUMwFqNj7WgWzGMpWH3w+eyBzDGxgF9LS0upqN7CX+WTHGEC4JOcuDm8jOW46SrKucCnf5vDiG/DHezHQ9/+HI7c9x0Y8EDRmvX1payowDeEz+Znhochz8GO69+Gp7/izQjCNHbUjuAl26vRmJoMYIKKBdzZh4n1lVmjmmVmWSCdnQhZB5pAZtvPG2+8UQq7E+BveMMbpJwsy76yID0BRDD9/Oc/l04ObCvKgu7sLkhAn3POOVLpk//YnPu6666Te7NnE9uisPA7i66/8pWvFNCy0iUbnLFDI7tB8LmslKkrXH7wgx/E2rVrhcC85S1vwTve8Q5pHM6a0Loq5hwu19w+KgHw3M73ST8tLOK+nhRu3+vTYKGfAAAgAElEQVTBM4A9d34HO7/xcdjeMC4+byvu+eVdSDW0I7Cy8PJj8MZH4QY+ELioratHX1iDt934axT8LBqscTx7nYHLVlU9ZTgEBjs7sFMg+/heccUVAj7WlSZ4CLp7771XmmqzcRgLrbMDA1t4sn40G4uRy/I8ckmCil0Kn/Oc54B9m3R7VLZpIShZVJ2cmT1+yY3ZfIxtVW+77Tbh5OxjvGbNGnkeCQNrZ5PA6PI0JAas/0wpgcXjr776ahk3W9Ns2LCh1Ah9/fr1+MIXvnDS079gL0wAvGCXZmJgEqgxjH/4lYeRsFF02Ye+/1Xs/K9P4KyWND75vv+Ns7duxF9+/D/xrR/dBeSH8dpXXIf6hlo0NDXixz+7Bwe6BvHaz94Hz2L94wCXrnTxgo3pp1T9Z5/fl7/85fL5yMiIdBwk16UYzAbcbB5GcBOc5JgEDkF05513CvckVyS42NeI4KVIzILy7NV0+PBhuR+BzK6ELDxPrk9uza4L5PTsAEGCcO2118r7k0iQoPB5vNfDDz8s42ITb4r5q1atkpah5NK8BztQ8NnsJkEJgg3bKAH853/+p/RLXnJHAuDFsKQhCjDwj3cNYyxMwTBD7Lrjq/jdzX+Py5+2Ae99++uxsY3WZgtVDrmfL31hCx5QhI0/euf/xa4eH2/++Lcx1rgVVuDh4lU2XrQeSDNSK+r/ypkgNyQ3fcUrXiGiKoFLULLtCYFC8ZniLTknAUoAEdgf+9jHRIxl/yV2YWDnhs9+9rM499xzhRtSb9W9hckNyZV5D7Y5pWjM8whcAphEhC1Ar7/+emnNwuOiiy4S8JI4cFwkMPof9eMdO3YIASFXZ2tVitLsEEGOTAJDfZhcf8kdCYAXw5IqAH/i7mHkrWq4xRwe/96n8dCtn8bFZ2/EmqYadB4+gGc+4xm46JLL4BY93HX3PTjW0QHP9zAe2rh31yG87oavo7jxKjhhgKe3m3jRBiBlhAjZrjSaBgL4Zz/7mfxF/ZTA3bp1qwCKzbUpPv/iF7+Qn+TMBMWznvUsDA4O4rzzzhN9mOIvOSsbrRH85Ky8B3VVitZax6Y+TILAbgsEZl1dnfykAYock72c+I/32LJlixjOHnnkEXzmM58RQJLrUu/W/YPf9a53yZjZBoa9jnmfa665BuxTTJ2d7VGX3JEAeDEsqQLwP/1yBONGFp37fov8Pf+JFcUuvOy6F2PVmjU4dvw4tq5rh+/n4RUNHDhwDE0rV6Mq62BwsA//+h9fRnr1udj4hk+hYKRxSbuBF5MDm5UBvHr1aukeqHsZUfekQYsAYk8jis/kijRSsVk3G4DTQv26171ORF5yxa997WvCofmTvY51o3CKw9SnyUGp29LQ9LnPfU4aclOsJsf+0pe+JOClKEy9mQBm50Ma2djkm4SFXJ3gpWhNIsAOg+T+P/zhD+VvcnM2YaPIztaptGovuSMB8MJfUlqTrRD4h3t7MOA1oOfx/8H5Q3ciPXoM28/egkuvvBIdXd0w3DFUZzJw2QdpuIiGllXwkMev7rkPl11+CW7+8cNwr3wHRpxGXLHKwAs3ME5aNcLShxahya1ouKIBiYYpitQEKTmm5oT8m9yY3QZvvvlm0WXJgfk3DUnURcllaammfkoiQCMZW4QSnPydujM5NVuYkst/9atfxQte8ALRlQlQXtvQ0CAGKXJeiusdHR0iMg8NDYleTWCSe9P6TAJAwxrHS6BTOqAEwMZtFNGX3JEAeOEvqQDYB751aAT3H6tGrms/7H0/Q8dDP8XbXnY1rrrkbMCgLmtgqHcQdXUZmFYKNkMlrQLe/bdfhLNuB3IN56D5GX8oTqbnrHbxjLVPzU9im02K0NRhySHb2tpEJyanJOdkD18ClUYkirs0YrGNJ8GpAUwdlPoqAcprzz//fOGi1J35O3Vf6ry0MpPLUxQmR+U/gpn34e+8hvoyOTs5OC3Z5KzUven/pZ+aVmsaqkgo2NicFmnqyBTxaZUmVyaIKYbPtnXowt8RsREmAF4EyxX6gOHhUCGNz98/iMDIYnSoD+PHHscz0gfxmsvXIosxIOXAD2wEgQHPLSJbnUUuBD7wxd+is/UKbL3gPORSK7C5uogXb0qh/aleJAnAYBAFwcWDojABx+CK7du3CzfmZ+R+PGgJ5vnUSQloAp2iNi3FPMgtCRyCkdycB6/l9yQOBBb/8Z68D5/P32nwInAJZO0LpqjN7/kc6tIUp2k445h4Di3bJAzUv0kYKDrT8Eawl7fQWQSrPrshJgCe3TzN61kh4Bp52IUMvnGsiIc7U8j4OWkDi+496PzFF/H2l16EbZvX4c67f4W9ew7j6muuxKGOAdzTYcA8+zVwGurBZCTfyuKyhlG8eGstnCSZYV6X9bQ8PAHwaZnGublJCBwdyuNrj+QwZq+AFbjwYMEf68LOb34JHb/8JN73l+9EX2c3vvfLx7HpWa9F5tIXI2uuhJcehm/VYLXj4g/PT6PRDNg7dW7GnTzlzM1AAuAzN7dn4s7Uh/cMAj/cNSrRVWbg478+8Br03fszbDp3NW75wqdx/NgRfPwzX8MP7noQ173z43ja8/4EhYyFtnAIb7iwHq2ZAKFhJrkMZ2KB5vqeCYDnesZP9XmMIQYeHTBx76E8fnv/Pbj1I3+ETN8gbv3VL/D+d70Lm7ZswrotW/ClL38Zg4Um/Ok//j9sXLcGL31aPVamPMDwERjpCqkMpzq25Po5n4EEwHM+5af4QNbN8eCZDrpGge//4Ae447avY7w/h+e/5BpcdvEVMGwTP7njRzh46CC6Owt40998EC+47GxUBT5Cy4rK3Ilt+xTHklw+7zOQAHjel+CUBkCLKyOOmEbHmGMeTAnkPwZZMCCDluLkWKIzkAB4cS+s7kOru7vHm5InfY0X99rOavQJgGc1TclJyQwszBlIALww12WxjyouGZR3oj8tnekX+wSdrvEnAD5dM5ncR8+A7lavgarBzO91aZxktk7TDCQAPk0TuYxvw7BGrYMToFoP1z91DLL+bknGJM/X+icAnq+ZX9zPjXNVApiHLjqngavjj/X3CYDPwJonAD4Dk7rEbqkrSOrX0hw3rstqDqzFZA1a/TfPjQN9iU3R/L1OAuD5m/uF/OQ4h42Dk2Mu56j6My0a82dcjNacOC5Sl4P/RAxbemwnck18rssJ0kJehxnHlgB4ximakxPKNyX/ZjAGy9bwnwaJrs081aB4na7YWEnX5He8bzabldQ8pu0x1S++qeO+ZD4nrt/qcejz+/v7JZ9XJ98T3LpWFZ9DkOnxx8ccBzXzdzmG2QBSF8E7lfzeUyUAc7IhZvuQBMCznakzex43FUvTMAme1Sh2794tQONGJdiYY8sNzpI2LGXDShTMeSUgmTfL6hgEI4HEpHgmvvNvDQqex3sxF5fVMpi/y9I4zJVl2VgmxPN7VnXkc+Og5T1YkkbXWI5blzke5vUSgKziQQJDEHPMfA7HxkgwgpqfsxBAZ2engJ7j47NZ6J3XzgRgJvoT7Lwvn8nqmPxMH5s3b552kbR1nIRLzwXnW+vvLB6w6AxscwBgXa/F2LlxfVk76tMLCvbG7b7sclz99a8jFRpgjfPF0j2Em4tJ7gx/5IZnEj3BRu7FcEgWhXviiScksZ71oVhMjpv5sccek7Iz7e3tuP3222VD64R4glZvWlZs5O+sVHHJJZcIGFkeh8nwTLTnhua1P/rRj6QQHJ/Fg8/65S9/KSVwCMq4jktAMoGfY+OYeT0T+MmVCQQSId6XB4u3E+QEDIkMk/d5ELwkWPxupoPvy7GwgB4rTTKZXx8sZMcyOtMdHB/Hy3lmCR7OGwkMD4aisih9JWlhpnHN6/dzAGD9fgmAp1lpxjMTtNzI5C7kouQ0BA25JDcb/+bGIwfhOd3d3QIa/s6NR8Byc+/Zs0cqSMZFRXK7hx56SDggOTjrXZFbEuwE0Kte9SrhkKxNRW6oK2qQk5PT6eJy5bori9uxThXHxfsRnBwDn0cgk8OS47IyBg8WmuP9yn3EHC8JgS4IT+LFcjnlB8v6UPJgaZ54qOhNN92E1772tdNycc6PHh+BS6lD34Olf1iLOuHAEzOupTDpOU0ffsKBp0YwJ4tiJTkJOSA5re5wQO5KgJDDUpSl2MpCbxS5CT7+I0ciaAiOO+64Q87nZiSYuDEJSnJfEobLL79c6luRABD8JAgEITc360yxHjNbk/B6lopllUkWhOOmnwrA5MAsaUNCQ07J55OLawATnLyeBIfvSg7MnxTl9T35vgQZgc9xk/uXH3w/ApjlfVhSh0RN348AvvXWW0tGtvJrmexByYXEgRIIC/hxnjXR4PXLGsBaXNVyMu0XlgXXBKuHJwCeSdTixidYyK0IMFZbJKj5Obnw97//fQEUNx43I2s+ERT8jpuQ4iqBwe+5QSkac4OzvpUuBkdOQxGaXJpcllyI92DVSG5e1nTmMyjK8yDxIDDZNoX3jG9wAofEhIXteH8eJAYEH4kBuT1FZhIHXksiQh2bY+U78Sc/1/5hFq3j71MBmNdwfCRYJHIkEvpg6drXv/71004xdXtW0SShY1VLEi/9PpoDz6SHz7SGc/79SYrQqmFe1AaPdcFtVfRPsMu+VR7TTQHLNOGZgMnipQkHnnp5uZnJnQhSAoLg4iYjgMmZyMkICnJh1mpmmVWKpgQfvyOYKIaTcxKMrC6pRU3q0AQ378WNSg5MkPOgHklgaesuC6ITHLt27ZIF5bNIVNjihMApt1Zro5vWHfm3tp7T0EadmMYlEhFNZPjcOIHg33HrMiULcslyDszr+Y7kvCRynA8eBN0tt9wiNalnAiDnmPcm4dLuLt6DpWhZfnam6+ccoDM9cJYAVv0qY+Ix7UNR1JzMg2VKeWHOscFia34YFQKEANhgP/gEwFOvBjcW/1GnJIcggKkDEqQEK0VNiqQEIQ1PBBMBSmCQk/BgvWZeq41X5IYUtfmTYODikADQYk0uSVBzIxN0BDlFahIEcl0axzgeGpnuuusuvOxlL5NnTndoIkIA8v4cF5+vdXsSAy0ikztTnOW76YPj5PtSl9bF3OPP43hImDhOEintpuI5NL6xEdp0AOT7U4Ugh2fBed6P4+HButFLUgdmzW+pfjj5kE+ieuDkw1bKkRP0fBgCYHVOYBrClRMAz0BNyVEIUG4sbmZyVoKBPzVgCUQChRuRm50goSjJjUvxmQDUui2voc7Iv3kdKS1rM7NUK4FOzsv7c0NT3Ob1GlDaRcNnEYzUYbVFOf4a2lCmfcfcABT/+S4kBHwmCQR1Td6D35MD8rkEcLzdCYHLd+I11KnjvX/5TM4LOTfvoUvUan8yVQLefzoAa0s/x8N5ixvBKJGQiC16HTikvBt5YKKihWw9a7ACaSQWi8RjqNBXEaUJTtbNtkz4HvtqKcCTE7OtrWlb6pyEA0+NYO3uqRShVL6p4mGK5XeMR0FpESlu8dUb/ikUmYsV69Aw1Ujj4yy/vw7ikA0S3U9bMvVn8b9noGfJ17OZgXIRmsi0TMU1qdtGYjJ12bCgVA4NYH5vGoyaYzKKArRoxqYBn+vnB7ApeEf3WNYA1pxKb2Q9kRpQGhgarJqj8ftyAJdzPQ08rWOWu2jKATybfaHPiYdN8jMN0riLSm+SuI5b2ihhOElvVpLbYvHOn8hMzd25cTsEXKDvWzeh+yMfRlgYB7u6h5YhOq3ipGEUGWcBBVcZqbgmMS7Mv7l2lMqCIAQsAx4j6vxAjFclo/Ry5sCzBXAc2HqhKol1UyULTMVhZ7u94sCMgzfOXTVgy7nrVACOX5sAeLYrMb20VtonroG+W29CTwTgMIBw0JBibyQKyzqREXgqa0yYQwRgYRCGCT/wlf2EInTEhZc1gOMZO5wkse6VcZ5ygGouXL7JK4FSg0uD6GS4Whys8Wfr58fvXS4e62s1cdHx1+Wcl3/rNMNT37rL7w56H2kOGZfMZJ0CA93f+hp6P/Jx+ON5IPQniiZEQNX7j9Zki/X8g1As0mKZJoAZhee6sAXAE6Gp5bO9pEXoOIetJCZXAnDciFJ+Tfn9TodxJS56xQGr711JPI5vmHJCot8pTqDKgT1J3Ft++DupNy5XkfT6xFUVHVtuwUT3t25Ez4c/jiAfATgCpiLAKpSVDd8D24RFEdkLSgDWxLpcVao08CULYA2GksGAtZcj3S8+EZqjlYvTmkNVukZzsJPaCdFF0903Tlj07xp05QRGc1n9ffy8ODc/lbEu92vjeymuTpVLQPo7kxz41q+j64aPwii6CAMVC1+SyDQXJohtEwbBG+PAJzLfSwLAcTDEJ0pvbp31E+eo5UakOABKCxHl0Fbi3icqHpeDiWOKG8vKN4b+Ls5RyyWA+DV6jKeqb5/I5llq51aa37htYar3LfcyiAh9y43o/shHYbhFhJ4PQyzH6g7qdyUw+xSag1AMU+VH+UdaxKZFm+fL3lgMRqz4xMatu1OJGvHNP9Wkl4On0uKdiohcLhpX0k+1DzcuEpe/61RuoDiRWWpAOpPvo+e6PPy00vrHpbNyCUd/R0KsI95KRNqnDvx19Hz0I2KFNnxD+WxP0NLPhIUSkaZLiRybxjDLFI4dkAksZADHRZdy0VHrB1rv0GJtJY4V537xBdTUdTqQz7SZKompcd2lEgXXn8WJSFzX1d/HKbsmVie6CWYa/3L4Xq9RHKSVXINP4YAxP/xU3HlKANMK/eEbEBTGYfqzcNFpcMcitAhgJi6I64kiNkVv5nBbhgCYVuwFDWANxrgeqHXTcqCWc66pwFmuS56snqiv0+Mop+hx8bacEMW5c7kRJM6N45tMA3g5AO50v2PcphCfe/0czU21GlLOpeNEOE58y1WY0rg9oPvWm9B1w98JB7aCGVrG6riCyPdbipE2zVLQh5AAVhqlL9kyJILLhDl/AK4kYlayqOpJ1d/FdVft49Q6bhxUcStuXHw9FR0xLkaVi7aVxG2tg2uLsAahvk/5xqoUFnm6N/NSu185Adbg0xKZ2veqxG6ceE8lycTBHJfy4vfV50wpDflA9y1fEyNWyAouMa4q4GREVuQyomhNVxHFYeGuDPLwAiUu65xfZiDZdqkwhOxhX/mP540DxzexBsNUAJ5qouIAiAMo7v/UIC8nGCciivJabXTSG6P8ficD4DiwT0XfXmqgPJH3KVePKu2JcteaZgrlINd7Ir4WjPWmjhsnADNKQyUAfywCsAKbXMcMowlrlvh4bduB67kS+yzx0GUAZlQWx+BFSR4Uq4sIRLSeFwDrMLG4qybO0eKcSr94nBrGuXD5ZGpx9WQDFSqJ1PHP4ptBbwRNJMo33lTc4VSkgBPZ3MvhXE1c43spvj/ihLqcC8f3TqV1j++5E5pLAvhbX0PPh/9eAjksxjVHsGWABv8ix3WclABXsWOGS6r0QXJXsTJHHJjfie+Yf1Oa4L1s/j1HOnCP1MS6CQ5jOMUWPjkWdyrqVk5dyzd+pUk/kYkuv3+5+FXOpSttgHJAx59/quM7kXdZrufGJaNKBkNt5IwbDCsR0LhEpefyRNZPnytEQQB8I3pu+BgMz0MQeMoIpSiGCplExFWjKCu6lsidGdwheb7ESGT7UkkNkkcoSQ5yG/kxBxw4MAz0Xnoprr7pZgkZo3Aff9n473GRphwIcf3ldGxWTV3L7xW3/JaLteUUOc7tT/f4Tsc7Lod7VApkmU5HPWmuOs1kasKu94DpAb0M5Pi7j8JkTrkdAq5f8vWSs9LeQW4qYrDgOjJYRWkKAbnwLBbwjIvQAuDLLsXVX58AsBY9K+mllYBwspNeTijigKxkmYyPp5JYPBUH1vOciMaz2HGn+RS9xnE3nBaNK+2lE+Gq5Zw4fm25aD7JnuEb6P3Wjei+4WMIiwUEjonQ9YSBSVXWyLpMbisMg6GUMU+T3meVgjvKp++MA5hlZXuefgme/Y1vwow4sAZwuSU3bqI/ESPTVHsi7o+dajFLkxWLutKLUW4VLhexT/NeTG53kjOgJSGuVyX34qkaCOOMIG5wjQ9XW7q5d8zAROc3voz+j/4DwmIRYdpEUHRhs6yy1l9VDmEpeb9SbecFAeDQMOA97Tyc9+1vwQqcqJCPEg70xMtLR5UKTnIN5bKpOHUcpJXuH+esGuhTGaZOZXzJtWduBibpoCcY8VQ+qjihnsozUmm/TlxnYPfH/x7WF7+CMdNHlRifmBSsITuJ3ZZye5/CXWcxXWecAwvFOWc7zrn1mwicWqiCIRMvcDIizVTvVUnEjYvrUxGJcgo+nQ41izlNTllEM1Bp/2kuXonbzqTO8fsALn7+x3+Kdfc/ANFk/aKyHtMaRcvxaZyfMw5gjjW9fg02/tM/wbzg0jL4zu5N9CTHOTZ/r1Sxv9IET0UkdAsQUtkkiGJ2a7GYz4oTeC2xabWtkttxKnDz2vLIu7hR1Brtw+9e96cwHn8Elu8gVCbjM3LMCYAD24Dxytfg3L+9AXBshEZkUp+BFsUNFHGdWE96+UROJUaXL4QWk8/IjCY3XZAzoMEbX3stHk/lCpyOO+v9OGE8o3bogyrjsZtvhPsP/4bx0eMwghQCVqE7Q8cZBzDV9MAqombL+Wi+4W9Rd8Gl8E0Dlh/CtUyowpnqOBEReDr/azyEUd/3dBjFztAaJLc9zTNQvo/ioK0UiKNVpvJhxFWr6YYoSiH/57kYOXoIXX/51xj/zQOnxa4z09SccQDLAAwfRThIXX011v3NXyG7YTtsDxh3PGSh2nRqoFXSOypx0KkmXXPh02EUm2nyku8X5gzEjVCVfPlxw9R0Ou1Mxs/YxmXVHBTZZfLfP4HBb3wTqfGJapNncpbmBMCGmM+LyGcycF78Qmz6/96F6nWbEJoejBiANfimi7gq12M0kBOx+Exuk8V5bx3HXC7h8W8N7PJAEOE3J2jF5t4rDvRh6NvfRf8XPw+3q0OK0s3FMScAVlZnX6oPpNI18K+6Atvf+9fAuk1RlfkQDs8JlJ+sVLwgKkHAxAsdA85IMvq9o8gyMc2X5vt0mvfmYvaTZ5zRGQgYkjhR/EL2jQJo5Acx2PWA9hgDGm+lLTTDXqJBucCIKhRhdXRi/+c+i/Bn/wO34xAYvMRUv7k45gjAE6/i2yEynoPMWVvQ98yn4cK3vhtobkTRMQXmjDrTk6yvmlwSR8VSC5VMADsXe2TRPkNn8WkCL/WVhfvG3JgSBcV6VSf2mj4KsMaH0fVft+L4rT+Cc/QoMDYM2ysgYGH2pQrgwPThG8y2MJENHYzVVGOkqR41m7di7dYdcKpqSvWDtO57YlObnJ3MgGYCUd5thT5EJztHrNHMDpS9D/4G6eEh1I8OoWosJ6Add0LYkqdrCReei2POOTBfypY8KQueYcMw8/DMAA4DVYwARZqldbbSaYjOmotJTJ6xMGegVIfqdIIpqiiZlkJ0JjxYYMUcEy4yngnXNATMtPvMxTEvAJ6LF0uekczAcpiBBMDLYZWTd1yyM5AAeMkubfJiy2EGEgAvh1VO3nHJzkAC4CW7tMmLLYcZSAC8HFY5ecclOwMJgJfs0iYvthxmIAHwcljl5B2X7AwkAF6yS5u82HKYgQTAy2GVk3dcsjOQAHjJLm3yYsthBhIAL4dVTt5xyc5AAuAlu7TJiy2HGUgAvBxWOXnHJTsDCYCX7NImL7YcZiAB8HJY5eQdl+wMJABeskubvNhymIEEwMthlZN3XLIzkAB4yS5t8mLLYQYSAC+HVU7eccnOQALgJbu0yYsthxlIALwcVjl5xyU7AwmAl+zSJi+2HGYgAfByWOXkHZfsDCQAXrJLm7zYcpiBBMDLYZWTd1yyM5AAeMkubfJiy2EGEgAvh1VO3nHJzkAC4CW7tMmLLYcZSAC8HFY5ecclOwMJgJfs0k5+MWltHTVGZ3P0gO3rY4c0TE+ORTcDCYAX3ZKd3IAJYNMwYFomEAIBm17zXwRc9tJNjsU3AwmAF9+aPWXEBGe8n3QYhgJWzVX5PX83DRMh/wtCGKYByzSRD31YAWD4AciDhVMnx6KZgQTAi2apKojEBGYEOgI4LgYTrISjEp3V/wzThAFjAsSGgaIRIGVYCF0vAfAi3AsJgBfhonHIWo/lT8GnYcCyzJJobBDABkTXJZiDMJBr+J9pUgcWXgzPBFIwESQAXpQ7IQHwAl42zwDMECAvFe5K41MYCEe1bRue56nRy1emiMXaOKU5sOi6FJd5manuQfE68H1Q1PZtU57Bv83QgMHzk2PRzEAC4AW8VL5jInR92MI1TRi2BRqbCDwCkbqsADoCuGVNfK85ML/zDcB2AwSWgYC/ixitrNKhZar7yYkBjCAB8ALeEk8ZWgLgBbRacVcPQRWkbRheADMIBcDkoASwFpvFKBUGJXGYRimFSwJbAZHXBeTARR8+pWrLEo6uwU+tuHQk3HcB7YbZDSUB8Ozmac7O0oYo/nRtAw7114KrLMgmdVplQdaWZOXbVTouP6MeTOhSJLYsW9xGbhgIByYnJgdWMFf6sR0zX8ct2XP2wsmDTmkGEgCf0vRVvlh4mpZEDSXCas4o4i7/Rdwy/rfmrgQkDUxigDJN+J4H07QEuHIfis6BD8dJwfVceRa/IXjFykzd1vdLVmnh3hSXK3BYAlofRnSfMzAlyS1PYga4HvogceVacQ25xlpwSgB8EhM7m0uUZVgBmZOv/bKl2AkapcRBCzFGEWT8W34SvjQsBQEcx4ZLCzHBS4BFICaHtR1HruVjCF2CXhaX3FUWOkY4xAL91CMB8GxWc37OUf77aA0jniBrbVqiOsn3OzeuT6wWp3l9aBgSHTRy41gEpmVJ4AQPn3oslEXZtgjQYsmKLNwy0nMJYHJqclPN0SWSSkRkfqc5ciAAPpFDKDmfFfmHxXodWbxP5D7JuWduBnxTRc6J5CQUXRFl7iUyBOERCYCnXoDpKFucuwnoYrcJaH6QWJ4AACAASURBVD0mxfQDmXRCjhZi4cYSCaVEY+GSFHtdT9YHtDTTkmwAlhfANWi8Ui4fsRtTjI64K2h8FteSEqss3iuEMlQRlKLQRtzYCGCR1dLVRI5vhHB8gOM0fQuhDbiBD9Oj2K2u0pyZ7qeiBTixSEu6nXz6nUOgaKrvyjk5xyHvkURozh7hkTtQwm9CiI++pGqRmHMvRe5ECdzhfwmAp57f+KYsPyuuL8okC7dVwREgKOlvJcXkQkScVrhcBDgdXEEfrdzLD0CK61sGHFF4aHSKrM9+iACeGLEiKoCUb8GNOLDjyw0ESFx0IRk8WfQmUm36eC3AcBCYBHAAyw9LPmaLEVmge4oAVpuHj3INW0BY5ar7uqbySxO4BGjGBYYzQNadDGCeo8YBpHx1bnLMPAMCSomWU3MnRNU0heOKy8/zI85ryJxKfEAC4Kkn1hcxU+mOOpBCc0DtL9VxxiUJVnRbFcIoflmE8MnZ+F+0QMoQoURpenmrtq6BMZKH29mL0PARkvtaXCBSXAdBXR1WtDVjdN/+kjEqb4bI2A78fBFWVRrOWW3wR8fhjedR274GPUc7YOdyyPL5jo3syhb09gwicCw4no9cykBLVx6BNYZCJoO6mhXI1Neic/9BrNy6ASPHumCMheBzfMfASNYUrp3O+2hd3Y7BgV7UDOQxYirCET9EmNAxnFo6SVxUExJTJAZLAgmltOhQ4bBKSuL0eWLTUKAWzutR71WyHn363IMJgKchjGJ8Msm5lOVXxxPL71H2jiQOkANHXFgswAxRRCjAKnoeMnlfnqIMVJGIGum5Xk0t1v/B87Dvfx6E0zWK1S9+JuqetgmOB+z50D9jNB8ge+kFOOtFVyNTXy0LyZEUq01k7tuPgWNdaHjJ5SjWVsHOezALPtyWOjiDo8C9j2Dnt7+H1EU70HzReXjywGFkmutQ7OpF26XnouM/foCa3gGs/+s/wWhPDoWxAnK5Yax/wTNg5YrwDh7G3i/chg3vfR0GH39SpIPcvqOoW92GQ48+itrHjsP0QtgBULAnTyQZec4M4K3IonagoDbvcgYxJTISM8sQzspdINy1GEXT6Y3Bz8Tz4CO0lRpEyc0isOnf96l+GQhoC+EeWiocOG5yn7SVuG8MN/YRxRGKl2pDiYtHrMQTQRBaB+HPlJMSTikOGo8+VyXgBGGRdFDuGwprzSBdW4XWS3Zg/Fg/RmtTONp5BM+86nI8cstPkCmGcB1TqKZN/dcPYNk2tv/LhxE8rR1m3xiGHt2NwYNHMP7wTmx8259g3zs+iIF0Fhe954+x5zM3CSEooAg78HD2x/8cj33gc7CHxlHctAaFKhM1Q6MI88Dw2avQPO6j8Ju9qHv+hWh7xhV48F9vwvprno6WS7fD6xxG9uyt+O37/xH2E4dhnbUKzc+5BG1XXIgjj+7GwJPHsf6iczH02C7kfv4Ytn3uz5F/7KgiZINDSJ2/DSaljMEhPPi+z6KaOnxsAVK2I6J7+vLtyO89hnWXXIiOnU9g1daNOLpnD5zD3RixfDheCDfuTjsFN9aU6z+D5Ho6fN/id484o9ZRhUsyPJV2CwKNUXQ0SEXEn4TecRz4xYm9KSyCkXKWDV9AHgXiRMRe7kkwi6FTGbaWDIBLYkjZgil8Ku6pDk3VQokndsOJidL+Uk6S9plykl3XRWhbKNqRBTgIkKZrJ0qQ5z3t6mpk1rVhNDeGumsuwvCDe1F97xPoXZfBpc98Jn53173A4JjSd2NjLLQ24uIPvBlP3vhjNDz3IuQO9SH/m99hwzvfjIf+6ga0/v4L0fzcp+Po52/Dpj97A+AYOPzZb6L9ZdfgwF98Crm0iQs++ZfIDwxh15e/hSq7Gs6Os7Dp/G3Y/aXvoqZnBLm1q9H+ymeh48hRbH/WpUDeArJpPPI3n4BzrBtnve+NyF6wGUfvfAiHbrsLF77595EbHcPRf/gKbDho/+w7cOz796LWTCF/98Nou+5Z+N2eXXjO216LB1/3AWS9yQB2q1NYs2k99h06CLNzGPaOTTjrWZdg7w/vRmtjA8L+YYz2DwpRK5B9RwfF7jgQS6pz5G57ChZjn8dXWJ9XMjTGLiz/7MRs91NTA4kzj0W/SXKJaYkHIWTMumUKs+C+sg1TvuNGqATgkqGKxsmYgVQi7KK9qTz+i1gH1hFL8kKEJ3UCipcxc7D2oQUm5Tu12orgq4kgB5TIJBqP/AnQ6mWim4cAFjE5pFFqIpNH9I/IbxvaJsJVK4Qf16SzyBVdrL/wPOy8/aeoy7vItzdg67atOPiTX8kixjdN+pIdqL7uMoz/90Oou3gbvO4xFB58FGf92VvxyHs+iG1veDXy56xG/zd/gdrzdiAYGEJXTwc2/+HzcOgv/gXN61aj4e2vQm40j5F7HkT7dc+G2ViH8Mhx9H3nlzjwxOPY/udvhv/YYdTW1WF8VRUyRgZ+Qy0y9+/Cr77+X1i7YTOsFTWoPmcz+o0isrs7Mf7oQYReDsaoi/ZPvgV7fnwftj3/KvR97y5kLzwb+2+/B0//wJ/g0Ve9H1Y4GcArdmzA8dEBZI8MIW1aWPuMy7C/+xjW1DXhyGN7UbNjPcYOdsDNjaOWgSjRUTSAAi1kEnSiYrbF5hBxIDEWin2B6xepNBQtubI0IFasMlJWfUT7VaN948QccEptr+B7iIv/UZ51yZMghklDRcfJflCBNPIvup8ki3Bv2gZCGg+luIJKPqFhSp2mztfWZfFSMFJO4gDcKJNMGUr5wpoRLFoOHI9kUtZWBS4J4peIB/rQLIkf9gzqFUrnEJ+qWFpDAbD4QWVRlPFAUTgFch7k0uI4Nw2xwqroKEslBghJUL46K5uB1zuETHUV3NZ61FfVovPOB5AJQ9Sfsx6ZVAbdDzwGzyoNT+6fvewCVL3w6fD7cxjecxA1rU3IP7gLW/7Pn2DXu29AMV2H89//Zuy9+Qdov/IiFArjGP3t41j9xuvwyPv/FenQQNU1l6J26zoc/uZPsPaS89H03IvwyL9+DXU7O2FduQWFc7egujeH496YiP6pVDU2Pe8qdNx2B/L3PYL265+NgmGhZut6NLS3oOPh3SgMDqE2P4a+2x/Cpo+/DY98+2c465zN8J48jtZztmPvzT/GOX//Vux65d8gMCI3VwTEunXt6M+EsJ/shekGqL30PKA6A6NrCD3dXVi5fSOC4/3IuQVRCUoc2A/FOi5BCgSDTqyIYUrgG4sqE4MgLeM08JSBTwNfx4XLqgpwVVEDWV8iRseOl12vHytckyJwRFhonBQGYFklcHEPqL2lCicou0kgrkIx6JFDW5YyZNLtxu8YqBMZOqlSyfOEwKiMMd7PstWztAtSdlwEYDlzserAMu/RyotzO77IUZACbEvM7ZanqHbcdytzqoP/SzrGRDQTN5HovpFZv5R3K7RBJRVoak0QO9XVCNsbYKVTyLQ1I9c3iJ7dB7Bx8yZYNRY6HnhMjD3apSJuJtNEoa4GLX/0IhjNjRh/7ElkVzeiZihA/fMux0Nvejdqwzps/OCf4qFPfgktG9eJi6l/32Fs/du3Yuf//VdUVWXRcN2zMVAYAnqG0bx2NUIrRGF4BD3fuhuG58O9Ygdqa2tBbhOsSGHsSC/Wv/Q5GPjibejf+Ti8retQe/Z2VO/YgGx1GmO9/eh5cBeCgwdQPwBs/+x7ceBnv4bpjiOVySBVW4X9P/wFLnvv/8Yjb/5b+KaPNHMfo4NMtGrLGnhZB7n9x9F07tlIrahBb0cXMgDGj3TA7B8VgrjQDsXz1WbSIbB6rbRkoAg9GYACMMVcLR3oPRN/r5IEEQ+riiQxyg9xle1E52PRADgOVr6k1pw4JzooQr+8dvEYji1BC7ZQdZ03qxIBFLUOFZeOIp6EwgqYdcSUD8e2RbyeiIhRwRgM0NAEk0vOEAu/NoO6lkbkOgaAxloMmB7aa1Zg+PH9MAley1AiEhefXB0h6q95OrCuGYVf74HV2gB7ZQvSmRo0rV+H333yU8iYddj+njfiVzf8GxryBuq2rYN96Ra0XvV07H7Pp0QEa3v572G8qQpe9xDSg+Pove8hrH7x5ejcfwjh/fsQXrkNWdOG+UQXvE1NyGxahxUtbej5t//CSJWB1t9/DowhWp2PY6izAyu2b0HQ3oxaAEd+cj/W/vH1yPimcOXq1a04tnMPMlkb1U0rcPhfboYd+PAin7TMSSRm1q5biePIo82pQ/54L2pampAbGoTXOyjnFO25D/Qo30clwGjROKJDSh2bKD8ksI5sHvF7aNFXv7MQ9lidMe4vGrOEM0cqgOxfXWBQUkInmMtMAJZtHIXFynWLhgNHkSclC3E00cy4oXhCY5TO0BHAUkd1bOXwjsQr5YtVpE9TPZ1DK6auKL5Uc12VEKBS9kocWHP9ScYoFUghkjnvHTJzyEQqlYJXKApgA1ul9YnuTEs0E/JdF3Wr1qLPHUF17xAKGQt2tgrBeIBMQwOKfYfgGDVwNq7C2GP7ANuE1VKP7JpWWGEahYd3YywFtG3YgvFgHC5dR6N5eANDCFvrUGen0TfQj2BFNWo8A2NDwwgdC7VbN8EY8+DuOwivthrZLavgHemG2z8iPt1iCnDWNqK2rgldu/cj1VyP5qpauBQlHQfDg4OoalJSRni8BwXbh10W9SJRYcxVzqQQFItiuKGQKEUDIu42H5FaSppVklZchJNsL4bAUk2K7CGSCSZhr8o/q32wmkiJiBuJ09pfWxLjo6g7cueSfSXiunpPyVgqqNzTgliMYyq8UvbnfAN4khk/AoVW/nWdJ80RlfGJOqsWf6P6TjrBPVTlY2RtolhkijaMNCrlyEYisDJ+RXqQZUtcsiQElOlXU01mufSn7yWivWHA4T09PyplY4LJ+Yy24oLJ0KLkBCmwYQGWAD9aTUZWSd6u0rJJDGwyfQZlcNGEDLOShkoRVGGTioqXCJxpiMiuxFSlh4m7i5JDpDqYDCKgsaR0rYruEYVDU6NIclHJEkpFi8xHkUoSKkNgpY0Y2RLUGiuKOyGgqpk9XVbgaTd9VEJICHNkLCZRLon8lMIiwPEEmeO4ihWti+Z8mgvqbDEBuaR5Tvj5peCCPEOpW/HpmWQJj09AuRtNQm0tISpkSGITIJGJpDgx9cw3gCtlwyijATlrRPXCEF40qWpitD92YtlIlUoWOsOQLB2KqVw0z4useLqom4A0yuaIDFW8vw4YF6viTLLMNN9z0rlRqA9x8eiE91MWTD8UyyqfrMGq9SNRA/iOGlwGx00nv35XowSuSbvhFMa5XC5V66GSRzSYNCER9cey4DFwQgyb6ty4KExAcz9qNw7PFylCx7QzsSRWc1tzYV3eaLqa29Nlg0nwBvVsFm1gOC4JO41aWpKbTyNWSdSwVOSJ6KWRYahUDjVCkcSCRoe27BFszIf1fG9y0bZ4neMIiIpzRPKLiB4R9S1D6Uz5sIqrR66NyKqt7s3g3wmKLhzNMJULoFgUAHtMHCAFZYUNKY3D5HsaQYqqIJ1ObtCGjsh9UtLr+ZwTFbeWAUL1PoqHumopqrSPIv1cUjqFCyuAaqLN/TVJMojcgwym0J4LHQrLLaDFZm0RF/F5tmtTxhxErYgYjRjJIuu0SCdaJYtcpFQFCV4Jo+Qeng8OrMUwTpqIKhI6ppCk7EqBAEyonP5cSYGRr0zpLjqShQCW1LwoPI3XqFIzisuScpYAG7kgnirIaeow+Zs4viXsTUAWiI4kOm3kWBdXk6v8eTxUopAhrgfm8lKEV8XjJgDMd9f3VNli6r21v3qC804e2zLA5Im9YpSdw32jXIHKzsF/tDEIEBh2qI1Uke4ovv3ofK6p0ivVo7XNgxyUdgzth9W+WbVekSKh0/rKAFxJZJaxRO5N/pQgj+gzP2JEyngWudGivSR1zCgBMOKNvmPiQhtR51qE1llwAqzIQKCtdjrHVbixBPJHOkU8zSpCug7EkEmIQh3jxEFblGfaDZNUEJ2qpVP+YoK0uAxiRos45ReCQRFcYy1ycZU2RWSZnEjqV4EkyXHyM6A5phgpbVtxpEjSoueBOjt1fKZ0UocsFfmjiEz91qf/OBTxVJfa1eGJelTazTibtYrvI8JSSwQyJtnPijlQ+uK+F+LAMN2IyMgzo6qhWswv2RUiC7YwqciGU/JozDWAlf1FB1yQkExMoDKnawqkxFCRfKN6xuS2epEE4JFZXowJMSOLdgHMuD0ig5P2McWrXggxiTn2KSmIoYtBHIGinDy0RVAHBsjG0sU2dHeEksgeeRmXc1D/jIsyuxNKxjRKQhKQEdULo64rmVwEsHL3SSxAxGEJZtlDVGUoEEm6ZZR3G8UX6xEovXl6F0+J00ahlNpdSfuLkgQgxswSwY9UJe6lSQCO9oqYViNDbUks1wxMJ9AoEChyNR8AJhXSKXd6LNrSrIuzlZvsS1FUmpRFs6xtmydaz1jnXU4EE5BqK06qRbB4qldkliyJ6yUAR35kZZpVn8aDTISwzlY/mt3eTc6KW7NtCx4CCXDRvlVaasXQ6SqLvQatLJEwD8WdGREVz1WeyQZSaeJFFKcRLCIMFH+l7mcsLlrGENl3ZAzai8I/IlAKx2ZIb1StRRjXDCV+hfDMB4C1cYFF2LyYn01ZEiILrbLrKy4XlZGZ0GUnT6Xy0cZQos3xkX4i4WxRrKoYnCJDhIgynDedJULOSVcPJy7lAO5TU70EoLwuKnci70KKKbmaavzleD0Vi3aC1hlmgGsf1RyTdRYOHKWvUISmFyDyVSr9U/l2tQ453VppF2eJe5J8RzXL9PV8JuPli9Rho8ZxwpSifSzMgJZj11OEXKQzNQ5VrFARG0lbVcadiVDeWRD+OQdwfDkYi+zSCBVZYXUsqbbyaQ5YsiZOIXpqqlYSfSIAa+u1WPpoNCCxiBEGodK0cEfyGLMMBcAMBMk4UupmwtlviItBYVTl/JZ0Ix23e4rupwSsJzkDUTIB3YiSKxtxOQESv3MjlUdHUlVwQ1Z6ctzFwxQ/AV8UnaU5p6hvUTyzJMdITLPSgUtupJSDoFCUaD0Voz+Ruqoky8h4GRnHToTgzxuAFdVRxcoV4Zlwdmv9Zraip0gi0aSJXlymy0jEj2WLy6lcTCJ1jFCpEiIi/Uj8tpFlWXzJtBrHeg+JMSFmMz7JrZdcdjpmQEVdRGohM34m4tRP9vbCaaNWNULooxtJaGTEwUtAi55felYkVkv7GqmewdpjFK0jMT+yp5RULq0OnkQ+9IIBsG4REp/waQEcRdSU/HdRcy8pch5ZpvW9xAxPPSWKYppkeY6VzOF024YlInTRDJWlMvLHai6v/ckM2I+H4s1C2jnZvZRcN9MMaABF0VSiAsU1qulY2iQHsHpQSdTWax+T/ErSYVQhUiQyzUAi0ViipiKLMr9nngeTSkSnJWcuBedMfrGT0cHnDcAzrQm/1yKMxK5G4gW5oHBEE1J2xIrycrW+IqVbo2ZdSjeGpPClmDxAo0YUCaXFdpY3ESe9VH+kNXvxH+XEJP5Oy5HQlERhbQCNTMVUibiPpOyvq0TfSc69tC26q/RPjgr5MZacqYtxHVpK/yq7rEpp9eaux9SCBrCI11HwuW7mpRMRpJqjlLlRweY69UsATpBGflkFYAMp+mqluJxyGZTCMSPjFh3p6o6L/9Duh5KvVAVPl95tKbzjTKs0iVBFOrKsvQRQqJrasm+KHlIOwyRVCRxN9Hl/lkCigiV7TKzZhpTitdwJEV10WIrUkXVbQmNPQhSe6X2m+n5BAVi7byROWGLWJoqYMyyRVjvlGIaEJkoeJvWdyN+n/LSm1JwSw0Ak+jCRQMThSLRS1RPUEi/FzgRSG5pJHFEIKo2Dek6lXekSZ8PaviLrS0AxMYTgi+wuEvyjxeIghJNOqTK41HUlpDeUmlRkIGlTRUBJWKOtJD8CWBPBmQysJwvM2V63sAAslR2j7A2a4c0ATsCJN8StE5gmnKoqWOksgnRUeSOKoWZ1ROoZ3ngBgVeA4bowAx+uKKu2ooraTxvLglmsLp+ATkxpqaL0PZ/5vuk0UiwskEoL8dORRCRwJG6ycUfHEOZyMCRcTwXRLLkjsvTSHiKx5hYBy1BWA7ZpwwtCuIaB6voVCLJpWClHandLnakoClAqZuQLaq7yBSlMp6OftG1E9N9ZWrTP1BwvGAALkCIHt2R9SLcBirUm3FQa6aZGWKkUjHQGRrpKipVLRJSmpPTLUrQpevCL4yj09cEaH0doULcpq3l6pmZzDu/L9xcOw3lKp2A0NiFVU4vQScEwnQojUQK1USgiGBuBOzSIIJdbmolNonopt59KJmEDOBZQsBCmUrBqa2BVVcOuqgYyGRU3TZ8sr4mVVgoCDz4BPDqKXF8fUlFIpKTzzeFaT/eoBQNgoWZS8Fq3xwzAjgPF6jTSq9thcqKZtE9OY6aEg5Cjil8uqsMsxkjNaQt5FHp6EYyORvmyC2TGT9MwrMBFwKqHmSrUrWyDW50GTAd0VojRZYpwksCkmOjBHs8j190Df2SkVA7mNA1t3m+jDZo6SELe1zfgp7Mw2hpg19XJXMFg+9UYFKNiC8rfy5YyBqyAhlIX/tAQ/M4epcbFMsbm+2UXMIB9mKk0ajasQyGVAmhxlqoXFiw48I0A/E9EGKrL3LI6iYB9fyQFy0Oxuxde78B8z/Npf75t+nDTKVSdtQmuk4IFWj4tmR8V8V45WUJKm0r8L20HRWSO9WBwcLDULOu0D3Qebqj3gVYhXATIIoXUylaETfXwZHpMKZnrGQSkMvFJTm/MZeQbVL2Y5UQXUBH+2BDy3f2wc+4k28k8vGLpkQsLwNxYLLlipVFwLFStbYedSkUgVeVYKA6rxloqGJ2ai3Rxk+oHyt4vwYyasDLv83gHguFhmKEPXzKcFqezSHtBqNbnMlVoOmutFAqQ+dABvye6m8wi8geOIhwdLZU0PdFbLNTzSdxTot8WgcYWVDWtkoJ/Hm0igQMbeSkH5NBoxaILhgknoCjtY8yqRo3LUFvZYbIvvdBEcbALRk83AimUOP+C9MICcJR0FVgpZNtbYNXXRTkCKrOZFkDPclHNZltsy8lgC6lUwMZgLENKQ4WqAV0q1RMCTj6PseMdCAvjkflq/if+RDe9Bq/ovZaJ7Oq1sKqrIsPKyQPYNzw4Y+MYPXZcDH8V6yKf6GAXyPkEMGt4+dk0atasRmCkRCxmxJ1DdQweUr6DAlu/hqzrxcwlG2boSbfHcduXWuCBwY6RlgDd8ovId3TCGxpeEHO1oACsk9nN2jrYK5tgOOmJrUArIkIULQ/ZzTvgta1EYAXIdvdhfPcBZOvqUCyMwi2MqZhTbV6WTBAf1sAw8r19DHZeEBN/ontc6oNFnQuMplo4be3M8lYkj0XnVevCEz48iTjzEfYNoNDdI3aGpXKoTCEb9pqzYNZmpY6Ytg/4ddVIbT9bCi2MW1lU9XbBO7APzqq18NtXCoDpBTEPHENwvEuazqma3gHMkQIKxw8jKBaiVjvzN2MLCsBiJzUtZNvbgPoaEY/1Qd2NpUuzW7eh9bqXID8yiHQuQO3Zm7Hv/t+huqUeztAgxu69H8XDTz5FuOGk53u6FBdehPm4kv9MycK0kVqzEkbdipIzjKqFcGaCMVDlauO9iiQcNDLw6bzpiXnlPUNYo3nkj3cA+dz87cbT9GR6HjgndD/aVVVIrd8skVJUwFgVhZJc1XOehZXnXoCg5xhcpBAcOYKOB+5Hy9ZtqNq+Q4oKulUpOLX1OPDPn0EaLgVpmXPbB4pHn4Q3PCztWKWF60kS0FN95YUFYOq/2SxS7c0w6OuNSsDyJUXgMQyc9Zr/hZwL9P34FqRGTDS+912obV2D3h/fhuptOzDW2YXhH3wfZp7isrLn0MDD8oxuXzeKg/2zr190qrN7Wq+nzzaAWVUHp30VjEx20t3JIYxsBiu2novMyhbR3fQRNR8ARsYx/PheFHt7Jq4lZyF3d3343b3w+/tO66jn42aByfBHkjsb2bYWoLk1Nheqkuf6t78DB+68C85ju1QsM7OKdAGGqHTlSDqFCz79Cex90/9BikbTmF3QGOhDrqMLZujCI6cO5sdVubAATOpWXy8FzunPjHvbQlVjFm2vfSXGMyswdvM3MZj3cNGH3odxy8D+978Xrc9/Cay2ZgzecivCkeHY3glg+Da8vm4U+npK+aHzsblO/pmB+LQzDS0wW9sAa8LXqxItfCBTDX/Huci0tE6KtpJewwywH8zBe2IP0Nf5FABT/wt6+pDv6pp3sfDk5yii2QZzb00UYKJ5y0a4qerSLQk2+nG3vP2d2PvjO2Dv3aPovMozKB30DRftFHb8+z9j/5veAZMNY2MAtos59B98EimPFmm6NBMAi1Uv09wEo2UFfFbqixWNptlfRJW1Z2H1H/wh0ivq4KZspFNVZLHIjw8iZWTR86P/xvBd/y2+Tn2IJTGw4fX3oNjTDausCPmpbpi5uJ7g5XtUN6+E2dqKIFS1nSYONgVnxcsaVaCcgI4OXZWC7TzNAnOc46xEcWAWdA/7+jHe2RmZEufirc7QM+gaCk2Mmyaaz96CQBq6aHCrd1/3xjfhyM/vgndkv2Sqlde9kgAhM4PNH/sA9v/V+4GwCBUZrQ4jzKN/30FkiqwqyslLACzybralDWhqhmvREjihA9Mf54G9jkLUpNMYWbUaOTOLpgIwXOdivHkdUh1dqD60C6m8p8Tv6BAA+zb8wV4BsLkI7TQawDUt7TBbWpV9IDLUkR55pg8TKRRWrYffVB/TgUkWffhWgOqxApwjXTBGRyoix+3thdvVsQCcI6cGbK69HQRicW4893y4uiZZFPsuOrLdAsftx3jWxLb3fAhYweAOX5gB/Dxy9/4GQ7fcit6aGtQO9MC1aiUyUB80/I3t3wunUESR9a/mKaZtQYnQAmDqK80tTwEwMZd9+qVYIQkTigAAIABJREFU97xrcfSXD8IfGcbqv3gjxoom6kdZ1saVjJC+236Cvjt/DJOdrmNUlyL0UgUwX5ObEnXVaHvuc1GzcetE8yhhF5xZH25vP3rvvgf5gwcrIMSA29sDr6vj1NCzAK4WN1EQoFABwDITZoiGy6/B0b0PI9U/gnxtozRpytC3GzIUla61HPJmHmtf/lIM3PIdBEFKCOEEgAPk9u+BXXBRlGIC85MhsqAAzOB6p6ERVutK+A5rGU1wYJpwGq6/HuZllyFdHEHNph149FOfRvu992I046Jo16LquVfBXLkaI9/9HqzBCR1YKG7gwBvoQb676yl9fBbAnptxCJoDVzW2ig4cMkpIEygBcAjHZ59e+oYZ/x1TIVQtCMaviWgpySGTDtWa1e3rhdvZ8ZQ+uzMOboGdEAdw/dnnMkYtNkKlA29+5zvx2E/vgLNrN1I+I+6pSrCFLHtGKzDmLAcXf+ZT2Pumd8KxQ1XpIzqYhz76xONwigmAS5MiRueqGthtbQgz9PtO6Bxs/tz0khfBdprR9+gD2PDOt+JXn/43bHxsP4bSIao9F01XXovxTZsx9KNvw+zvn+DAdAAEJrzeHhSZ5PCUDbzAdmCF4UhShhHAqW1Aqn0lYE3odYrJso6XhWD9etiNLaWa2vJd4MBg7cb8GLxDh4H+eGipyuqiilLo7obf273wJ2OGERLAFrOHbAtVa9YhrK0peR7U0ps468/ejgM/vhvW4w8KgD3Tkj5StAXQRsLothEri/P/4x+x681/jjTyk6qOMsa+cPQIUkUPni50Nw8zt6A4sERQOTayK1ciYENogwHnalao4TW98AWovuQK5Pt6Ub1+PToeug9VjzyGvKVq/zZecCkKbhEDP/gezOEJPU82b6EIr7MbwZiOxpqH2T6lRzJMNEDoZFC1uh1GVX0plE+X+7FrqpG99OnIrlsb4zkGLN8WlcQYGsbIrx+UjacPydCh+D2eg9vVhWAK/fiUhj7HF8fL+tbU1cFbt0ZGoPzhJowghZb/dT18Mwtzz6PwDBvBQD8GnnwStStXIruyRSL9cjUNWH/tldj5vk8g6w2LcVALyu7xY/CGR2G7jNaaXJ52Ll93QQFY16/PNDQhbK2HYdGVpA6aYlJnrYV13jYYh3skYb/2yotgeynJwPFMD25QgH/fb1F4fJfkv05c7MIYGUfueAdMceYtwlBKuiqYvhHayLY2w2xshWE7Kqc3irMcl8KJAdKuyn3VB4kbDTo8j+6iiW2oChow+sofHES+o0uybxb7USqsL50QbGTP2iDNxiVQyPCR8mx4q9eh7spLJFRy1AHsQ4cw8uuHUbdlI3DONoRWVlSSwqEn4f72YQRGUaUkskBi3kPu6CGErqsKxMfKo8313C0oABOmkrDAEMp1rUilq0tYkzBCdvwTpzkrD4ZwV7ajJVUDzyxIBYVCPodgYBwICpN9yH4R3vFeBOIbjkcVz/V0n/zzhEuSf4Q2wnQGqTXrYGUoRqvqetTb6C5hYAFDAONaAj+TGPGQm1iVYNMHrdeGW0DhWBeMkbF53IonPzflV8Y5MLOMrIZW2Kub5DSKx2yzyp+F2hRsJw0fKdj5HMLxMSCdAbIZuKwGk3dh5QallI7tOwhNejeAoHMQXl8XwniHjvmxYc19YfdZLRPdAFVZhGe1wzBTAlhVZ0htPNUOl+GCphQkk80d4VKas4SmnG9KiJsHd2gAue5+pKLi64vQDVySQ0TbJSWrrxVRmsH3bK4dNaiJ5iWWzBHpx8ouY4qxS/KuJa6amUwe3J4uiVKjdKLSERf/EceTkbaQaW2HVdsIxn7TRx5VZpbQU8lOk0iOmNDGmliWrxrSkQiEKi4hHB1CsbsDfr44KSJ3vmS6BcaB1QRKlQnWtWqow4rWNuT5O0E9yxhmbmaKiYbvIiwWMHr0uNTlZQxriQAs9j1qGnCaG+C0togOdyLphASx5FOzgtHAKMaPH4ftU2pRoF5qB98zyGRR19oOs7oKngTFqLe0BMCVD7qNyCwYeinldnJFjHV2wMyNTipbO5/ztSABrCeE0TDpxhWwW5rFqKALiM00YaSZTA+jyDzc1Q2bGdxRFvCs+7jO9JB5/p7vR6JmNDYg074SQcBKJVEy/zRjU5U3qbcVMTLaj2JHL1IFXxrjKXfLyWU1zfN0TPt4URpI8LJZZJtbYFRVSaVS2gZsZjlMcVBflgKADDMt5sUF6Y3mVNTafLHcsrEuaABTDvbpJM9kUd3UjCCTll6v8ckrMWVSSYrTNNK4RRQGB+ENDsH2fCmGR4qrU/KWQlVGbi47YNFwC0F9LTJNbXDSLKtDLXfy7pqk9bOuU2Ecfn8P3MF+sSlkAkvKHJMgLEUAK+OVytAKnSyyTS0wajII0pRcnIohGLymYLuwCx6c0SJGe7rhFUdhsyIMM50SAJ8gzbYsOHW1sGuycNks23ZUw+2oiiCLvNvUcceLwnmDInWUebIsnOCrnerpAthUCqm6ahjVGYRWCpadKpWVLdKwxeZa5By5UbjDQzDyLhxfkrSW1SESGJufVaWRaqiFb9fIPpKG8lEjANa9kv7T3hi8oVGEo3kp6aTrlC+kCVvYHLhcXKA/mAW0bQtOugpsJiVF7cIQhUJBdV7gxKv2VssGwEp3Vb5I6ZroOEinM9LVnUchKMDNFwD2epLaxxI5KBJLvL3mQtqYZ3QsYuCMCtelbKRSKThOqlQ72nVdFItFOAVX2WICZdVfIEx30tQsIgDTf6mtUPRfMnF9YkpFTIpebSFO9BndkJLAr9LNeUyWO1RJGHJfsTyX1cReKKLgmZ2fibuX75GQmUtTHDpFcCHvq0UEYM6yciMpsMa34uQFWn4AjlxpESeevB+lDsVEJwGtVsSqDs0VeBbKc0rVlsRuUrl6p+w21oiOKOJC3VOLDMALZQsk40hmYGHMQALghbEOySiSGTipGZgXAGu3RvnP2bxBpUDIk9FRKj07fu/5DLg83c+e6X5TfT/TdbNZrzN5zmz2T3xvlK+vVscqjXGmd9f3nc84aBn/zo3rT7uvRYU9qnA+8Vf6Ngo2kAoMltTGmB0gUwiQS5tIBUDODFBbNKSptsM2oJICp0L+pNMeAxaYi2kyggiwaT21bJjs0wqgaBsILQNV4z4KKZXvarO2L3UcIwujWICbMpENTOSDIlJBAAb+Kz+qIZbbrAeMOyZs1pYOVOVCGn7mUvehQUWFharwPgvsKcDQSY5JKf82OzE6BtzQZM8uCSWlIYrzIl2gbGbbBPBDFiNXW9NnWmbaQSD9f0JkAlO6OoT5orh9CwhQ7RvSThNRu1a+d9EOkGbMeRggzWxiOwXPcGGzvYj0GprD2TEYFeVJfyPW/2Y4Ss4JUFcIMJbykfLZZ4G5vDZCnyl+IVI+15QWelZ3saT+c5XnS1B9UVqOFmF7/FklCR18N+nYENAHzPWfuvVbYPnwzTRW5IGRVIHm/yg8lesxdy3jzgiAmewcmqaEQK5Y2Yr8MVXlgaBInbsB6Z6cgDtoqJaJdsZ95A4eR7E6hfbN65HvH8JIb7/KlAkgvt9scyNsy5G/PbCyoA+rbwRjPf1Ydd52BG31GNpzCEOFHLINDbD2HUI4nkf9c5+B7jsfQKplBayGGvQePIymfCiO/Pr1q1iFC7m6FIq9Q8gND0rKXaqgWpPqnsOnxEWiCoezuYcURzMCpLM1SK1aiWL/IAr9g6pWsxGK64f9kKov2AozH8B3PcD10H/4ODIhCaKDhm0bMT7Qj2JXH5xiIJvRXVGL7JbVcAtF2MMFYKyA1q1rcejhR2FvWw9v9xFk7RSGVqTg9Q4h5Slim2/KKN/nUA4rVrZJf6EQLnLHu2Rzn45DGqvHut1PdU9VJpduMAup2jpk25owOjwE+1g3RrMG0r6F7Np2uJYj8QDVDXUYrbGQGSlicO9+rGhfCbexXt6rIMYpE9bxLngdnehrXoG6hlrYxQLSzU3ifrR7x9B//NiUxQ0kmm3bZuQ6e9G+qlGqqJLjDHf3ytyTiM7FcUYAzLaeuYyDpksvxvrLLsGuT3xO3sXYvBJt118Ds28cwb4OeNUp1FyxAyN3PYLu+3fCXduIlmsuROFIN3oPHkWVbyCd82BkU2jeugForEUua8LqHUW2GMDr7MfRoT5c8IaXI1zTisHf7MFATy9WrWzD4R/+FDVVWax6/Stw8OYfIFNfA2tdCzp37UXmUJ/EW7c/80I4qSpUXbwV++74HxSeOISgo0dCL1nG9rRs0RMAMDl/ocZB7YXbUd/UCtcNcezu+5AdG0UghbzYmDyFjX/0CgyNDKIwMoqqvnF0PfAoio02gsZGbHv+teg5+iRGdu2De7wfKXZsvGQraloa0dDUiLHBceSHRrDt4h144PNfxdbLrsSehx7Fis1r4bbVwdvXgfRIAXWeCfeac1AkU/7NPjScuwnF8TyMgWEM3vuItG49HQcDKFxKBjM2DFPihJ/JoOZpW1HX3Ih8tYUj3/s5GvIhrKYGrL3+2fBSaYweOobqFbWoffFlGLjtHhz/6a+w4tytsC7cijo3QI79ktkY7oGdGNx9AKkXPRMt9bUY23sQdetWY5zcu6YKx77yXQQFt+Jrptub0fDqF6B375NY5Yfwm1fAyqZx6In9cO97TBL95+I4IwAOQx+FtIkNF1yMxrf+AXb/8Xuk70zNhduQedomtG1Yh31f+j6OD3Rj62teisM3fgdZ10e+aQWarr0cK6qzMHoHMWYGGLn9ARhjOVXmZFUr7Au3IjOeR+HXe+APjyJc24yxLWvQsGEdBnY/iYZVbahOOxi88z5sec3zYa/ZiOIjD2LwUB+s9a3SGzb/u30Y3XMI9nmbYWYsrH7OlTh2+//AHB1B4UgnzOFx5CMReyoQSxI3Re6CB4+RYVytyM8qkobvYyjr4Jw3vgoHfvLfwOE+qfxAlWBKnSXwkW/Mom7tarj7utH8yt/D3p/chZaOARQcH/VbN8JZ1Q6nrQFjnT0YsgwUdj2JFT1D8Le0w2qox+pnX4XBY4cwvucQ0DeKke4urH7L72Pfd36OmvWKQ1WHaWw7fzsO/L9vouGiC3B4106sXLcO3ppmHN+5G9U11WjozGHVW16NglfE3s9/B8WmrOocyayuJztLOchT6Y8EJEvQSIdA9tql+B+RREZ/UZrgn6vf9Er0P7obIw/sAoMap2JcigOHQCoDt3UFvMEcznnzq/DbL9+ChoERqVK6/vrnI5e10HHLjxH053D2J/4Mu9/9Kdihj46mLKo3rkXG8yWehRU47CePwnCLaL72GphZB0e/+zMEfgjPtnH+q16Izpt+iEE/L72WqapwXW2qZwFQ09qIhlc9Hz0796H3nvvhBDas1U3wsjZSBzphUzqag+OMAJhdA6mopvI2tn31Y/jdm/4Kpm+h/qKzMVSfQUNTA8KRHMYdD7Xnngfvv+9Bz6O70NK+AdkXX4VOJlEfOo4dr/49PPLhL6CGHdJZ5WnNKhTXrUTaL2DNuVvQ8bXb4WdSsH//WozuOww82YM1Wzei+ryzcOzmH6LqvE1Ye8216LrzZ2i55iqYjTXAeBHHbrsDR3c/Drt1FULDxfqXPA+Hbvs5iv4ojN4h1A0VpdSqDnyotA5rr74YR/YfhHF8AA2XbEc4Mo7+Ix1oPXsTxo52otjRjbZXPx+1734jen/9CIxv3ImO+x6UTcj0v8pHgJRhwks5wDkbsOry83HoC98V0S7jASuuvRLFpnoM/uZREW3HV7UiNZaDsfMJeO1tcDMGNj7/uRg5fAA9j+1HFg5yHUfR/NoXoePuh1C1vl2IR8auwfoLz8aRz94Eb8dGYHRY4qEbz1qDJ351P4xVjXCO9KPxtS/B0NgIjLsfRT8KcBgQMjCC6r4R0UGnCujn243WpXDhVZfj4Z/chWxNNdrO3YyOB3ehce0qUV+GHz8Ee1Ujtnz+ExjrO4riLb/Aoe/8FM6UG1+VFHINWxR+a/s6PO31r8aDN3wOqcIQUJ1Gy0t/D7VtTei66fsodo5i+z//BXb/+ScxlvZgbFwDY8NKSQO0TOYAG/CPHoOz/yhWXfcCmKua0HX7L+A01CAVOmi++Bwc/eEvkF7djNCxBLRFC7DdUGwHYdcgWv7oeuQOd6H/lw/AW9WIVEMdhgYGkHroADIs3zsHx//f3pVG2VVV6e9Ob6o5qSRVGclEKmFIMAZF0GZ2gAiyVmPbCwRUWmwVtVuXq5te3Wtpr25pURpkRrSlsVuhFyizoIyCgRASAUlMSAgZq1Lz+KY79Pr2OefVS6VSeRWSqlR4908lVe/de+45Z5+997e/vfdhEWCelsy5jOVcNN19LTZe8W0pFhZrqEf9yg9j2/ZtiF7djOogQuzck9H78NPI92dQfepyYHI1qlJVcGZPReejzyNaswkZ11eJ/I3TkEml4DbvQW1VLfp2N2NgWjVWXPP36O/tQHrdZkQ1SaC3H+0PPQ03D8z5ztXY9i83wz9jBWYsbcLAq39C66trEU2rRJSoQSZMo+GCc9D88POI+1mgpQv2HtW4aqTMpfSMGrgd/ajt8dHWkEIiFyHWn0Pf5CS8vgycTBqdJx6DU3/yAwTrt2PjNTcCW7eLz19cLaN4jel7DTiRmILp5m6Eb21D2N6FIMohH3NQe2wTgqbZcHt6kfVsJOwKbHr9Ncx6qwXZhbMRJhzM/MAKdGx4E+mePvT29KGypR21Z5+K7Vu3ItY4GZV5IJaqxIwPHI8t1/0EXVNrMWnJAjT4Mbz19iZUT6lDV283pk+Zhu39aeTCHCZvbEa+vlIlTrR3oaprQPdlHn6HpnJAWwWQnD4FwZbdQu3MNVQjtasHqE0hY0eo7sigq9rD8gd/goF8Lzq+fw/6nljF0nLD3pQ+JwW4+pg56BxII96aRt85JyH1dguCP2+Ek4qj5rwzEOby6HnieVgDFhbfoAQ4y4Z4tZPQNWcSnLdbUF0/FVnm+G7bgT0YQMXSpZhSPwXBb19COhlhIO5i1gVnou0XvwF9dNZWFNqp7k+FIEQ+GUf8E6eJJTjtzZ0YSMWRm1GLLidAfPMuxHOHxsU40BlwGAXYRyzroemea7H1mv/AnPPPxNpf/Q4Np70Pk05ejOYfPYDdA+2Y8RcrEP7iaeSOn42aJcdix5rXsegzK1HZtBiv//AWuOu3syCqpAdixhTkUkk4O1oQpUMkLAvdtQk0XfZphDPr4K7fBUytxtvr1yPoakfyubew8LvfwJt33IEpH/4Q2tb+Ge6cSci99AbQ0QPPSsGN2Wj4zHnYcPevkWTJUSa1B5H0Fx4pa8lh8/GYjYpshEzcVig5wRiLZnIkbSq7kwnMv/gi7HrwIUQ9aWU2juBZ0y/3Gqei9sqVqMo56B7oQ+8Dv0f96Seg+ZnVsCfVYuqy49G6ei2aPnIq1j38PI47/zS8c9d9yMyZDq8yjqlNS9C3aRP6gxxaujoxdWcHEmeejN4dLZj3sVPR+tyr2LXpHSz7/IXYccf/YsZFH0N7TTXSD70ILzuAcOZkROt3Isjm0L1gGsKYhUlb2tAbB9ycAysM4KXTANHw/VySWMLkAAJgRLX5w7EFQSd8lKF15qsezrMu+UtsfeIZxNs60W/lEKPpM8xF4aUQ+6kKzLtsJZr7e7Gw6f1Y9/3bseRTH8SGXz+FaYuOFwun9cVVcIIYFt/wTWygANs5TF58LNzj5qL5vifhzJuOjGUhsWUHQF59XSPiy+ahf/sOKc0b9x1MPel4bP/v/4GVoagP1nERQ94C8paHmR8/C2+8tAYz5jZgIOaiYnItuts6YL2ycWJrYDP/0nxb+0D0/epXLBEUcPfa9UjNm44FF5+L1+99DP1bdwsoMe19S+AlK7D5hTXwd3eg7tz3Y8H0Y/DKPfejIhfBbaxBT40HZ2ubIKzidnLTV1cgXDgTMc9DMhshvmA69rz4GrLNHVh29V+jZ9MWbPj9y6jsyctz+8M8ol0dIlCL/+kLQHMvXrnjF0jlAhXBGadLGrgV9TY2/iPnsG7WdNTPnInNu7aLECw68Tis+sMqLF90HN784+tIzZmBmR9ahr6eHokAVFdW4o1HnsHkHb2oPKMJvSxat70VlZMmo2HFibByPjY/+Qe48xvgv9OKxRefCyuZAlwPaO/Bhl8+ilwCyMUd1MxuQBB3kQt8eF1pxDc0I9vTvXfdsTGaMx5yAnil4sgHKmuI5nxF4zQc+6mz0LrqDbS9vglNl5wHq64S6667GzUVSUw67QSsf/YlVPf48I6ZioxnwdvaJqDXsZevxJ+eWwV3Rzv8Kg9pK8CipSdgzxMvSxbXcFc4pQ4nfOWvsOban8KpUaV8q6uqBJDLvdNS2J+He1oOiwYuDNogsI4tzbNyHmNuNjw2TgaQTtioygFuxpeKf1lHlBjilqMrGUfgac6axbK5mVxDTec6oAY0DW24iLwfT32myPFkFx+NgIUVwY9ZsIMIHkuiMJuJGSaMZdo2fD+Q2LP8jRp4HDP+pfoDDz3dZEsK1jEuzk3LvGjOk2vDc1zkIibhq3HHbQf9/gDSCJCMHMT9SCp19lkBUm4Mbt6CH1dzZvuW+NiMMFeGDtIxS0z/tBXC9ZhrnReNk8zR51PZTKw3Fo+UBu3XdQbHKwtRUv40n5vvz+KFBMkERmQdK+aDW6xDquaRFbGzNq0qmuAqpYj+rGs7yEYBYmzZQ64BA0v8TBSqFEvPKfAMhhNCN7LRlggxrRcIPVv3LlT1tSUXboxSWQ+vAOs3p9lhUFqTvsZJpInKgLmRGel5ztKpugVGnGE/TeaQWr+BIn5Q0CWVQVtxhjBCjUpBLyY38LmO6i0pE8tqCsSQCEjw+UQoDRFCah8dbKf7w3zUKlyhqONgIalDza2lNwznlQg6Ny8PLf5fyA3cuzwEGD4Rf1IdZNTEvmshkdG9lSSApi7Z8Ey90yYk54lzy3sGkg02flfxOct386V+1WC5PpJ9OEC13xwBASmYfAcSPPh9oso5N1B11eRVVD01c43kQqkig4qsxP7MTHwo/t5Y6YExEWC1GfSm0MLJyTETJIQNtWX2yjji7+Vz2ndkKKrQ6HrI3mH9IoH69XO4gPxaztUCrDe8ASOknIqEMhRjSZVmVcVmxvPaHz7Nw43VJs3GKE4dlEJ+SoyFjcV58xxHbWDmIgXscmEpzUTWmkHYCdDkfGGpxTIB8g4PMJPtxZ9KmE2VR3VQmFK04+hrDFM707JYYkgfyrpOM8duqpaYfF5zyBtBZnydgsz5lIqVdFB0OHBkrkqIGEOSogj47fHZN2MmwOMpFEfDs40gmXcxm8wcewSMxGcmg0zUJv/viHkpFgnNTPm7+ob+gcC1xAynr1ecU300zNl74R3KAjxRVlmXe6HPJ9qCBex0NRJ5BdsW/0sEWMxlZf7Sf/WgSg+JkNPUk2oUJE2EytejJUKOMO83UeZj6DhHwXibMK9o2Gkj+NNlAZ4gq6n8V0s6UohXp9F9KSlE07aggQGfSeqC6TgSFhNyiO8LIEY2FQ8AuQ9xAddW5XUCVYJor44WE2RuxKbQ8zBW4NFYTI2hl45UjbUswGOxEiU+Y6iZDM9FlGcmjQKliLJKaE5vWBWioyZlvpEttcKIwEcBAR1qYwUI8pJwC4Erl04b7xPK7+JsS+P76kAo1ugljnm8PmZqjPAdCPDlJE6sM9fGa1CH+LkBs64k+UzBiMTXCjFpUx7pcKQTHuL3eM/crrinD186oHbkQgkZQoFPJqRUiLEzxETwipUUubqeK6ETCjEF3AgvfWFhVFDrsnC+Q/+Yxe+LsmbGMA3u3S5qsablG2TFY6AV8W7vfOR8n2tOMNaVFVbhgLIAHyHrU0gI10JlACbqTBMHZgybpy8zYowG5joq/zWQaoo5NtjSKLrl2ohcR4SXMXCazFxx+r2CYkvrlLHNcT5c0+3rFjHKzw/J1RM/n2LMSIT618STZuEvMOuZmEYUwLVsSQJx5XBV70PTuhCNKGvgQ7PFirfK0FCQilBZogClBQ8VoRAS1LOVNlHag4XrlZCy9YklhIMCQszYrgBV9GEDeJ6LkOQDCj3VEEkEJKrQFNabmfcXQVZP2offPXSLH5IUykMzpfu9C8fMw03QdlJaIyBn2ejzcsjaJN7uLbwTRZAV/UhWTNY5HgaozyZB0ohjhyLMCsDU68n9Uhbgd7/bhvquNGFFYxIR1jWFpXC49llV3qElIR7+ztABCzRp7fMSUKJmprCaS1BkbtBQMbFUcXsyiErTNvv42QV2tkKwxyeaWfoaqPAXhZeVXNiFI0R7IsDaRRmsW5hDv5MvxK3NXQVtnwAXNetg/VAglfdw6uY6LH0TiJFxxyIEzKh0PYSSFBOVBfhQrauh6RnEUKiPsJDL5xSlj8QKETxlykpuLWl/OvSzl0mtzaiCv8sKJ8IrVyc0fVhJnNCafTTCKyEkiTqprSLPEH9YgVpjxSA6qHk3NMookqos2chFn5XBqwv6cNtlaWyfEcLSrCCVP1wwPA7qcePyJe3kcvQVvodkl4dv3+VhxVu1YlIL7ZchRFZo4Q4ra+BDsEw0jzVCLPxcUva0z8n/EygyJAsTwnEc8niVv0uJUvFd0huV9qZAGUEr/rsCapQpPBpzV6iVtABECAY1tgG0JAZMs7tETX4IZm3UtzA8aL5/VyyP+u4k3qrqxT3n9+OXF2SEOaaalQ36i6N+yDh+Yah15IUR0l6Iyx+pw6X31yBG7jYLEZD5TXyE+roswPtfsb0S1o3JK8F15Wcqd0Ufmdq0FY3q2AgYi5WwDNmag8Jp/FtuRoIu1MQioGRMSYyWv1ffldiv0bhFgiVPPoD0KkuA9yKYpQ4FlRihSmEUh5hoHYTaTD9iNbABpvQ89Fs+MpGDdBDhpsta8diZWX2ojeZY49QzVMNFYvN0kmDUARwLWHftUDgUERzeP7KEsqmWrrSIMoIfAAAOd0lEQVQx0sbywgAffbkBf/vjOFIhkIzoA0ewPVeKL5YFeIQTt9BDVkgUSrh4+gspQssQNRh7EEmIRwNHjLXSLBWEWJJhlQ9LDVhgT4kAU2gVo0qEmc8oisUa03i4QH5xF/qhr0BfSoRSYr82/IDj1dpdHzoF8IugiOPAZ9hplFp9TJWVTkYxc5KJAnSR1521ceMVLXj8dNXfeLRXZEdwWOEjYEQ8hBvlZC37mDlXGqxwwEeGjAVpTj8TH0q9LQ+XeBDg7Fca8dU740iGEZJMUHEi2DEWeCwL8ODk6xioAEJa2GjWsulV3s8r4aIZqgXC+KC8gSyIpikK4qlTykTICTLllCAbM5ooYp4EDemIBzkQ+I9SBMiAOMY6UPd11L212W4acvFdeLgQBBM/nIi2pmLywCDNkoLtMb3QhKMOuB3H6QNagA1gl0OIdjuClXfxo8/tOWgBrooqWOMUlhch58SRCQI4QR8830Je5YO8q8uOHEzLzkJHfBfylrISVBvXA1/FAvzl2z2kIiBFMMtT6ZISHz5aTej9hUfM78XwLcTWlHDxEuRXa1qawV4splBPHa4xwrGPAIvWU36t9CKWeK7mJxcqFO4bYNpLyw4Z9HDhKI6RYyhkymjEmlrWHDLmnvxpBLiYN63e1RoUYM9Vh8gE0MDDCjA18Bm5/UqEmkcapIpthshFxPTDwBaz9sLEhbhw4SfhRcAjOx7Cg32PYiDohyW1r42rRNRXpWYV6j7LWvNQ590DRKFCkSUzTE5vH9VuLW5YcRO+9chX0FHbJWa5uiNNdmevFNGhL7CXAN/mIQVLhNhz1B5zLefoFODhzEsxIVnuxiL7iKeXJWl0UhjAXFqLCfNJC6K0MNVaWZGO9YfFT1X/VlFcKH+W/6YGFm4uk8ttSQyXkNEBTt6hIIbR+Irnq0AmMY2ZdI4QMceTutDiJxdlI5nxGq0vGljHg9XBoiKOAYW+RH/swPriMH9iiAY2JjQTu2+8vBm/OXP48q8clav95gpUoDHZiNZ0Fv3owAerT8Y7fW/j1vffhS88dwUSqVpcMuNCPNb3IHb0tuPEuiXIOjls69qNNrSgyZ6HCrcaXqISa9tXozXfhlPrT5PftQY7sa7lNcxOzcC8ymPhpBLYsPtF9Kcs3Lz4Nnz1t3+D+LQEFqWOo+Rh7e7V6LU7kR9BGdvRoAn9pVtdpBwbcRa8YLl/+sK04I5GDWyifgIo6X1lfECJMhAVZveFmKpSUSDCayGgALPyhxQH0AJjvm+0m9AXNdhkBK9YQBVnWceD9QFQvFbyd51hVNj6OuleDgGpr8VDgQCTqitlSCD8KSVO+Uvp+StqWd1G0y35YR4+1KzG9xb4hOpCkhnU98yYSjPqDrOQjnT7dyHAzPPlelUFtbhq0VV4tu8ZJFodnDNvJZ7e/BTOWXouvvnaN+D6cSyqn4ee/gBXNl6KfGwAtuWiKpyER3ffjwumX4RuvwezU/Px5Nv34/62F/D0R36Gx/vWIsyn8ci2h3Da1I+goXoqsgFQkXXxndbv4e5Fd+AbL1yDs2echfmTZ6LKqcMrW1fj5/5PkR+he0CxAF91i4OUbSNuAQlNyDmKBVgBQtz8hnoomocbl0JJCWf7kZgL6SKhecKqsocqrWIE2Jilhb0lgqfqQBtzbqjmLC5Huz8fyvjZ8myjwcUCMCwt5YuL30rShvZfJW5rWcJEkiR9fogxXOlwEEpZIYkT0xWnSW80v2Qa7TuakapOjKO47vvogxRg8fH9GHJeRkzWq4/5OjZ2/hkXT70Y12+8DkviS7Bo9on45y3/CCt04FgBpvQ14NbTb8AVq69Cxu3F9+fehFd2P4s5k2figR0PY3ZyLpalTsTt227HnR/8GV7OrMHOzk1o6W3HSanleLDvAexob8aT5z2Oz/zmEvzglO/hltdvxheavop3su+gxk7ASYT4yrpvIYuB/U5zQYBXN+KLt1hIOS6SFgkdE0QD76WxhrymCaVwT7quU0izU8Kg6yExoV1n5IhG4ybXpUFVryVLhJz1sUyqncRmdUyUPrB0uTfZQAUBUKhxccx0RLCjEJxXNrihUpoYsGovokxsMrcU20p5X5L3q7Wq8t8Ui0vGaQRc0y6NVpd30xaAoWjub5cc8ZrXDPwgBVhoiZGNwCZQCLzPXYaPxs7HR5s+jPPeuACLM8vwd4u/hCteuxJOzsIn516I3rY+fH755/DZtZ+F6+fxg8W34eltz6CxugEPtNyLBfFjcVLdafivjmtxdnQxdlfuwlIcj2yFj4qBFH7VdR+2DGzHqnOfxsefugg/+sB/4u51P8OFCy7CUy1PoSvqRlc0gDWdLyA/QoPxfQSYpY9sBx7xFqZyE1idqCZ0wc9lVUovpsxZ455qooKQvjV6bJBY+qeixQLyhxUcT5RZxUKVqSqWaJG/KpUQNbBlkt5H2vjD+eBCk9PaVEJPjlsI7yhQSQmsGTPHyDEb5NpU1ODzFeJs4G+lWYtj1hJeeLfw6RGlfpVroAwnRUIZjQ9c/CpVfhX+fdm/4s1dG3Fn922YPFCDf/vQD9Ed7kKQq0J7byvubb4H315wDTJRD7rQica6BfjpurtwSt1SPLbzQcxJzMWKqlPw85334Lpzbsbqzb/DnLoTcP/G/8PS2SeiIl6LKmmU14jvrv0abl9+J77+1D/gE4tW4pj6WQgTeazb/Afc2/MEEPWXqIGBlAiwC891IeUGuV+PZAGWXnSk+fEntZKmIQogw3YXjitIqrJB1UamAEj1CYXaFMAjY5oKQkz/UMflmNVCLSsColSj+J8KNBrMp5XblSgUUn9JV0w0h4Egx0JXVPcWdJjIr4BfDCep58pGLTKF+f6szCmUA024KKZOGlyt1LEdaXJZ8nj2I8AMI914RTMeP33/KHTxMzjvC3vmYEfUjXSqA7l4gPpMPea1TUaXF6G3og+dXhesWBbH7F6G0MsinWpGt9OOitxsdMTZbyqOZOSipaodC9uPQ0U2QE9lP7ZXbUMyH0dD+yxMsZL4Y90e9MV2oqF3LhBsRV9FLebumoV8hYWtNbsQoFU6ROzvMhr4nDXT8cWbLSSdSASYbhL3A4HYI1qA2XvI+H48bcQ31TwWm8nrmr9LsGaQDKEoFqK9HEX2V6an0nFiQms/13Q6dD1PtC8vqUhhqlwUaeHRCLCpR8UxDJrzg/4tBdKY0Wqc+wqwHFw8lBiX1H+XxIhh/FiOTRX+02fZhLGLSxbffTQwS8J2svpm3hsVkSNyeDA7sFnM0E3CSscApxu+o1hObDtr5R14vg0/nocdxuE7WbhhDI4fSLYTp5ctc2M261I7yMZd2AHbrlYgbxP4CpC3HcTzgbQrzdgh4vFq5K0eKZrI9rZWHsgyfi/MuOEvVshMBAH2EWB+z7XhjocJPRTwKRD2i/w7QVBF8yptSXNTKICavVRsToo2lVCPCuYUQCAxqTWvWOorq12tkOMDMhH3nVENcBULdyEziGOT5w8KEE13Hh6qlM0gM0olMNhiObAQvcRftV8s4i4mv3J1HSLM5UvNwBAmFqtX77EzQuS46bIOPHZG+qibKTpusTDAua9Mx5dvdZBAgITrSTKDS4VGF3GsTejikIsKtSgTkpeYrDoX1sQwhaHEkA2BGtr8kpGjkp5NKp381DWeeB/pjKdNas/1NGFB103SgjYqJSUfVua1jFPS/JQFwEsIHJouKYeEQr3ETFa0S4JlyhIw9ElqXpOhZJByYUmZZ4hWLdFmP+q27jAvVMSF5qz4oYV2JwOQiXV5Jx45Y/9o7kSdHmpgCvA5qxtx9R0xxMI84o6HOC0ySZAZRwEWn9C0ydAZOQZtlc1NYEdvZkM8MAXXhLhAHrH2XffSrIydmvKqmmtcDHCVQlccuuDyfI5XHxqGGCF9lFjFxvNUs+0iDSwIsuYjF2LCOgZbOKyKiO1iah+MZTBRd+dox60tIInZE+DzgS4vB/gebri0DQ+ddfRpYDYZEC706gZ87ccJxMO8dIiMOS4c5SlSA88Z22Neg0sF39SQFnSuq8qgURUTTRaN6D+GWOhTan9WNK3Wagb8MeEeY4IW/MUh8SiJ6hSIFCpjSAAsItQ6c0fMdKMBC1pxsJaUORSMpWCyeUQ4tcI2lRMo6OpXuoK99seVOtc72XS+G+3Gfq98XltBhpUWhBYyVoAB18GvPtyL2y7tQWj5ggWomMHEvyJW4ch6uPK+Knz6d5WwbRaTtxBjYj/3Pg/9N+bOH2MBNrxjxVQyObFKoFVSuUKRNYtJ73JJvysqwGZoiqJ9dS7tqJZM14riSptSrdJKstCXiGGmvemSYu5ruqU5SMRMFlbTvtNoisoZssaoxlf+8LAzoMJnEfIEIv1IejttmZTBfSu78OzyEF0pWkV5SQ+c6NeMziosXwVc/lASdelKxOxQWgOxT5VxtayB9a+NrQDvNaua4VBgHymVZCiDY7MAg2PQinPQFC5hABL+OYKT4Et4hQn5EWlnJv21LGSdCB1VbCqegUMlACagHIpc3vGdmnSsH5M6HUzvSCAg5uL44maphAl1WWF59xVWSSal6DjbXwf68V3W8tNl46oceb2JVeaPVPGMvIMIMRyhcyohlQgZREjIv00m0+B4ragswEfo6pWHVZ6BA89AWYAPPEeFT6TTabS2tiKTyYziW+WPljoD1dXVmDJlymB4rdQvvoc/VxbgEhefhsrzzz+P66+/Htu2bSvxW+WPlToDDLktX74cV199NZqamg6YO13qfY/2z5UFuMQVpgA/+eSTIsB79uwpb7AS563UjxEMnD9/vgjwKaecUp7fEieuLMAlThTDW21tbVi3bp2Y0eXr0M4Aw3Pz5s3DsmXLEI/HD+3Nj+K7lQW4xMU1DKADlcUp8Xbljw2ZgfK8HtyWKAvwwc1b+VvlGTgiZqAswEfEMpQHUZ6Bg5uB/weAzQXt/5A3TAAAAABJRU5ErkJggg==;" vertex="1" parent="1">
          <mxGeometry x="210" y="90" width="240" height="520" as="geometry" />
        </mxCell>
        <mxCell id="B8--hFE0BmT9H1GI5RbR-5" value="" style="endArrow=classic;html=1;" edge="1" parent="1" target="B8--hFE0BmT9H1GI5RbR-6">
          <mxGeometry width="50" height="50" relative="1" as="geometry">
            <mxPoint x="380" y="210" as="sourcePoint" />
            <mxPoint x="510" y="210" as="targetPoint" />
          </mxGeometry>
        </mxCell>
        <mxCell id="B8--hFE0BmT9H1GI5RbR-6" value="shareObject.bigPicUrls[0]" style="text;html=1;strokeColor=none;fillColor=none;align=center;verticalAlign=middle;whiteSpace=wrap;rounded=0;" vertex="1" parent="1">
          <mxGeometry x="480" y="200" width="140" height="20" as="geometry" />
        </mxCell>
        <mxCell id="B8--hFE0BmT9H1GI5RbR-7" value="" style="endArrow=classic;html=1;" edge="1" parent="1" target="B8--hFE0BmT9H1GI5RbR-8">
          <mxGeometry width="50" height="50" relative="1" as="geometry">
            <mxPoint x="370" y="330" as="sourcePoint" />
            <mxPoint x="500" y="330" as="targetPoint" />
          </mxGeometry>
        </mxCell>
        <mxCell id="B8--hFE0BmT9H1GI5RbR-8" value="shareObject.shareUrl" style="text;html=1;strokeColor=none;fillColor=none;align=center;verticalAlign=middle;whiteSpace=wrap;rounded=0;" vertex="1" parent="1">
          <mxGeometry x="470" y="320" width="140" height="20" as="geometry" />
        </mxCell>
        <mxCell id="B8--hFE0BmT9H1GI5RbR-9" value="" style="endArrow=classic;html=1;" edge="1" parent="1" target="B8--hFE0BmT9H1GI5RbR-10">
          <mxGeometry width="50" height="50" relative="1" as="geometry">
            <mxPoint x="370" y="410" as="sourcePoint" />
            <mxPoint x="500" y="410" as="targetPoint" />
          </mxGeometry>
        </mxCell>
        <mxCell id="B8--hFE0BmT9H1GI5RbR-10" value="shareObject.userInfo.userName" style="text;html=1;strokeColor=none;fillColor=none;align=center;verticalAlign=middle;whiteSpace=wrap;rounded=0;" vertex="1" parent="1">
          <mxGeometry x="480" y="400" width="180" height="20" as="geometry" />
        </mxCell>
        <mxCell id="B8--hFE0BmT9H1GI5RbR-11" value="" style="endArrow=classic;html=1;" edge="1" parent="1" target="B8--hFE0BmT9H1GI5RbR-12">
          <mxGeometry width="50" height="50" relative="1" as="geometry">
            <mxPoint x="300" y="420" as="sourcePoint" />
            <mxPoint x="480" y="470" as="targetPoint" />
            <Array as="points">
              <mxPoint x="300" y="470" />
            </Array>
          </mxGeometry>
        </mxCell>
        <mxCell id="B8--hFE0BmT9H1GI5RbR-12" value="&lt;span style=&quot;color: rgb(0 , 0 , 0) ; font-family: &amp;#34;helvetica&amp;#34; ; font-size: 12px ; font-style: normal ; font-weight: 400 ; letter-spacing: normal ; text-align: center ; text-indent: 0px ; text-transform: none ; word-spacing: 0px ; background-color: rgb(248 , 249 , 250) ; display: inline ; float: none&quot;&gt;shareObject.userInfo.shareUrl&lt;/span&gt;" style="text;html=1;strokeColor=none;fillColor=none;align=center;verticalAlign=middle;whiteSpace=wrap;rounded=0;" vertex="1" parent="1">
          <mxGeometry x="480" y="460" width="180" height="20" as="geometry" />
        </mxCell>
        <mxCell id="B8--hFE0BmT9H1GI5RbR-13" value="" style="endArrow=classic;html=1;" edge="1" parent="1" target="B8--hFE0BmT9H1GI5RbR-14">
          <mxGeometry width="50" height="50" relative="1" as="geometry">
            <mxPoint x="360" y="445" as="sourcePoint" />
            <mxPoint x="480" y="495" as="targetPoint" />
            <Array as="points">
              <mxPoint x="360" y="495" />
            </Array>
          </mxGeometry>
        </mxCell>
        <mxCell id="B8--hFE0BmT9H1GI5RbR-14" value="shareObject.pageInfo.underMessge" style="text;html=1;strokeColor=none;fillColor=none;align=center;verticalAlign=middle;whiteSpace=wrap;rounded=0;" vertex="1" parent="1">
          <mxGeometry x="470" y="490" width="210" height="15" as="geometry" />
        </mxCell>
        <mxCell id="B8--hFE0BmT9H1GI5RbR-16" value="" style="endArrow=classic;html=1;" edge="1" parent="1" target="B8--hFE0BmT9H1GI5RbR-17">
          <mxGeometry width="50" height="50" relative="1" as="geometry">
            <mxPoint x="370" y="120" as="sourcePoint" />
            <mxPoint x="500" y="120" as="targetPoint" />
          </mxGeometry>
        </mxCell>
        <mxCell id="B8--hFE0BmT9H1GI5RbR-17" value="shareObject.pageInfo.title" style="text;html=1;strokeColor=none;fillColor=none;align=center;verticalAlign=middle;whiteSpace=wrap;rounded=0;" vertex="1" parent="1">
          <mxGeometry x="470" y="110" width="140" height="20" as="geometry" />
        </mxCell>
      </root>
    </mxGraphModel>
  </diagram>
</mxfile>
